/* XPM */
static char *result[] = {
/* columns rows colors chars-per-pixel */
"64 64 158 2 ",
"   c #282626",
".  c #2B2929",
"X  c #312F2F",
"o  c #2F3032",
"O  c #333334",
"+  c #383636",
"@  c #353639",
"#  c #383738",
"$  c #37383A",
"%  c #3B3B3C",
"&  c #413D3D",
"*  c #343D42",
"=  c #3D3E41",
"-  c #3F4042",
";  c #324048",
":  c #3C4C54",
">  c #375C74",
",  c #38617A",
"<  c #434244",
"1  c #494746",
"2  c #454648",
"3  c #47484A",
"4  c #4B4B4C",
"5  c #514E4E",
"6  c #434D54",
"7  c #4F4F51",
"8  c #504F50",
"9  c #4E5051",
"0  c #535354",
"q  c #585655",
"w  c #5A5857",
"e  c #565658",
"r  c #575959",
"t  c #5B5A5B",
"y  c #405664",
"u  c #5F5F60",
"i  c #415F76",
"p  c #605F61",
"a  c #656464",
"s  c #6A6867",
"d  c #676769",
"f  c #686769",
"g  c #676868",
"h  c #6D6D6D",
"j  c #716E6E",
"k  c #73716F",
"l  c #716F70",
"z  c #6F7172",
"x  c #64727B",
"c  c #747474",
"v  c #7A7675",
"b  c #7B7977",
"n  c #767B7D",
"m  c #7C7C7C",
"M  c #A13A3C",
"N  c #983E43",
"B  c #817E7D",
"V  c #82807F",
"C  c #376989",
"Z  c #3A6889",
"A  c #386F91",
"S  c #7D7B88",
"D  c #3B85B4",
"F  c #3788BA",
"G  c #7E8486",
"H  c #6A8191",
"J  c #758694",
"K  c #4982A6",
"L  c #578AAA",
"P  c #5294BD",
"I  c #5994B9",
"U  c #658FA9",
"Y  c #7A9AAC",
"T  c #78A0BA",
"R  c #368DC3",
"E  c #3496CF",
"W  c #3393D1",
"Q  c #3299D6",
"!  c #3E9FD7",
"~  c #349BDA",
"^  c #389DDF",
"/  c #26A6EC",
"(  c #2DA7EC",
")  c #2CA8EC",
"_  c #35A4E6",
"`  c #34A7EB",
"'  c #39A7E9",
"]  c #33A8EC",
"[  c #3BAAE9",
"{  c #4C97C2",
"}  c #55A5D7",
"|  c #5BA7D7",
" . c #65A2CB",
".. c #6DA6CC",
"X. c #7BAAC6",
"o. c #60ADDC",
"O. c #72B1D9",
"+. c #40A6E7",
"@. c #45A8E4",
"#. c #4AA9E2",
"$. c #4CABE5",
"%. c #41AAE9",
"&. c #5FB1E3",
"*. c #76BAE3",
"=. c #838383",
"-. c #898685",
";. c #8A8987",
":. c #83878A",
">. c #82898C",
",. c #8B8B8B",
"<. c #918E8E",
"1. c #93908F",
"2. c #898E90",
"3. c #928F90",
"4. c #8F9396",
"5. c #8F9598",
"6. c #939292",
"7. c #999695",
"8. c #979B9D",
"9. c #9C9A99",
"0. c #A99295",
"q. c #A29D9D",
"w. c #B29392",
"e. c #8597A4",
"r. c #8398A7",
"t. c #8B9BA4",
"y. c #859CAA",
"u. c #8C9DA9",
"i. c #9EA0A0",
"p. c #9BA5A9",
"a. c #8BA4B4",
"s. c #97ABB6",
"d. c #A6A2A2",
"f. c #ABA5A5",
"g. c #ABA8A8",
"h. c #ACABAC",
"j. c #B1ADAC",
"k. c #A4A7BA",
"l. c #A3B2BE",
"z. c #B4B2B2",
"x. c #BCB7B6",
"c. c #BDB9B9",
"v. c #C38987",
"b. c #C99899",
"n. c #D29B9A",
"m. c #C1BCBC",
"M. c #DCB8B7",
"N. c #C5C0BF",
"B. c #87B0CC",
"V. c #A3B8C9",
"C. c #B8CEDD",
"Z. c #94C6E4",
"A. c #CCC9C8",
"S. c #D7D2CF",
"D. c #D5D9DD",
"F. c #DDD9D8",
"G. c #E1DDDB",
"H. c #E4E0DE",
/* pixels */
"m m m ;.v G h S b -.m :.V =.,.c m V z v n v V <.:.G v m V m m v z V 2.V V c n V =.-.c m h v c 2.V m =.V ,.V ,.G V =.c V =.z G m ",
",.=.B :.;.,.c =.z v z v n b V m ,.m v :.V v G m v V c m G m ,.V z m -.z m c ,.=.=.=.=.-.m G G v h m =.m c =.<.m b G G =.V v m c ",
"V m m v c m c m c =.V V =.V G =.V z G <.n ,.,.v V <.m v m ;.4.7.,.-.G v =.b G k =.m f z v 6.=.=.n v ;.:.z m ;.=.c v n =.V =.=.m ",
"m h m 4.=.c m =.V m n =.-.4.-.;.,.b c m m -.z z m ,.,.G n ;.b m n m b =.,.2.m v ,.c m m G 6.v v z -.4.v -.=.m m c V m =.m =.,.;.",
"=.c c m m =.,.m =.G =.-.v v z v m n h z -.v n -.V n c m :.V h b m m m V V m :.;.,.m 8.,.,.;.=.m m m m =.<.V n h h =.m =.v ;.m c ",
"v =.,.c m =.m g m m c c c n :.,.m V V V G z v b =.m m m V 1.n v m V V G =.V V ,.v =.,.h m m ;.m V m =.4.m z ,.-.m m =.m =.=.h G ",
"=.=.7.m =.n h m m ,.V n V V =.n m 4.2.,.V m -.n n b v g e r 9 9 e r e g m =.z n h b =.G :.=.=.m V m m -.z V ,.4.4.=.=.=.m m c =.",
"G m ,.m ;.v G ;.V m ,.6.m :.v k -.m m V m =.1.m m ,.r @ o o O O o o o $ v 6.V =.m B m c c z c h G m =.<.V n v c c m m =.m =.=.m ",
"g V ;.:.<.G =.V ,.h v ,.=.-.=.z m ;.m ,.v m 6.S =.9.2 O O O O @ $ @ @ O h i.v z k G c m c m ,.m V n c G b G G V =.v ;.;.n m m m ",
"c n V m :.b v n ,.:.z m m 2.V v :.;.l v h G ;.f h 0 $ # $ % % # $ % % $ % w a g m ;.b V G ,.,.;.,.v v =.m -.v c z m m =.,.=.c =.",
"v n =.,.b m V m V m V :.n G c ,.,.c m =.m c t = = $ = % & & & = & % % - % % 9 t g m :.v =.m m m :.b h c -.,.m c m =.V c m 9.;.4.",
"V =.V m h =.2.<.,.=.,.v v V m ,.m l =.B z t < - < < 2 2 < < < < < < < < < < 2 0 e r V V =.=.=.v v V =.V G m -.m =.=.m z =.,.m m ",
"-.:.=.=.n =.V V v n V n m 2.;.=.S V B =.l 2 2 3 1 1 3 3 3 1 3 1 3 3 2 3 3 3 3 3 9 3 z G m m m =.n m v V <.m v m m ,.=.m ;.m z c ",
"V G m =.V :.m c =.-.m V c b V m v m -.S u = 3 8 7 7 4 8 8 8 8 8 5 5 5 5 5 5 5 5 3 - e ;.4.=.m =.m =.z =.,.n m G =.-.m =.=.m B G ",
"4.=.m b V m n V 2.V v ,.n V =.:.v ,.,.h 2 = 7 0 e 0 0 0 8 8 q 8 0 0 0 0 0 q e e 4 - 3 c c =.m =.,.-.n ,.1.V S m v m m =.v ;.;.h ",
"=.c ;.m v c m 6.=.,.n V h b v h l :.:.0 = - 8 t t p B B B j m V v v h u v p t t 9 - - r b =.V c :.;.v z c c b =.n v c G n ;.=.f ",
",.b =.V m v m G c m z z c V =.m c =.6.0 $ < 0 u a f 7.q.f.9.q.<.q.f.q.=.q.h a u e - % 9 m G v c <.5.,.-.z V V m G =.m =.n G =.v ",
"m c v z n m m v =.-.m V m c G ,.c m 6.0 $ < e d f f 7.q.q.d.9.B q.f.f.f.f.c f g 0 - % e ,.c V c v m n 1.-.:.m -.c m V V V V :.v ",
"m =.4.c V ,.;.m G =.-.m v m =.;.h m =.4 * < e h l l 7.q.q.,.3.B <.7.6.7.q.c j f e - % 4 V v ,.m n V :.v =.,.V b z =.V m -.m m m ",
"m =.<.,.4.G -.m =.z m =.,.=.,.n b m G 4 $ = 0 z c l l c l j j h j j l l c c c z e - % 9 :.m G b V b z v -.1.G z -.:.v G ,.G -.,.",
"c m m v -.m V V G m -.m =.n V n ;.m B 4 $ = 0 l c j d p w q 0 8 8 0 q t u g c h 0 = $ 0 <.;.m m G m m =.n V m G 4.V v =.,.=.<.V ",
"z m V n v :.n =.=.m m c =.=.-.<.=.c V 4 @ % 7 p t 5 - # O O X X X X X O + % 4 t 4 ; $ 5 V n m G m c m m c h -.,.m m G b m z V V ",
"c n V -.z z v V V ;.v V V m b V m m B f 2 8 h 8 + X X X X X X X o o X X X X X 2 g 4 2 u m =.G =.V V :.m 2.c z m b V =.2.m v ,.G ",
"-.V z G b m -.m h c m G m c m =.=.=.S ,.l ,.g.f + X + + O + O $ * * ; * * * $ h d.<.c m =.v v V ,.,.1.-.,.V m V m m m m z m ,.=.",
"n ,.m G n =.V =.b m m m ,.n m G =.,.2.,.=.6.q.;.< + % + + # = : > Z C A Z , y G =.9.V -.b ,.m V V m V n n c m m ,.V n z V n V v ",
"v v -.<.b ;.v G n ;.:.<.m v =.V m =.m v b 6.=.-.a & & % % % : Z F W Q ~ ~ R K H z 9.m =.v n h m G -.,.m c =.,.m V z ,.V -.,.-.G ",
"-.b m ,.z V <.2.m V v n V :.V z h m S =.B 7.B a ;.4 5 s =.4.Y } _ ] ` ` ` _ ! K x 5.n h n ,.m G v c n V b ;.,.m v m m =.m G v m ",
":.,.=.:.V h n m z h v m ;.G b m v V c b B 1.B 1 <.7.m.G.G.D.Z.$.` ] ` ` ] ` ' D H 8.m z =.=.b =.=.c V :.v V m V m :.=.=.V ,.-.:.",
"z v m V V c v <.v z -.m V ,.-.,.=.;.,.m =.6.B & -.G.H.G.F.C.*.[ ] ` ` ` ] ) ` W L t.;.V V c V G c m :.<.=.V m :.V =.=.n z v z v ",
"V v m m G V G <.=.m G v v m =.n n v =.m b 6.V & 7.M.n.n.b.k.&.' ` ] ( ` ] ( ] ~ P y.n z :.n V c v z m :.m G z b c v n b z V -.z ",
">.m m :.=.v V m m n m G :.b V V h v G G =.1.=.& q.v.M M N S } _ ] ` / / ( ` ] _ { u.G c V m -.V :.-.6.v c v ;.=.V G v m n -.4.V ",
",.m z b ,.c V G =.b V v G =.m ,.c ;.,.c h 6.=.& q.N.b.w.0.y.| ' ` ` / / ) ( ` ~ { y.G =.:.b ,.6.;.:.V h :.v V 4.-.m m c v =.<.n ",
"=.V v m ;.c c ;.=.h V G =.G ;.=.-.=.;.=.c 7.V & q.F.A.N.C.V.O.[ ` ] ] ( ] ` ' E I y.n G ;.m h c c c m ,.<.z m ,.n b :.;.m c =.b ",
"c G n =.2.m =.8.=.h =.=.G h v c m m m m m 1.;.& 9.S.N.x.j.l.B.| @.` ] ` ( ` [ ^ I r.n v =.2.=.m m m m ;.c g =.m =.,.V 2.z m ,.V ",
"h =.m ;.=.m z v 6.v V m V f G 6.m m m m =.1.;.% 1.S.c.z.j.g.s.X.| [ [ ` [ %.#.D U u.n G c c =.=.v V m =.v =.G g m ,.V ,.n c v G ",
"=.=.m =.=.;.V G ,.c =.m =.c v -.v g c -.m 6.,.% ,.A.z.g.d.d.p.a. .%.#.#.+.o...i J 5.v 7.=.=.m V z V S =.4.7.<.V V 6.:.;.v V m m ",
"6.c =.;.m =.v c G m ,.-.m =.,.=.=.g =.4.V <.,.% V N.j.q.q.q.9.u.T  . . ...B.a.6 G 6.=.=.c V z c c v b ;.-.m n b v G z v n v n ,.",
"v G ,.S m m =.V c V =.c k G m h :.m -.k b 7.<.@ b x.q.7.1.7.7.4.e.e.r.Y r.s.8.< =.6.m =.G m =.;.G ,.z c m n m v ,.V :.v b V :.V ",
"=.-.m b m v =.,.v m ,.=.=.V G m =.m m c 1.9.<.% h j.7.1.1.<.,.,.,.,.4.,.,.d.6.< ;.6.m c z ,.,.6.=.,.m =.=.n =.m V c -.c V =.=.-.",
"-.m c =.=.=.G :.c m 6.m v m V ;.-.m n -.V 1.1.+ a d.1.=.V -.V V =.=.=.=.=.7.-.& ;.4.;.v V 1.c G c v c :.V =.=.-.,.m =.k n G v m ",
"-.n =.<.m z z =.=.5.=.m ,.=.c m =.G m m c =.6.% w q.-.V V B B B B m B B B 1.B & ,.;.b m V m m -.m v :.-.z m z c n c m V V <.:.k ",
"c h ,.9.,.z m <.v G h c m =.m G 6.=.G m ;.;.7.# 5 7.-.B b B b B m b b v B 1.v & 1.;.m =.G v m =.m ,.,.v V n v =.h m m =.n V <.c ",
"V V z m v c 6.1.m m =.,.v m c v =.m m c z ;.7.# 4 1.V v v v v v v v b b V 7.k & <.-.m =.m m c n V 5.b z :.6.-.,.c m m =.V =.4.z ",
"G m a m n -.V n V v m =.m =.c m m -.V =.c m ;.% & 1.-.j h j k k v c v b V q.s < =.h m m b :.=.;.V ,.G b <.6.m -.k V m n V ,.,.c ",
",.m h ,.-.m m z =.-.=.m =.;.c =.;.=.G 6.=.u f % < 1.<.B B B B -.V V B v b B j 1 z 3 h b =.G -.V =.V m g z V c n z =.V =.m m =.V ",
",.m c =.2.b :.v c m v G =.c m G =.=.c z m 9 t & q s & & 1 5 8 q q q 5 & & + k w u = f m m b ;.=.7.G :.=.m m V =.m V n v z z n -.",
";.4.m b n V V ,.S V m ,.=.c =.v v G G v h % 7 < j 1     . . . .     . X . . w b e $ 2 h v m 4.m =.h c m ,.m m V v =.V G v m m m ",
"V ;.m :.g m b c ;.=.4.;.;.=.=.h =.m v v t @ 4 j j X X X X X X . X X X X X X & 1.t @ % s V m :.V =.V =.=.;.z m =.:.m h n -.V n -.",
"m -.=.6.m v n n <.m G z V m ,.z V G b ;.e @ 7 h.t X + + + + + + + + + + + + @ 1.u @ # a h m V n b m G G -.z v c m 2.m h G 2.V n ",
"G =.m V k =.-.V ,.;.-.z V =.,.h m =.=.;.e @ 0 d.1 # & & & & & & % & & % % % & 9.a $ % a m =.=.z v m =.V ,.m :.-.m ;.,.m b v =.=.",
"m m n b V m =.V n v :.=.k n <.V =.z m 2.e @ 4 a % # & & & & & & & & & & & % % u 3 $ $ t V m b V G V V v =.<.:.-.b =.V =.=.V V k ",
"m <.m c m m :.,.m c =.V c V =.z =.c V =.0 $ 2 $ O O O o O # # # + + O + O O O O - - $ r =.v n <.m ;.n =.z k h z G m m V G 6.V z ",
"n =.=.z :.V =.,.v m =.2.;.,.n c =.m -.c 0 o - % O O = & @ = # # % + % - - $ @ @ 3 2 @ g S m V V k =.-.-.z v ,.m ;.v n =.m 2.,.=.",
"V V -.z v m V =.:.-.v b -.m n -.,.=.m v z - 3 $ O $ B <.B 3.B p j v ,.m ;.2 O @ 0 2 3 v =.h V n =.m =.:.z G 4.,.,.=.b -.-.m b =.",
"v ,.,.:.=.m V n n =.v n =.b V G :.G v =.=.0 2 $ O * B h v 7.-.B m V 1.V ;.< O $ 0 < z m ;.c ;.,.-.G =.n =.G =.V n m h c c g v c ",
"z n v b V G c =.=.m m v m c m h v m =.4.=.h 9 2 O @ - @ # 2 & 3 1 % 1 1 4 $ O = 9 4 G ;.6.=.G ,.V v v v -.V ,.-.m =.g m ,.V ,.n ",
"<.G c =.v =.-.2.m c V n =.z m m =.V G v c c t 9 - @ o O o o o o X o o o o O @ 3 9 g c m m h h m m h =.6.V z G -.v ,.v 2.4.7.-.v ",
"2.v v -.V n ,.-.;.b :.v v b 2.;.m V 6.=.n V c e 0 9 - O o o O o O o o o O % 3 e r v n m c =.m ;.,.c c m c v =.-.z -.m V z k G 2.",
"m m ,.m G m v z ,.=.6.=.V ,.V -.m h m V z ,.=.z t r 4 $ O O o O O o o @ = 0 g b v G m V z =.-.G =.=.G V G V v G n V n V m c V -.",
"m ;.,.G <.V V m m n v z n v n ,.n V n b b b =.=.V G V h r 0 9 5 5 4 0 u h h c 8.,.-.G -.s V ;.m m =.=.V =.c G =.m -.v n m 2.,.V ",
"V V n c =.;.V =.;.G V z =.h v 6.:.V n =.-.m V =.b V >.n z =.m c m m =.=.=.:.m =.c S m ;.c m b m ,.m G m -.h c ;.4.=.z c -.1.m =.",
"a z z V 2.,.n m =.v =.m m c V ,.;.-.m <.n n m ;.m V m b V -.:.V m V m z c k m b m ;.=.;.m =.c m ;.m m =.V =.m ,.=.v V c n =.m V ",
"V V m c b V v c n =.v m V =.n V c m =.<.c h V ,.m :.v m z n G V ;.G =.c V c V m m =.v =.c c c G m V m m m V c m ;.V =.=.m m G V ",
"6.,.G V =.m :.;.m m n ,.,.6.;.G :.b m <.=.z m G v b b n b V ,.m V v <.=.2.=.:.;.=.=.G ;.m m =.=.m =.b m ,.G v G m v m =.G m V m "
};
