/* XPM */
static char *result[] = {
/* columns rows colors chars-per-pixel */
"64 64 154 2 ",
"   c #282626",
".  c #2B2929",
"X  c #312F2F",
"o  c #39302F",
"O  c #2F3032",
"+  c #333334",
"@  c #393535",
"#  c #353639",
"$  c #383738",
"%  c #37383A",
"&  c #3B3B3C",
"*  c #4C2F2F",
"=  c #4C3535",
"-  c #413D3E",
";  c #5E3939",
":  c #632B2D",
">  c #742C2D",
",  c #7C2F31",
"<  c #673334",
"1  c #723334",
"2  c #3E3E41",
"3  c #3F4042",
"4  c #02537C",
"5  c #434244",
"6  c #494646",
"7  c #454648",
"8  c #47484A",
"9  c #4B4B4C",
"0  c #504E4F",
"q  c #4F4E51",
"w  c #504F50",
"e  c #4E5051",
"r  c #535354",
"t  c #585655",
"y  c #5A5857",
"u  c #565658",
"i  c #575959",
"p  c #5B5A5B",
"a  c #765E5E",
"s  c #5F5F60",
"d  c #605F61",
"f  c #646464",
"g  c #6A6867",
"h  c #676769",
"j  c #686769",
"k  c #676868",
"l  c #6D6D6D",
"z  c #7A606F",
"x  c #716E6E",
"c  c #7F6D6F",
"v  c #73716F",
"b  c #716F70",
"n  c #6F7070",
"m  c #747474",
"M  c #7A7675",
"N  c #7B7977",
"B  c #7C7C7C",
"V  c #932F2F",
"C  c #983B3B",
"Z  c #B32B2E",
"A  c #BE282E",
"S  c #B63337",
"D  c #F40125",
"F  c #F30927",
"G  c #F20A28",
"H  c #EE1729",
"J  c #ED1C2C",
"K  c #F11329",
"L  c #D5252E",
"P  c #C82C31",
"I  c #D32F33",
"U  c #DE3137",
"Y  c #DE3539",
"T  c #EB222E",
"R  c #F1212E",
"E  c #EA2531",
"W  c #E72931",
"Q  c #E2343A",
"!  c #E23C3E",
"~  c #A75455",
"^  c #BC5957",
"/  c #B55B5A",
"(  c #985D60",
")  c #AB5E62",
"_  c #91706F",
"`  c #876F71",
"'  c #837473",
"]  c #8A7475",
"[  c #817E7D",
"{  c #897D7E",
"}  c #947273",
"|  c #A36967",
" . c #B96968",
".. c #A27979",
"X. c #B27878",
"o. c #CF4949",
"O. c #D54445",
"+. c #D94547",
"@. c #CB5C5C",
"#. c #D25354",
"$. c #E24F4F",
"%. c #E9595A",
"&. c #C66563",
"*. c #D56262",
"=. c #D37D7E",
"-. c #EC6C6A",
";. c #83817F",
":. c #807F80",
">. c #7696AB",
",. c #838383",
"<. c #898685",
"1. c #8B8987",
"2. c #8B8B8B",
"3. c #968786",
"4. c #928E8E",
"5. c #998E8E",
"6. c #93908F",
"7. c #939292",
"8. c #9A9595",
"9. c #9B9798",
"0. c #9C9999",
"q. c #AB8C8C",
"w. c #B58181",
"e. c #B88A91",
"r. c #A79897",
"t. c #A89897",
"y. c #A29C9C",
"u. c #8A96A3",
"i. c #8B9DAA",
"p. c #899EB1",
"a. c #8CA6B8",
"s. c #A6A2A2",
"d. c #ABA4A4",
"f. c #ACA8A6",
"g. c #AEA9A9",
"h. c #B4A6A4",
"j. c #B1ACAC",
"k. c #BEAEAD",
"l. c #BAB6B6",
"z. c #BFBBBA",
"x. c #C78987",
"c. c #C29C9B",
"v. c #CAADAC",
"b. c #C4BEBD",
"n. c #E6ADAB",
"m. c #E8B7B4",
"M. c #C5C0BF",
"N. c #B7BFC3",
"B. c #B1BFC8",
"V. c #C9C5C3",
"C. c #D2CECC",
"Z. c #DCD5D2",
"A. c #E3DEDC",
"S. c #E7E2DF",
/* pixels */
"B B B 1.B ,.l B B ,.B 1.B >.;.v ;.,.l m B m N ;.;.1.N B >.v N N v ;.6.;.;.v B ;.;.2.m N g N m 2.,.;.,.B 1.;.4.;.;.;.v ;.;.v ;.B ",
"2.,.:.<.,.6.m ,.n B l B B B ;.;.1.B B ,.;.B >.;.N ;.m ;.;.B ;.;.v ;.;.x B m 2.;.;.1.>.;.N ;.:.m k B ,.B v ;.4.B B ,.' >.;.N ;.m ",
";.v B m n B n B m ,.,.,.;.;.;.;.;.l ;.4.B 2.2.m ,.2.B N B 1.7.8.2.,.>.N ,.B ;.m ,.B l l N 7.;.,.m B 2.1.g ;.1.,.n m B ,.M >.;.B ",
"N a >.7.,.m ;.,.B B m ,.2.7.1.;.2.N m N B 1.n l B 2.2.:.B 1.B B N B v ;.2.2.B N 2.n B B ;.7.B B m 2.2.m ;.>.B ;.m ,.B ,.M ,.2.1.",
"<.v m :.B :.6.N ;.>.,.1.N B n B B m n a 2.m m ,.:.B m B ,.,.k B B B B ;.B B 1.2.2.B 0.2.4.;.>.B B B B >.;.;.N n l ;.B ;.N ;.;.N ",
"B :.2.n B ,.N g M B m m m m ,.2.B ,.:.>.>.m B B ,.B B B ,.7.B m B :.,.;.1.B >.1.m ,.2.n N ' ;.B >.B ;.7.;.M 1.,.N ;.;.;.;.;.n ;.",
",.,.7.B 1.m n c N ;.B B ,.:.,.B N 7.4.1.' M 2.m B B m k e i e e i i r k ;.;.g M n B ,.B 1.;.1.m ' N B 1.v ;.4.6.7.1.;.;.B B m ;.",
"B :.7.B 1.m >.;.;.;.2.7.B ,.N n <.B B B ;.;.7.B B 2.i + + + + + + + O % B 6.N ;.m ,.B N m m m l ;.M ;.6.N N N n m m c >.B ;.,.;.",
"g B 1.;.2.,.,.;.1.v m 2.>.;.1.v B 2.:.2.m :.7.B ,.9.7 + + + + # + + + + k y.N m n >.x c m :.2.B ,.m v ;.N ;.>.;.,.N 1.1.B B B ;.",
"m B ;.' ,.N B m 6.;.n B ' ;.;.N ,.,.n m g >.<.l l r % & & & & & & & & & & y s k B 2.N ;.:.2.2.1.2.N N ;.N ;.v m n N ;.;.1.,.m ;.",
"N B >.;.B B B ;.;.B B 1.B ,.m 2.7.m :.,.c m p & 2 & - 2 2 & - - & 2 2 2 & 2 r i k ;.;.N ,.B B B 1.B a v ;.4.B m B ;.N m B 7.1.7.",
";.;.,.B l ,.4.6.1.,.2.B m ;.B 2.M n :.:.x p 5 5 5 3 5 5 5 5 5 5 5 5 5 5 5 5 5 r r p ;.;.,.;.,.N m ;.>.;.;.;.1.B >.;.N v :.7.B B ",
"2.,.,.>.v ;.;.B B m B B B 2.2.,.,.:.:.,.b 7 5 9 6 7 8 8 9 6 6 8 8 6 6 9 6 9 6 9 9 8 n :.B B ;.;.B B m ;.2.;.m B N 4.;.;.2.;.g m ",
";.,.M ;.;.>.;.v ,.2.B ,.m B :.B m B ,.:.s 2 9 q q q q w 9 9 q 9 e e 9 9 9 e e e 8 3 i 2.2.1.N ;.B ,.g >.7.m B ,.;.;.N ;.>.v ;.;.",
"6.;.;.M ;.;.m B 2.,.m 2.B ,.,.,.m 2.2.l 5 2 q r r r r r r r r r r r r t t r u r 9 3 8 m m >.v ;.1.1.N ;.7.;.B B N B m >.N 2.;.v ",
";.M ;.N B m B 7.,.2.B ,.k B m l m ,.2.r 2 5 w p p d [ [ [ x N ,.M m v p M f p p e 3 2 p B 1.;.v ;.1.N v n m B ,.B N m ;.B 1.;.g ",
"4.B ;.B ;.m ;.>.B B v n m :.;.;.m ,.7.e & 3 i s f j 9.y.s.y.y.4.y.d.y.,.y.l f s r 3 & e B ,.m m 7.7.2.1.n B ;.;.B >.;.,.B ;.,.m ",
"B m B n m B N v ;.;.B ;.B N B 4.m B 7.e & 3 i k j j 8.y.y.y.9.[ y.d.h.f.d.m l f r 3 2 r 2.m ,.m N ;.m 7.2.1.B 2.v M ;.;.,.;.1.m ",
"B ,.7.m B 4.;.;.;.;.;.M N M ;.1.l B ,.8 % 3 i l l b 9.9.y.4.4.[ 7.7.7.7.0.M n k r 3 & e ,.m 1.B m ,.1.m ;.1.B M v ;.;.B ;.N B B ",
"B ;.7.2.7.;.1.N ;.v ;.>.2.>.;.' B B ;.e % 3 i n m b m v m l l l x x l m m m M l i 3 2 e ,.B ;.B >.B n m 1.6.;.v ;.;.B ;.;.>.1.2.",
"m B ;.N 1.B ,.B ,.B ,.B ,.B B B 1.B :.9 % 2 r n m x k f p r r e r r t p s k v v r 3 % r 4.;.;.B ;.N B ,.N B M ;.7.B m ,.4.;.6.B ",
"v N ;.N N ,.B ,.1.B B m ,.;.2.7.,.m :.9 # 2 9 f p 0 - & + + X . . + X + @ - e i e % % e ;.c B ,.N v B B m l >.7.B B ,.B ;.v ,.;.",
"m N ;.;.m l B B B 2.m ,.B B N ;.B B :.h 7 w l w @ o o o X X X X X X X X X X O 7 k e 3 s M ;.;.,.;.B ;.,.7.m n m B ,.,.2.B B 1.:.",
"1.,.g >.m B 1.B l m B ,.B m N ;.,.,.:.1.b 1.d.a ; < , > > : * * @ + @ + + + + l s.7.m B >.N N ;.1.4.7.1.2.;.B ;.B B B B n B 2.,.",
"B 2.B ,.M ;.;.;.N B B ;.1.m >.;.:.2.4.2.:.3.:.^ S P L L L A V > = = & & @ @ 5 ;.<.0.:.<.N 2.N ;.;.;.>.m m m B B 2.B N v ;.N ,.B ",
"m m ,.7.M ;.N ;.B 1.1.2.;.m ;.N :.,.B M ` X.$.Q R K G D D F L Z 1 = & & - & y N v 0.B ,.m B g N ;.;.;.;.m ,.2.B ;.m ;.;.;.4.1.;.",
"1.B B 2.n >.7.2.B ,.m B B 1.;.n l B :.:.} @.U H D D F D D D F W ^ _ l p 0 5 v p l 0.B l B 2.B ' M m B B B 2.7.B m B B ;.' ;.m B ",
"1.2.,.,.,.l m B n l m B 2.;.N ;.M :.m ` | O.E D D D D D D D D R -.m.Z.C.b.s.2.- v 0.B v ,.,.B >.;.m ;.,.B B B B B 2.>.;.;.;.>.1.",
"n m N ;.N m m 7.N n ;.B ;.6.4.1.,.1.2.{ ) U D D D D D D D D F K %.n.Z.S.A.S.6.X v 0.1.:.B m B ,.m B ;.7.,.,.B ,.;.;.>.B v N n m ",
";.m N N ;.;.,.7.,.B ;.c N B ;.N B M <.` ~ Q K D D D D D D D D K $.e.p.a.a.B.8.+ v 0.N l 1.B ,.m N m ,.,.B ,.l B M v v B v ;.1.m ",
"2.B B >.1.m ;.B B m B ;.1.v ;.;.l m :.] / Q G D D D D D D D D K O.z 4 4 4 >.s.& N 0.;.M >.v ,.,.,.2.7.m m B 2.;.;.;.m B m 2.7.B ",
"2.B n B 2.m :.;.,.N >.v ;.>.N ;.m 2.2.c ~ U G D D D D D D D D R #.q.u.i.i.N.f.& N y.;.;.;.N 2.7.2.,.;.l ;.B ;.7.1.N B B m ,.2.B ",
";.;.m ;.2.m m 1.:.n ,.,.;.;.;.>.,.,.,.{ ( O.T F D D D D D G J ! =.v.M.V.V.Z.g.& B 0.m ,.2.B l m m m B 2.6.v ;.4.N N ;.4.B m ;.B ",
"B ;.N ;.2.;.;.8.,.v ,.,.;.g v m B B B B `  .O.J D D F D F K Q *.c.k.l.l.z.C.j.5 B 0.B m ,.2.,.B B B B 2.g g ;.N ,.2.;.6.v N 1.;.",
"l ,.;.;.;.;.v m 7.m ;.B ;.v ,.7.B B B B [ ..^ I T J J J T Y @.x.h.j.j.j.l.V.j.- :.0.B ,.n m ,.,.m B B ,.m >.;.k B 2.;.;.m m B ;.",
",.;.v ;.>.1.c >.2.m ;.B ;.v B ,.B j B ,.B 5...C o.+.+.O.#.&.w.r.d.s.s.f.j.M.g.5 ,.7.m 8.,.,.B ,.m ,.B ,.7.7.7.;.;.7.>.;.B ;.B B ",
"7.m ,.2.B :.N m ,.B 2.1.B ,.2.,.,.j ,.6.:.6.3.; | x.;.=.;.x.r.r.y.y.y.y.s.l.d.5 ;.7.,.:.m B n m m B ' ;.1.;.m B m ,.n B m B m 2.",
"m ,.2.B B B 1.B m ,.>.m v ,.B l ,.B <.m B 8.1.& ] v.t.q.5.8.8.8.7.7.7.7.0.g.0.5 ;.7.;.,.,.B ,.2.B 2.g v B B ;.m 2.,.,.B B ;.2.;.",
";.;.;.m B N 1.2.N N ;.;.,.;.;.B ,.B B m 6.0.6.& l g.r.6.4.1.1.4.4.2.4.2.6.y.6.5 2.7.B m n 7.2.7.,.2.B >.;.B ,.B ,.n 1.n ;.;.>.;.",
";.;.v >.;.,.;.;.m ;.1.;.B B ;.1.2.B m 2.B 6.6.@ f s.4.<.<.;.<.;.;.;.<.;.<.8.<.- 2.7.,.B B 7.m ,.m B m ,.;.;.,.2.1.B ;.m N ;.M M ",
"1.M ,.2.B n n 2.,.7.,.B 7.,.M B >.' B :.m ,.7.& y 0.1.;.;.;.;.[ ;.;.;.B ;.4.N - 4.2.N B B ,.B ,.B m 1.,.v B v N m B N ;.;.6.1.n ",
"m x 2.0.2.n B 2.B B l n B ;.N ;.6.;.:.B 1.<.7.& 0 8.;.;.[ [ N N N N N N ;.4.M - 4.1.B ,.;.N B ,.B 2.2.B ;.B N ;.l B N ' m ;.6.m ",
"B ,.v B m m 7.7.;.B ;.;.m M v v ;.B B M n 1.8.& 6 6.;.M M M M N M M N N ;.8.v - 6.2.B ;.B B m B ;.7.B l 1.7.;.;.m B B >.,.,.6.n ",
";.;.k B B ,.,.B ;.N ;.;.B >.v ;.N 1.B <.n B <.& 5 8.;.v g v v v v M M N ;.y.g 5 ,.k B B N 1.;.;.;.2.,.B 2.7.M >.n ,.B B ;.2.2.m ",
"2.B k 2.2.B B l ;.2.;.c B 2.m 1.<.1.;.6.<.s k 2 - 8.1.;.[ [ ;.<.;.;.' N N B v 6 v 7 k B ,.;.>.c >.;.N g l ;.m B n ;.B ,.B B ,.>.",
"2.B m ,.2.B ,.m m B N >.1.m B B ,.;.v g B e i 2 y g & 5 6 0 r t y t 0 5 & & m y s 2 l B B B 1.1.6.;.;.;.B B B 1.B ,.B B l n N ;.",
"2.7.B B m ,.,.2.B :.B 4.>.g 1.m N :.>.c l & 9 6 x 6   .         . . . . . . y N i % 7 k B B 7.B ,.l N ;.2.B B ,.B ,.;.,.M B N ;.",
"B 1.,.,.k B B m 1.1.6.1.;.;.,.l :.:.m B p # 9 l x X X X X X X X X X X X X X - 4.p % & k B B ,.,.>.:.;.,.2.n B ,.,.B k N 1.;.M ;.",
"B ;.;.5.B m B B 2.B ;.v ;.B 2.n ;.;.N 2.i + e g.p X @ @ @ @ @ @ @ @ @ & @ @ + 7.f + @ g l B ,.B c N ;.;.1.n m m B 2.B l ,.2.,.B ",
">.;.N ;.n ,.,.,.2.2.;.v ;.,.2.n ;.;.,.1.i + u s.7 & - & - - & - & - & & & & & 0.f @ & g B ,.;.n v ;.;.;.2.B 1.1.B 2.2.;.B m ,.,.",
"B ;.m B ,.B ,.,.B m 1.;.m m 2.,.;.v ;.;.i # 9 s & $ & - - - - - - 5 & - & & & s 8 & @ y B B B :.;.;.;.B 1.2.,.2.m ;.;.;.>.;.B n ",
"B 6.;.m B B ,.2.B m >.' m ,.,.n ;.v ;.>.u # 7 & + + + # # $ $ $ @ @ @ + + @ % + 2 3 o 0 >.B B 2.B 1.N ,.n n l n >.c N ;.;.7.,.n ",
"m ;.,.n ,.,.,.2.B B ,.1.2.1.B n ,.B 1.m r + 3 % + + 2 - % 2 % % & $ 3 & 3 & % + 8 7 % k ;.B ,.:.n >.1.1.n m 1.;.2.m m ;.M ;.4.;.",
"B ,.2.n B B ;.2.,.2.m B 1.B m 1.2.,.m B n 3 8 & + % :.4.[ 4.[ d x m 1.B 1.3 + % e 7 8 N ;.x B B ;.M ;.,.g >.7.2.2.1.B 2.;.;.B ;.",
"B 2.2.,.,.B ,.m B ,.N N ;.M >.;.,.;.' ;.1.e 3 2 O % :.g M 8.<.N B ;.6.;.2.3 + & r 3 n B 2.m ;.6.;.;.;.B ;.;.;.;.B B l m m k N m ",
"n B m B B ,.n ,.>.B B M N v ;.g N B 1.;.>.l e 7 # # 3 # % 7 - 9 6 2 6 6 9 % + & e 9 ,.1.7.1.;.;.;.M N N ;.;.4.1.M >.k B 2.;.1.N ",
"6.;.N ;.N ,.;.6.c v ;.N >.v B N >.N ;.m m m i e 3 # O + + O + X + O O + O O + 8 0 g m B N v g ;.N g >.7.,.n ,.2.v ;.B 2.7.7.2.m ",
"6.B N ;.;.N 6.;.;.M 1.N v v 7.;.B ;.6.;.N ;.m i e e 3 + O X + X + O + + + & 8 i y N N B m ,.M ;.4.v v B m m ,.,.N ;.B ,.l m ;.7.",
"B B ;.;.,.B v v 1.;.7.;.,.2.;.1.B l :.;.v 1.,.l s i 9 & + O + + X X O + 3 e k B ;.;.B B l ,.1.>.;.;.;.;.,.B m ,.N ;.N :.;.M >.;.",
"B 1.;.>.2.;.;.M ;.B N n m m B 1.B ,.m m B N ;.1.;.,.;.l i e 0 0 e e e s l l n 0.;.;.>.,.k :.2.B B ;.,.,.2.n ;.,.;.1.N m N 1.;.;.",
"B ,.m m ,.1.B >.;.;.;.m 1.l B 7.1.;.N ,.1.B B ,.m :.>.M m >.' m ;.B ;.;.1.>.M ;.n ,.B 1.x ;.N ;.6.B ;.B 1.l m 1.6.,.v v ;.7.;.;.",
"k l n ,.7.2.m ;.;.v >.B B m ;.2.1.;.;.7.m B B 1.;.:.N N B 2.;.N B ;.;.v m m ;.v N 2.,.2.N ;.v ;.1.N B ,.;.;.B 4.1.B ;.v B ;.B :.",
"B ,.B m B B N m N ;.m B B ,.B B M N >.7.m n ,.2.;.;.v B m m :.:.1.;.;.v :.N ;.N B ,.m ,.m m g ;.B B B B N ;.m B 1.;.;.;.B B ,.:.",
"7.2.,.,.,.;.;.1.B ;.B 2.2.7.2.,.;.M v 2.1.n ;.;.m N B N B :.2.B ;.N ;.>.6.;.1.;.,.,.,.1.B ;.>.,.B ,.B B ;.>.m ;.B m ' ;.>.B ;.B "
};
