/* XPM */
static char *_e967bd119054b889a5a1171b871dbacBm0GyWPG3sQzZi44[] = {
/* columns rows colors chars-per-pixel */
"64 64 15 1 ",
"  c #626262",
". c #676767",
"X c gray42",
"o c #6D6D6D",
"O c gray45",
"+ c #777777",
"@ c #797979",
"# c gray50",
"$ c #838383",
"% c #868686",
"& c #8B8B8B",
"* c gray55",
"= c #909090",
"- c #959595",
"; c #989898",
/* pixels */
"#@#%@$o#+%#%#%&+#$o+@+#=%$@@$+@+O#=$#O@$$%+@o@O*####&#*$#$+#$O#@",
"*$#%%*+$O+o@@@$@*@@%#@$#+#+#$#&$o#%o#O&$$%%$@$$+X#$#O$*$+$#$#+#@",
"$@@@O@O@O%##$$#$$o%*@&&+$*@+#%=-&&$+$@$o$@Xo@-$$+@%%o#&$O+@$#$$@",
"@o#=$+#%#@+%%=%&&@O@#%OX#&&$@&@#@@+$&*#+*O@#$=+@O&*@%%@#+##$@$=%",
"%O+#@#*@%$%%@@o@#+oO%@+%#@+@%$X@#####@%&&#-**%$+#@@$*$+oX$#$@%#O",
"+$*O#%#.@@O+O+%*@%$#$O@@$@+#$=@+@##$%##&+%*o##%#$@%=#O&%@###%$o#",
"$$-@$+o@#&#@#$%@@=*&#@&+@@@$$%#+%*@$@$O@o@$#%$%+#@#&O#*=*&%$#@+$",
"##*#%+#*$@&=#%@o%@###%=@#%+&$+$O+#Xo#&#%+##@Oo+o$@%*#+@O+@@$+$$#",
"X#&%*$$$&X+*$%%o@&#&+@=$oOo$%+&X@&$@$%+OO$O@O#&@$+O$@#$$$+%%@@##",
"O@#@%@++*%o##*#+%%o+o$&$&@O%=+$O&=*=+%###%@$#&&%&++$#%+OO@#%*$O$",
"@@%&@#$##@$%@$O**@@%@O#+%%$#=%$@@#@&$@$*%$%+$##@%@o+%&#O@$#+#-%*",
"$$$@X$**&$&++$@&@o$#O+@+$#&$#OOO###+$o#$+o$#$$$+@#$###%@%%@o#*#$",
"%%$$+$##++$@@*&$###%$@$$$@&%+#&@#+&%=$@#$#$##+#%@@+#=#+#@&$#&#o+",
"#$@%$%#O$&@#+@$@+#%#%$$&+O%&@$#&@+%&$$%O+X+&*%@$#$O%*O##$%@%$@$#",
"=$#+##+#*$+&@$%%+%&+@+O@++$*%%X@$&#O$$%#$+##+$@$%%@&=$##+#@$+%%o",
"%O&@+O#=%&@$X@OoO%&oo$@###$@O*$$@&%#@@##%#%+@%$O%&+oOO+$@++#@&$X",
"&@$##+#$+@oOO#$#+#-%#*&$&##@$%+%OO@&&@#$%@$o#$+O==*&o$###$@%@#%+",
"#O@oO#@+$%###+#&+@=&##%O+O@$$#@*@$###$++##%%&+#O@#@*%%#%O#$$$#$+",
"@$=+#*&@#$%@+@%&X$%o#%$&*@@$###$O++O%&$#@@++$+&#+#%@$&#@o$$@%#@#",
"#$**=$&@$O#$&$%@@@$#*@.@#o+$O$#O#@$@%@$@X@O@%#$@$#o+&=$o&%+#&$%&",
"+@@@&@$#$@%#$@$@%#$#$# @##@%%=*$##@@$@*&O$$*=&#@$@@$@##$=#+$&%*#",
"O#$++%@$$##O$$&*$O$%#$X$&#*=*%#&$#$++o$*#$&$$@@$@+#@+o%*###+#o#$",
"O+#%OX@##&+$#@@$@@$%o+O@%##++O++%++@#O$$@+$o#$#$$#$#*Oo@@$$&#@&#",
"%$O$+#%#XO@$#O@%%%@&@$$@@++$%@%+$@&*&@%*%@%#$++$**=&&##$#@#@O@&%",
"@&##+%#%+@##%+##$%*&&&@&+%##&%*&&$$@$o@@o#%%+&@$##$O+O#@&#@O#+$@",
"++&*+%+$@&%*#@%##$@+@%%=$@%%&$OO+@#O$O%X@=@%+@X##%&#+$&#$o&#%&&#",
"%@@&O$*&#$+@#%#oo@$%#$$*++%###@@O$&@&+&o#&@X@&@#++@$+&&@+@@$@#+#",
"&*$%$o+$oo+@&$@#+#++#%@O$*####$*@+=&%+%##%#O%%@%$O#%+##$#%%$$&%%",
"o+@$#O+*+O%@$&%&%%*#$#%o+%#@##*%%#=##$$+$O&$#+#$O#$*%$@%$$%@O+O+",
"#+@#$$$&$@$++#%+@+%@++&++&$@@X@+O+%&#$=@&#+o%@#++O$%@$o@O+@+O#&o",
"&@#%%O###+#$%+##o+$#$@$O#&$$&$&%###+o##o%*&+$@%#%%=OO+%%#$@#+%*$",
"&@O@&O$$$+#+$$#&+%&+X+&+##@@OOo$#+$&#%O$@+%$%@*=&%$o%+$-%@@++%*@",
"$$+@&O+&$o$$$#&$%%%$O$-$##@O$$#$#O$&+#+#o$+$&@o+++@**o$*@@%&@+%+",
"+$@$*@%-%o$$$X++@@@#@$-$@@##OO#@@+@%@##*@$@@$*%+@@+&OX$@%&#&O@&#",
"o$#%$#O+*@$@$X$=##@#%#*%&@O@O$&@%#%%Oo+*@&@%OO$$+##%+$$.@&$&+O+#",
"%$+$$&#$&+$@%o@%+.+%+$#@&$O%$#$#%O#%$#&*#+@=%$##O$@$-;*#$=%&@$@#",
"*+$%##+O##&%@%*$%X$*#@#$o+$$&#$#&$$&*&%-#o%$O#OOO+@&%#+++$O++++&",
"+$&#@#%#+#$+O$@o$@&O#&@*O#*@@#@%$%#@+OO$o+#%$##&#&oO@@#+&#%@@$&#",
"$%#+++%&@@&$%###%@@+==#$+&$%+$#@@$$X+X+*$##Oo**=%*#$%@$##O$O#%$%",
"%#O$$%#$+#=@@@#%%#+%#$@##O.@$*%$+#*#&#%**$%@$=+#O+O%#$$%&#%O@$@@",
"%+$*#Oo&$-$@*$+#$$@$+o@###@+#@O#OO+#%#%@$o@@###%#+%%O@oOO+###*&O",
"+o*;&o#*+#oO#%@$=$$@%+$#%@#@#+$$@$+$#+#X#+#$#+@%@&&@##+%o#@$+$*O",
"##o@+O==##$&O@++%@#Oo#@%%+$$##&$@%$%X#-$$#@%@#+@#-@O%=%*O@#%#$=O",
"$#.#@%$@#+@%@$+@#%#$O$$**&$$$&###$#%O$;*%$#@+%$%#&$@*-@%O#@@$&&+",
"*#X&&@#o$%$@#&+$%%$=%#+$###%#$O$$&$$@@&@OoO@$$&#$##.o$+@o%#$@#$$",
"&@O$&@%@+@@$$O##$$OO@%$%%X#%$#@&++oOO+$#%#$@@@%$-$%$@##%@$@+oO@%",
"&=@@+#$&##@&$O$+@$$+$#$@*%O+++%#+&#@$#%++@#O@$*#%XO#&+@#@%$$+#@#",
"$%#%X#+O%&=&&#%X##+@$$*O#$+$%@@+#*%#$*$#+@%$#@%$$#%$&O#$$#X@%#+%",
"#%$=#++@*#$o#@&O@$@&@O$%$&@$+@%@O%$+#%o+%*@$o@$@+@$$%o++@*#X$*$+",
"$$@$o$%#&&%O$$&o#%$&#@+$+&#$X#&+$%+@#+$o$-#%@$$O+#$$&#%&@&%#@+$$",
"@$+@##$$@@%$++*$%o#*#$@$$@.#&&X@*@#%=&%O%-%+#######+%*%&@$#$$#$O",
"#*#O#@%&@+%#O#%o$O#$##$#$*+O@$X&=&*#%$&O+#X+$@+*#&@$oOXo$#@$$=$o",
"+$$O$#$&+#$&&&@O$@&+@@+##$&$o$O@$+$@oO=*$@@&###$o$%%O+*#%++$#&&$",
"##%O+##%%%+@%@+%*%++&#@%$X#=%*#+#O%$o$#+@@%&$o#@$#$%o$=&&%@%%#+$",
"@&&%$##+@$++%+$$%#@$%+&**###$*+O$%$##@X++%%#&O%*%$$@%$%#@#X+O.+O",
"O@++#$O$%@#+@+#o@@%*%#&@$O$$####$%o+=%@*%%%%=$$*#@++%#&%#$X@&$&@",
"*#+$@$%*#O$@$o#@$#$+O+###@%=%O@+@*%+@=*&$#O@@oo#+X%=#O$%+&@*=-%@",
"*++$#@*%%+%+++*&#$=%+#@++@+@##$@%%#$@+OOX@@#+$@%*++@++$%O%@$OO$*",
"$@&#$#+O*$=$#&$%@o##O&$Oo@%#@%&+@+#%++%%@$@$o$%%$$#$##@$+#+##O$%",
"@&*%*##@#@+O++@&@$@+@+%$#&=&#$%$$##%%O+;*%$%X#&@@$$$%O#$@&@+@&&$",
"##+@%%#%&$#O%X@-%$+%&@#$+#%@O$#+#@$$%%#$O##%o#@@=##@%X+&=$oO%=#$",
".oO#**+#$+$@#O#&%%#*@@@&##@##&%####OOO@+@&%%@$O#&+#$$$@*%+%O@%@#",
"#$#O@#+OO%+##$@#+@%=+X#&#%+@O+$#%$%O$O$###+%++O$@##@@#+@&#$$#@$#",
"=&$#%@%&@#@&*=&$%+#*%o##++#@+#&##+*%*$$%$$#&@#$$#$@#&$+##+@%$#$@"
};
