/* XPM */
static char *_399ee307cfb414ce2fa8de6a2e20f3aoICH14COE3vtpec2[] = {
/* columns rows colors chars-per-pixel */
"64 64 127 2 ",
"   c #252323",
".  c #282626",
"X  c #2D2C2C",
"o  c #302E2E",
"O  c #2D2E31",
"+  c #2F3032",
"@  c #333334",
"#  c #383636",
"$  c #3A3837",
"%  c #363639",
"&  c #393739",
"*  c #37383B",
"=  c #3B3A3B",
"-  c #403E3E",
";  c #41403F",
":  c #3E3E41",
">  c #403F40",
",  c #3F4042",
"<  c #434244",
"1  c #494747",
"2  c #474748",
"3  c #484749",
"4  c #4C4B4D",
"5  c #504D4D",
"6  c #4E4F51",
"7  c #504F50",
"8  c #4F5052",
"9  c #535354",
"0  c #585656",
"q  c #5A5857",
"w  c #565658",
"e  c #585759",
"r  c #575859",
"t  c #5B5A5B",
"y  c #5F5F61",
"u  c #605F61",
"i  c #646464",
"p  c #686767",
"a  c #6A6867",
"s  c #676768",
"d  c #686769",
"f  c #6D6D6D",
"g  c #716E6E",
"h  c #73716F",
"j  c #716F70",
"k  c #747474",
"l  c #797776",
"z  c #7A7877",
"x  c gray47",
"c  c #797979",
"v  c #7C7C7C",
"b  c #7F7C7C",
"n  c gray50",
"m  c #FF0300",
"M  c #DF3B3A",
"N  c #EA3F3E",
"B  c #9C5A59",
"V  c #817E7E",
"C  c #D25755",
"Z  c #E15A58",
"A  c #82807F",
"S  c #C2807C",
"D  c #4B6C92",
"F  c #3A70DC",
"G  c #0051FF",
"H  c #3C74E2",
"J  c #547ECE",
"K  c #827F80",
"L  c #7F8080",
"P  c #7292B4",
"I  c #5483D6",
"U  c #838383",
"Y  c #858584",
"T  c #868686",
"R  c gray53",
"E  c #898685",
"W  c #8B8887",
"Q  c #8B8B8B",
"!  c gray55",
"~  c #918E8D",
"^  c #94908F",
"/  c #909090",
"(  c #959291",
")  c #959595",
"_  c #999595",
"`  c #999695",
"'  c #9C9897",
"]  c #999898",
"[  c #9E9A99",
"{  c #A19D9C",
"}  c #A29E9D",
"|  c #B39190",
" . c #A4A09F",
".. c #8F9DB1",
"X. c #A6A3A2",
"o. c #A9A6A5",
"O. c #ADA9A7",
"+. c #ADAAAA",
"@. c #B1AFAD",
"#. c #B3B0AF",
"$. c #B6B3B2",
"%. c #BAB7B6",
"&. c #BDB9B7",
"*. c #BDBAB9",
"=. c #CD9C9A",
"-. c #D5AEAB",
";. c #C9B3B2",
":. c #C1BEBC",
">. c #CEBBBA",
",. c #97AAC1",
"<. c #A9B8CC",
"1. c #B7BBC5",
"2. c #BCC0C9",
"3. c #C5C1C0",
"4. c #CDC9C7",
"5. c #CECACB",
"6. c #D1CDCC",
"7. c #D4D0CD",
"8. c #CFD3DD",
"9. c #D8D3D1",
"0. c #DCD9D7",
"q. c #DFDBDA",
"w. c #E3CCCA",
"e. c #E1DEDB",
"r. c #E5E1DF",
"t. c #D2D6E0",
"y. c #E7E3E0",
/* pixels */
"n c n T c U f n c T n T n T Q c n U f c c c n / T T c n U c n c k n ! U U k c U U Q c c f c c ! n n U n ! n ! U n T c U U k n c ",
"! U n T T ! c U k c f c c c U c ! c c T U c U n c U c n U c Q U f n T k n k Q U L T T T c U U c d n T n k T ! n c U n U U c n c ",
"n c n c k c k c c T n U U U U T U f U ! c Q Q c U ! c c n T / ) Q T U c U c U k U c d f c ) U U c c Q T f n Q T k c c U n U U c ",
"n f n / U c U T n c c T Q / Q Q Q c c n c T k f n ! Q U c T c n c n c U Q ! n c ! k c c U / c c k T ! c T T c n c U n T c U ! Q ",
"T k k n n U / c U U T T c c k c n c f k T c c T n c c n T U d c n n n n U n T Q Q n ] Q ! Q U c n c c U / n c f f U n U c T n c ",
"c U ! k n T c p c c k c c c T ! c U U U U k c c U n c n n / c c c n U U T L U Q c T ! f c n Q n U c U / n c Q T c n U n T U k n ",
"T T ) c T c f c c Q n c U U T c c / ! Q U n Q c c c c i 9 9 6 4 9 w 9 p c U c c f c U n T T T c U c n T k n ! / / T U U n c k T ",
"n n ! n T c n Q n n Q / n T c k T n n n n T / c n ! r @ O O O O O X O # c / n T c n n c k k c f U c T / n c c k c c c U c U T n ",
"d n Q T ! U T U Q f c ! U T T f c ! n Q c n / U T ] < + @ @ @ @ @ @ @ @ d } c k k U c c c n ! c U c k U c n U U U c T Q c c c n ",
"k c n c T c c c ! T k n n ! n c T T f c f U T d d 9 % % % % # # # & % # * 9 i s n T c U n Q ! T ! c c T n T c k k c n T ! U k U ",
"c c T ! c c n n n c n T c U k ! / c n T c k t = * % = = = = = = = = = = * * 9 t s n T c T n n c T c f c T Q n k n U n k n ] Q / ",
"U U U n d T ! / Q T Q c c U c Q c f U n k t : : < > < < < < < < < < < < < > < 9 9 t n U U U T c c U T U n n T c U T c k n ! n n ",
"T T T U c U n n c c n c c ! Q U U U n T k < < 2 2 < 2 2 2 2 < 2 < < 2 2 2 < 3 3 4 2 k n n c n T c c c n / n c n c Q T n Q n k c ",
"n U c T U T n k U Q c n c c U c c n T n t : 2 4 4 4 4 4 4 4 4 4 4 4 4 4 4 4 4 4 2 : 9 Q ! T c U c U k T ! c n U U T n T U c U n ",
"/ T n c n U c n ! U c ! c U T T c Q Q f < : 4 9 9 9 9 9 9 9 9 9 9 9 9 9 9 9 9 9 4 : < k c U c U Q Q c Q / U n n c n c U c T Q f ",
"T k Q c c c n / T Q c U f c c f k T Q 9 * : 8 t t i K n V g n U l c j t l i t t 6 : * t c T n k T Q c f k c c T c c c U c Q U d ",
"Q c U n n c n U c c f k k U U n c U / 6 % : 9 y i p ' } o.} [ ( } O.} U } f i y 9 : * 4 n U c c / ) Q T f n U n n T n U c U T c ",
"n k c f k n n c U T n n n c n ! k c / 9 % , 9 p d d ` }  .X.[ V  .O.O.O.o.c d p 9 : * 9 Q c U k c n c / T T n Q c c U U U U T c ",
"n U / c n ! Q c n U T n c n T Q f n T 3 % : w f f k ` [ } ~ / V ( ` ( ` } c k d 9 : * 4 U c ! n c U T c U Q n c k T U c T n c n ",
"n U ! Q / U Q c T k c U Q T Q c c c n 4 % : w k k k c k k f f f f f f k c k c f 9 : * 4 T n U c T c f c Q / U k T T c U Q U T Q ",
"k n n c Q n U n U n T n U c n c Q n n 3 % * 9 k k f s i t 9 9 4 7 9 9 t u d k j 9 = * 9 ! Q n n U n n U c n n U / n c T Q T ! n ",
"k n U c c T c T T n c k T T Q / T c U 3 @ * 4 i t 4 - # @ X X X X X X X @ = 4 t 3 * % 4 U c c U c c n c c f T ! n n U c n f U U ",
"k c n T c d c n n Q c U n n c U c c U p < 6 f 7 @ o X X X X X X X X X X X X X < p 4 < t n T U U U n T U ! c f c c U U Q c c Q U ",
"T U k U c n T n d k n U c k c U T T n T c ! +.i o o @ @ @ @ @ @ @ @ @ @ @ @ o f X.~ c n U c c n ! Q / T Q n n U n n c n k c ! T ",
"c Q n U c T n T c c c n T c n n U Q ! Q U ( } Q - # # # # # # # # # # # # # - A E ] U T c Q c U U n U c c c c c Q n c f n c U c ",
"c c Q / c Q c U c Q T ! n c T U n U c c n ` U W p * * * * * = = * * * * * * q c k [ c T c c f n n Q Q n c U Q c n k Q n Q Q Q U ",
"T c n Q k U ! Q n U c c U T n k f c U T V ) n p Q 1 5 a U ( ` ` ~ V g t 4 ; k t f [ c f c Q c U c c c U c Q ! c c n c U c U c n ",
"T ! U T U f c n k f c n Q U c n c A c c n ` V 1 ~ [ :.0.r.r.r.r.r.r.q.7.:.X.! = g [ n k T T c T T c U T c n n n n T U T U Q T T ",
"k c n U n c c / c k Q c U Q Q Q T T ! n U ( V = W e.w.w.w.q.q.q.q.q.8.8.t.y.( @ k [ T U n c U U c n T ! T U c T U T T c k c k c ",
"U c c n U U U ! U c U c c n T c c c T c c ( U = ' -.Z N Z =.5.6.5.,.I H I <.` @ c [ c f T c U c c k n T n U k c k c c c k n Q k ",
"Q c c T T c U n n c n U T c n n d c U n U ( U =  .S m m m B ) ) ) D G G G P X.# l [ Q c U c T n T T / c k c Q T n U c n c T / n ",
"Q n k c Q k n U T c n c U T n Q c Q ! c f ( T =  .-.C M C | +.+.+...J F J <.O.# c ] T U T c Q ) Q T U f T c U / T c c c c T ! c ",
"T U c c Q k c Q U f U U T U Q U Q U T T c ) T = } 0.>.;.;.3.3.3.3.3.1.1.2.9.@.= n ] l U Q n f c c k c ! ! f n ! c c T Q c c T c ",
"c U c U ! n T ) T f T U U d c c c c c n c ` E = [ 9.3.*.%.%.%.%.%.%.%.*.:.6.@.= n ] c l U ! T c c n c T k d T c U Q U ! k c Q U ",
"f T n T U n k c / c U c U d U / n n c n T ( Q * ` 6.*.$.@.@.@.@.@.@.@.#.%.4.@.- V ] c T k k T T c n n T c U U p c Q U Q c k c n ",
"T U c U U Q n U Q c U c T k c Q c p c T c ( Q * ~ 4.$.+.o.o.o.o.o.o.o.o.@.3.+.< U ) c ) T U n U k U n U / ) / U U ) T Q c n n n ",
"! c U Q n U c k U n Q T n T ! U T d U / n / ! # U 3.+. .} } } } } } } } X.&.X.< T / U U c n k k k c c Q T n c c c U k c c c c ! ",
"c n Q n c n T n c n U c k U c d T c Q k n ) ~ # c &.X.` ` ) ) ) ) ) ) ` [ @.[ < E / n T U n U T U Q k c n c n c ! n T c n n Q n ",
"U T n c c c T Q c c Q U U U U n T n n c / [ ~ # f @.' ~ ! ! ! ! ! ! ! ! ~  .( < Q ( n c f ! ! / T ! n U U c T c U k T k n T T T ",
"T n k U U T n T c c / c c c U Q T n c T n / ( # i X.~ E E T T T T T T T E ` E - Q / T c n ! c n k c k T U U U Q Q n T k c U c c ",
"Q c U ! c k f Q U ) U c ! U c n U U c U c T ( # 0 [ Q U A V V V V V V V A ^ V - ! Q c c n U n T n c T Q k c f k c c n U n ! T k ",
"c f ! ] Q k n ! c n f k n T n U / T U c Q T ) # 4 ` W V n n n n z v v n n ^ l - ~ Q n T n c n T c Q Q c n n c T f n c U c U ! c ",
"n n f n c k / / n n U ! c c c c T n n c f Q ) & 1 ( T z l l l c c c c n V ` h - / Q n U c c c c n ) c k T ) T Q c n n T n T / k ",
"U n p n c T U c n c c T c U k n n T n U k n T * ; ( T h g g h k k l l n E } a < T d c n c T T Q n ! U c ! ) n T k U c c U Q ! c ",
"! n f Q T n n f U Q U c n Q c U T T U / Q t d = ; ( Q A V A T E Y A n c n V f < f 2 d c U U T n T n n p f n c c f T n U c n T U ",
"Q c k U Q c T c c c c U T k n n T T k k c 6 w = 0 a * - < 4 9 0 0 7 4 ; $ # k t u = d n n c Q T ) U T U n n n T n n c c d k c T ",
"Q / n c c n U Q n U c ! T k T c c U U c f * 4 < g <                   . . . t n e % < d c n ! n T d c n Q c c U c U n U c n c n ",
"n Q n T d n c c T T ! T ! U T f n n c c t @ 3 f g o X X X X X X X X X X X X = ^ t @ # p n n T U U n T U Q k n T T n d c T U c T ",
"n T U ) n c c n ! c U f n n Q k n U c Q 9 @ 6 +.t o @ @ @ @ @ @ @ @ @ @ @ @ @ / i @ # i f c U c c c U U T k c c n ! n f U ! U c ",
"U T c n k U T U Q Q T k U U Q f c T U Q 9 @ 9 X.< # = = = = $ $ = = = = $ # = [ i @ % p c T T k c n T U ! n T Q c Q Q n c c U U ",
"c n c c U n U U n c T U c c ! U U f n ! 9 @ 4 u & # = = = - - - - - = = = $ * t 2 % % t n n n U U L L c T ! T Q c T n T T n U k ",
"n ! n c c n T Q c c T U c n T k U c n U 9 @ < * O + O @ @ @ @ # @ @ @ @ @ @ @ + = : @ 9 U c c ! n Q c U f k d f U n c U U / U k ",
"c U U k T n U Q c n T ! Q Q c k U c T c 9 @ < % O + * = # * % # % # * * < # @ @ 3 < @ d n n n U k U T Q f c Q n Q c c U n ! Q U ",
"n n T k c n U T T T c c T n c Q ! T c c f * < % O # V ~ V ~ V i f l Q V Q < + @ 9 < < l U f n c U n U T k U / Q Q T c T T n c T ",
"c Q ! T T n n c c U c c T c U T T n c U T 9 < % O % U a c ' E n V V ^ U Q < + % 9 < f n Q k T Q T T T c U U T U c c d c k d c c ",
"k c c c n U c U T c n c c c n f c c T ! T d 4 < O @ < @ % < = 3 < * < < 2 % O * 6 4 U Q / T U ! U c c c T U Q T n U p n ! U ! c ",
"! U c U c U T ! c c U c U f n c U U U c k k t 6 : + O X X X X X X X X X O O @ 2 6 p c n c f f n c f U / n k U T c Q c ! / ) T c ",
"! c c T n c ! Q Q c T c c c ! Q n U / T c n k w 8 4 : + O X X O X X O O + % 3 9 w c c n c U c Q ! c c n c c U T k T n U f c U ! ",
"n c Q n U c c k Q U / T U ! U T c f n U k Q T f t 9 4 * O X X X O X O + = 9 s c c U n n k U T U U U n U U n c U c n c U n k U T ",
"n Q ! U ! U n n n c c k c c c ! c U c c n c T T n U L d w 6 4 4 4 4 8 t f d k ] ! Q U T d n Q n c U T U T k U U c Q c c n ! Q U ",
"n U c c U Q n T Q U U k T f c ) T U c T Q c n U c n Q c c U n c n n U U T T n T k L n Q k n c n ! n U c Q f c Q / U k k T / c U ",
"p f k n ! ! c n U c U c n k n Q T T n ! c c n Q n n c c U Q T n n n n k k k n c c Q T T c U f U Q c n U U U n ! T c T k c T c n ",
"n U n k c n c k c T c n n U c n c c T / c f U ! n T c n c c U n T U T k U k n n n U c T k c k U c n n n c U c c Q n U U n n U n ",
"/ ! U U U n T Q c n c Q ! / Q U T c c Q T k n U c c c c c n Q n n c ! T ! U T T U U U Q c n U U n U c c ! U c U n c c T U n n n "
};
