/* XPM */
static char *_cad2f84133d4fd38aab490aefee1472mppdRCUPelUNyC0B[] = {
/* columns rows colors chars-per-pixel */
"64 64 125 2 ",
"   c #252323",
".  c #282626",
"X  c #2D2C2C",
"o  c #302E2E",
"O  c #2D2E31",
"+  c #2F3032",
"@  c #333334",
"#  c #383636",
"$  c #3A3837",
"%  c #363639",
"&  c #393739",
"*  c #37383B",
"=  c #3B3A3B",
"-  c #403E3E",
";  c #41403F",
":  c #3E3E41",
">  c #403F40",
",  c #3F4042",
"<  c #434244",
"1  c #494747",
"2  c #474748",
"3  c #484749",
"4  c #47484B",
"5  c #4C4B4D",
"6  c #4E4F51",
"7  c #504F50",
"8  c #4F5051",
"9  c #535354",
"0  c #595656",
"q  c #57585A",
"w  c #595858",
"e  c #5B5A5B",
"r  c #5F5F60",
"t  c #605F61",
"y  c #646364",
"u  c #6A6867",
"i  c #676769",
"p  c #686769",
"a  c #676868",
"s  c #6A6A6A",
"d  c #6D6D6D",
"f  c #716E6E",
"g  c #73716F",
"h  c #6F6E70",
"j  c #716F70",
"k  c #717171",
"l  c gray45",
"z  c #747474",
"x  c #757474",
"c  c #777777",
"v  c #797776",
"b  c #7A7877",
"n  c #797979",
"m  c #7B7878",
"M  c #7B7B7B",
"N  c #7C7C7C",
"B  c gray50",
"V  c #FF0300",
"C  c #DF3B3A",
"Z  c #EA3F3E",
"A  c #9C5A59",
"S  c #817E7E",
"D  c #D25755",
"F  c #E15A58",
"G  c #82807F",
"H  c #C2807C",
"J  c #4B6C92",
"K  c #3A70DC",
"L  c #0051FF",
"P  c #3C74E2",
"I  c #547ECE",
"U  c #827F80",
"Y  c #7292B4",
"T  c #5483D6",
"R  c #838383",
"E  c #868686",
"W  c #898685",
"Q  c #8B8887",
"!  c gray54",
"~  c gray55",
"^  c #8D8D8D",
"/  c #918E8E",
"(  c #93908F",
")  c #919191",
"_  c #929292",
"`  c #959595",
"'  c #999695",
"]  c #9C9897",
"[  c #9C9A99",
"{  c #A19E9C",
"}  c #B39190",
"|  c #A4A09F",
" . c #8F9DB1",
".. c #A6A3A2",
"X. c #A9A6A5",
"o. c #ADA9A7",
"O. c #ADAAAA",
"+. c #B1AFAD",
"@. c #B3B0AF",
"#. c #B6B3B2",
"$. c #BAB7B6",
"%. c #BDB9B7",
"&. c #CD9C9A",
"*. c #D5AEAB",
"=. c #C9B3B2",
"-. c #C1BEBC",
";. c #CEBBBA",
":. c #97AAC1",
">. c #A9B8CC",
",. c #B7BBC5",
"<. c #BCC0C9",
"1. c #C5C1C0",
"2. c #CDC9C7",
"3. c #CECACB",
"4. c #D1CDCC",
"5. c #D4D0CD",
"6. c #CFD3DD",
"7. c #D8D3D1",
"8. c #DCD9D7",
"9. c #DFDBDA",
"0. c #E3CCCA",
"q. c #E1DEDB",
"w. c #E5E1DF",
"e. c #D2D6E0",
"r. c #E7E3E0",
/* pixels */
"B n B E n R d B n E B E B E ! c B R d n n c B ) E E n B R n B n k B ~ R R k n R R ! c n d n c ~ B B R B ~ B ~ R B E c R R k B B ",
"~ R B E E ~ c R k c d n n n R n ~ n n E R n R B c R c B R B ! R d B E k B k ! R R E E E n R R n s B E B k E ~ B n R Y R R c B c ",
"B n B c k n k n c E B R R R R E R d R ~ n ! ! c R ~ n c n E ) ` ! E R n R n R k R n s d c ` R R c n ! E d B ! E k n n R B R G n ",
"B d B ) R c R E B n c E ! ) ! ! ! n c B B E k d B ~ ! R n E n B n B n R ! ~ B n ~ k B n R ` c n k E ~ n E E n B c R B E n R ~ W ",
"E k k B B R ) n E R E E c n k n B c d k E n c E B n c B R B s c n S B B R B E ! ! B ] ! ~ ! R n B n n R ) B c d d R B R n E B c ",
"n R ~ k B E B s n B k c c c E ~ n R R R R k n n n i q 8 5 9 4 4 5 0 i k Y R R ! c E ~ d n B ! B R n R ) B c ! E n B R B E R k B ",
"E E ` n E c d n B ! B n R R E n n ) ~ ! R n n y 9 = O O X X O X X O % 4 q s k n d n R B E E E c R n B E k B ~ ) ) E R R B B k E ",
"B B ~ n E c B ~ R B ! ) B E n k E B B B n i q 4 % + O O X X O X X X O : 6 9 e B n B B n k k c d R n E ) B n n k c n n R n R E B ",
"s B ! E ~ R E R ! d c ~ R E E d n ~ B ! r 5 2 @ O O X X X X X X X X O O @ , 6 0 d R c n c B ~ n R c k R n R R R R n E ! n n B B ",
"k n B n E n n c ~ E k B B ~ B n E E d k 2 6 = + % 4 < < = < 3 = < % @ < @ o < 5 s ! n R B ! ~ E ~ n n E B ! c k k n B E ~ R k R ",
"n n E ~ n n B B B n B E n R k ~ ) c B d , 9 % + < Q R ( S S B W ] n s R % O % < q B E n E B B n E n d c E ! B k B R B k B ] ! ) ",
"R R R B s E ~ ) ! E ! n c R n ! n d k < < 9 @ + < Q S Q b d y S / S / U @ O % < = w R R R R E n n R E R R B E n E E n k B ~ B B ",
"E E E R n R B B c n B n n ~ ! R R R y @ < 4 @ @ @ , = = @ % @ % = @ : = + O % < @ 9 R B B n B E n n n B ) B c B n ! E B ! B k c ",
"B R n E R E B k R ! n B c n R n c B y @ : = @ @ @ + @ @ @ @ @ @ @ @ @ o + O = < @ 5 n ! ~ E n R n R k E ~ c B R R E B E E n R B ",
") E B n B R c B ~ R c ~ n R E E c ! i @ % 2 r = = $ $ $ - - - - - = $ $ @ % t 5 @ 9 B B c R n R ! ! n ! ) R B B n B n R c E ! d ",
"E k ! n n c B ) E ! n R d n c d k E i @ @ y [ $ $ $ $ $ $ $ $ $ $ $ $ $ # < ..9 @ 0 ! c n E B k E ! c d k c n E n c c R n ! R s ",
"! n R B B c B R c B d k k R R B c R k @ @ y ) @ @ @ @ @ @ @ @ @ @ @ @ @ o w O.6 @ 9 R k R R c c ) ` ! E d B R B B E B R n R E c ",
"B k n d c B B n R E B B B c B ~ c n c @ @ e ( $ X X X X X X X X X X X X o f d 4 @ 0 E E ~ c R k n B n ) ! E B ! c n R R R R E c ",
"B R ) c B ~ ! n B R E B n B E ! d B n < % w B e   . .                   < f < 5 & i n c R c ~ B c R E c R ! B n k E R n E B n B ",
"B R ~ ! ) R ! n E k n R ! E ! n n n R s = t w c @ $ < 5 9 0 0 7 5 1 - = s 0 $ q 2 c k n ! B R n E n d c ! ) R k E E c R ! R E ! ",
"k B B n ! B R B R B E B R n B n ! B R c 4 d < d S M b B G W W W G S G Q ) ; $ p q R E ) ) ! B B R B B R n B B R ) B c E ! E ~ B ",
"k B R c n E n E E B n k E E ! ) E c R E s E < u { W M b v c c g f f g W ) < = E n R ! R E n n R n c B n c d E ~ B B R n B d R R ",
"c n B E c s n B B ! c R B B c R n n R E R ) - g ' S n b b b b b b v b W ) 1 $ ' E c R k B E R R R B E R ~ k d n n R R ~ n n ! R ",
"! R k R n B E B s k B R n k B E E E B E / / - b ( B n n n n B B B B S Q ' 5 # ` ) n E B R n c B ~ ~ ) E ! B n R B B B B k n ~ E ",
"n ! B R c E B E n n B B E c B R R ! ~ ! ` ~ - S ( G S S S S S S S G R Q [ 0 # ) R B E E c ! n R R B R c c c n n ! B n d B n R n ",
"c c ! ) n ! n R n ! E ~ B n E R B R n c ( Q - W ' W E E E E E E E W W / ..y @ ) ~ ) n E c n d B R ! ! B c R ! n B k ! B ! ! ! R ",
"E n B ! k R ~ ! B R c n R E B k d n R E ) Q < ) | / ~ ~ ~ ~ ~ ~ ~ ~ / ] +.d # / ) ! n d n ! n R c c n R n ! ~ n n B n R n R c B ",
"E ~ R E R d c B k d c B ! R n B n R c c ` W < [ O.] ' ` ` ' ` ` ` ' ' ..%.b # / ) E R k E E n E E c R E n B B B B E R E R ! E E ",
"d c B R B c n ) c k ! n R ! ! ! E E ~ n ' W < X.%...{ { { { { { { { | O.1.R # ~ ' c ~ R B c R R c B E ~ E R n E R E E n k n k c ",
"B c n B R R R ~ R n R c c B E n n n E n ` R < O.1.+.X.X.X.X.X.X.X.X.O.#.2./ = Q ' n n d E B R c c k B E B R k n k c n n k B ! k ",
"! n n E E c R B B c B R E c B B s c R B ] S - +.2.$.@.+.+.+.+.+.+.+.#.%.4.' = ! ' ~ ~ c R n E B E E ) c k n ! E B R n B c E ) B ",
"! B k n ! c R R E c B n R E B ! c ! ~ c ` B = +.4.-.%.$.$.$.$.$.$.$.%.1.7.[ $ W ) c ! R E n ! ` ! E R d E c R ) E n n c c E ~ n ",
"E R c B ! k c ! R d R R E R ! E ! R E R ] B $ +.7.<.,.,.1.1.1.1.1.=.=.;.8.{ $ W ( R c R ! B d c c c n ~ ~ d B ~ n n E ! n c E c ",
"c R n R ~ B E ` E d E R R s c c n n n B ] n = o.>.I K I  .O.O.O.} D C D *.| = W ) E n c R ~ E n n B n ! k s E n R ! R ~ k n ~ R ",
"d E B ! R B k n ) n R n R s R ) B B n B [ b @ ..Y L L L J ` ` ` A V V V H | = R ' ! n E k k E E c B B E n R R i n ! R ! c k c B ",
"E R n R R ! B R ! c R n E k n ! n i c R [ c @ ' >.T P T :.3.4.3.&.F Z F *.] $ R ) c n ` E R B R k R B R ) ` ) R R ` E ! n B B B ",
"~ c R ! B R n c R B ! E B E ~ R E s R ! [ c @ ) r.e.6.6.9.9.9.9.9.0.0.0.q.Q $ S ) k E R c B k k k n n ! E B n n c R k n c n c ~ ",
"c B ! B n B E B n B R c k R n s E n ! c [ f = ~ ..-.5.9.w.w.w.w.w.w.8.-.[ / < S ) c B E R B R E R ! k c B n B c ~ B E n B B ! B ",
"R E B n n n E ! n n ! R R R R B E B B n [ d e c < 5 e f S / ' ' ) R s 7 1 Q i B ` B B c k ~ ~ ` E ~ B R R n E n R k E k B E E E ",
"E B k R R E B E c n ) n n n R ! E B c R [ k b w = = = = $ = $ $ = = = = = i Q R ' B E n B ) c B k c k E R R R ! ! B E k n R n n ",
"! c R ~ n k d ! R ` R n ~ R c B R R n B ] W G - @ # @ # @ @ @ @ @ @ @ @ @ < Q { ) c n n B R B E B c E ! k n d c c c B R B ~ E k ",
"c d ~ ] ! k B ~ n B d k B E B R ) E R k / ..d @ o @ o o @ @ @ @ @ @ @ @ @ o i O.~ k B E B n B E n ! ! n B B n E d B n R c R ~ k ",
"B B d B c k ) ) B B R ~ c n c c E B y < 5 i < X X X X X X X X X X X X X o @ 7 d 6 < y R n n c n B ` n k E ` E ! c B B E B E ) k ",
"R B i B n E R n B c n E n R k B B E 5 % * 4 w 5 = @ X X X X X X X @ @ > 5 e y 5 * @ < n n E E ! B ~ R n ~ ` B E k R n n R ~ ~ c ",
"~ B d ! E B B d R ! R n B ! c R E R 5 & = 9 j k s r e 0 9 9 7 9 0 w y p d k k 9 = % < c R R E B E B B i d B c n d E B R B B E R ",
"! n k R ~ n E c c n n R E k B R E R 4 = : 0 d c k c k h d d d f d k c c k c k q : % 5 n B n ! R ` R E E B B B E B B n n d k n E ",
"! ) B n c B R ! B R B ~ E k E c n B 6 = : 0 s k c { ' ) ' ) S ) / { [ ' k d d q : % 5 k n B ~ B E s c B ! n n R n E R R n B n B ",
"B ! B E s B n c E E ) ! ~ R E d B B 6 = : 9 i s c X.o.o.o.| S [ ..| { ' s s i 0 , % 9 B B B E R R B E R ! k B E E B s n ! R c E ",
"B E R ` B c c B ~ n R d R B ! k B B 9 * : 9 r y d { R { o.{ ) [ { X.{ ] i y t 9 , % 5 B d n R n n n R R E k c c B ~ B d R ~ R n ",
"R E n B k R E R ! ! E k R R ! d B E y = : 6 w e y b e j c b R B f S B U y e w 8 : = e E n E E k c B E R ~ B E E n ! ! B n c R E ",
"n B c n R B R R B c E R c c ~ R E k k 2 : 5 9 0 0 9 9 9 9 9 9 9 9 9 9 9 9 0 9 5 : 4 B c B B B R R R R n E ~ E ! n E B E E B R k ",
"B ~ B c n B E ! n c E R c B E k E c B e : 2 5 5 5 5 5 5 5 5 5 5 5 5 5 5 5 5 5 2 : q s c R n c ~ B ! n R d k s d R B n R R ) R k ",
"n R E k E R R ! n B E ~ ! ! n k R n E a 2 5 4 3 < 2 2 2 < < 2 < 2 2 2 2 < 2 2 < < d n ! B B R R k R E ! d n ! B ! n c R B ~ ! R ",
"B R E k c B R E E ! c n E B c ! ~ E n c a 9 9 < < < < < < < < < < < < < > < : : e n E E R d B n R B R E k R ) ! ! E n ! E B n E ",
"n ! ! E E B B c n E c c E n R E E B n R R e w 9 = = = = = = = = = = = = % = = 0 c R ! B ! k E ! E E E n R R E R n n s c k s c c ",
"k n c n B R c R E n B c n c B d c n E ~ E B d y 0 = @ & % @ @ @ % % % % 9 s i ! E E ! ! ) E R ~ R n c c E R ! E B R i B ~ R ~ n ",
"~ R c R c R E ~ n c R n R d B n R R R c k c n G [ p @ @ @ @ @ @ @ @ + < ] ] ~ ! R B c B n d d B n d E ) B k R E c ! n ~ ~ ) E n ",
"~ n c E R n ~ ! ! n E c c n ~ ! B R ) E c B n n R n % O O O O O O O @ e R c c j s n n B c R n ! ~ c c B c c R E c E B R d k R ~ ",
"B n ! B R B c k ! R ) E R ~ R E n d B R k ! E k d n d 9 8 9 9 5 6 6 y R n n E ! n R B B k R E R R R R R R B n R n B c R B k R E ",
"B ! ~ R ~ R B B B n c k c c n ~ n R n c B n E E B ! ) ! B R E B R B B ! E k c ] ~ ! R E s B ! B n R E R E k R E n ! n c B ! ! R ",
"B R c n R ! B E ! R R k E d n ` E R c E ! n B R n B ! n c E B c B B E R E E B E k R B ! k B n B ~ B R n ! d c ! ) R k k E ) B R ",
"i d k B ~ ~ c B R n R n B k B ! E E B ~ n n B ! B B n n R ! E B B B B k k k B c n ! E ! n R k R ! n B R R R B ~ E c E k n E B B ",
"B R B k n B n k c E c B B R n B c n E ) c d R ~ B E c B c c R B E R E k R k B B B R c E c c k R n B B B n R c n ! R R R B B R R ",
") ~ R R R B E ! n B n ! ~ ) ! R E n n ! E k B R c n n n n B ! B B c ~ R ~ R E ! R R R ! n B R R B R n n ~ R c R B c B E R B B B "
};
