/* XPM */
static char *_55332edf5914f28a92ccfc7b1d0584aKh0V9qRtZ7VD3Nav[] = {
/* columns rows colors chars-per-pixel */
"64 64 130 2 ",
"   c #252323",
".  c #282626",
"X  c #2D2C2C",
"o  c #302E2E",
"O  c #2D2E31",
"+  c #2F3032",
"@  c #333334",
"#  c #383636",
"$  c #3A3837",
"%  c #363639",
"&  c #393739",
"*  c #37383B",
"=  c #3B3A3B",
"-  c #403E3E",
";  c #41403F",
":  c #3E3E41",
">  c #403F40",
",  c #3F4042",
"<  c #434244",
"1  c #494747",
"2  c #474748",
"3  c #484748",
"4  c #47484A",
"5  c #4C4B4D",
"6  c #504D4D",
"7  c #4E4F51",
"8  c #504F50",
"9  c #4F5051",
"0  c #535354",
"q  c #585656",
"w  c #5A5857",
"e  c #585759",
"r  c #575859",
"t  c #5B5B5B",
"y  c #605F5F",
"u  c #5F5F60",
"i  c #605F61",
"p  c #646464",
"a  c #6A6867",
"s  c #676769",
"d  c #686769",
"f  c #676869",
"g  c #6D6D6D",
"h  c #716E6E",
"j  c #73716F",
"k  c #6E6E70",
"l  c #716F70",
"z  c #747474",
"x  c #797776",
"c  c #7A7877",
"v  c #777778",
"b  c #7C7C7C",
"n  c #FF0300",
"m  c #DF3B3A",
"M  c #EA3F3E",
"N  c #9C5A59",
"B  c #817E7E",
"V  c #D15553",
"C  c #D35856",
"Z  c #E05A57",
"A  c #E15A59",
"S  c #82807F",
"D  c #C2807C",
"F  c #4B6C92",
"G  c #7F7F80",
"H  c #3A70DC",
"J  c #0051FF",
"K  c #3C74E2",
"L  c #547ECE",
"P  c #827F80",
"I  c #7292B4",
"U  c #5483D6",
"Y  c #838383",
"T  c #898685",
"R  c #8B8887",
"E  c #8B8B8B",
"W  c #918E8D",
"Q  c #918E8E",
"!  c #93908F",
"~  c #909090",
"^  c #959392",
"/  c #949393",
"(  c #979493",
")  c #949494",
"_  c #989796",
"`  c #9B9897",
"'  c #9C9897",
"]  c #999998",
"[  c #9D9B99",
"{  c #A19E9C",
"}  c #B39190",
"|  c #A4A09F",
" . c #8F9DB1",
".. c #A6A3A2",
"X. c #A9A6A5",
"o. c #ADA9A7",
"O. c #ADAAAA",
"+. c #ADABAA",
"@. c #B1AFAD",
"#. c #B3B0AF",
"$. c #B6B3B2",
"%. c #BAB7B6",
"&. c #BDB9B7",
"*. c #BDBAB9",
"=. c #CD9C9A",
"-. c #D0AFAC",
";. c #DAACA9",
":. c #C9B3B2",
">. c #C1BEBC",
",. c #CEBBBA",
"<. c #97AAC1",
"1. c #A6B8CE",
"2. c #ABB8C9",
"3. c #B7BBC5",
"4. c #BCC0C9",
"5. c #C5C1C0",
"6. c #CDC9C7",
"7. c #CECACB",
"8. c #D1CDCC",
"9. c #D4D0CD",
"0. c #CFD3DD",
"q. c #D7D3D0",
"w. c #D8D3D1",
"e. c #DCD9D7",
"r. c #DFDBDA",
"t. c #E3CCCA",
"y. c #E1DEDB",
"u. c #E5E1DF",
"i. c #D2D6E0",
"p. c #E7E3E0",
/* pixels */
"b c b T c Y g b c T b T b T R v b Y g x c v b ~ T T c b Y c b c z I E Y Y z c Y Y R v c g c v E b b Y b E b E Y b T v Y Y z b b ",
"E Y b T T ~ v Y z v g c c c Y c E c c T Y c Y b v Y v b Y b R Y k b T z b z R Y Y T T T c Y I c f b Y b z T E b c Y Y Y Y v b v ",
"b c b v z b z c v T b Y Y I Y T Y g Y E c R R v Y E c v b R ~ ) R T Y c Y c Y j I c f g v ) Y Y v c R T g b R T z c c Y b Y Y c ",
"b g b ~ Y v Y T b c c T R ~ R R R c v b b T z g b E R Y c R c b c b c Y R E b x E z b c Y ) v c z T E c T T c b v Y b T c Y E R ",
"T z z b b Y ~ c Y Y Y T v c z c b v g z T c v T b c v b T Y f c b b b b Y b T R R b _ R E R Y c b c c Y ~ I v g g Y b Y c T b v ",
"c Y E z b T b d c b z v z v T E c Y Y Y Y z c c S c c b Y / c v b B Y Y T I Y R v T E g c b R b Y c Y ~ b v R T c b Y b T Y z I ",
"T T ) c T v g v c R b c I Y T c c ~ E R Y b R v c c c Y Y R G c Y E c S b Y v c g c Y b T T T v Y c b T z b E ~ ~ T Y Y b b z T ",
"b b E b R v b E B b R ~ b T c z T b b b b T ~ b b T v R Y v I v c c f g c E b T c b b c z z v g Y c T Q b c c z v c c Y c Y T b ",
"f b R T ~ Y T Y R g v E Y T T g c E b R v b ~ I z g g Y R v R f b R Y b T T v z z S z c v I E c Y v z Y c Y Y Y Y x T T c c b b ",
"z c b c T c c v E T z b b E b c T T g v g Y R Y R b z T ~ v T z T ) E E v Y b Y b T c S b E E T E c c T b R v z z c b T E Y z Y ",
"c b Y E c c b b b c b T c Y z E ~ v c T c v b v T T Y b ~ T Y b v Y x E T c Y ~ R Y T c T b b c T c g v T R b z b Y b z b ] R ~ ",
"Y Y Y b a T E ~ R Y R c v Y c E c g Y b j v c v T b R Y Y l v z b Y b z b z b Y z l Y Y Y Y Y v c Y T Y I b T c T T c z b E b b ",
"T T T Y c Y b b v c b c c E R Y Y Y b T Y b Y Y T c E T v Y R b B z E T ~ Y b b T b Y b b c b T c c v G ~ b v b c R T b R b z v ",
"G Y c T Y T b z Y R b I v c Y c v b T b T T Y E v z T R c b b R b c T R T Y T z v g c R E T c Y c Y z Y E v b Y Y T b T Y c Y b ",
"~ T b c b I v b E Y v E c Y T Y v R R v c v z c c v Y ~ T R f c Y R I v Y Y R Y Y v b b v Y c T R R c R ~ Y b b c b c Y v T R g ",
"T z R c c z b ~ T R c Y g c z g z T R g z G c Y b b Y c g E Y Y b R T b b c b b R b R v c T Y v T R v g z v c T c v v I c R S a ",
"R c Y b b v b Y v b g z z Y Y b v Y ) Y b E R Y R b b b Y T v T z v b E R c G Y T c Y z Y Y v v ~ ) R T g b Y b b Y b Y c Y T v ",
"b z c g v b b v Y T b b b v b E v c ) R b Y R z v z b Y T b b E c Y b b b Y v c Y b T T E v Y z c b c ~ R T b R v b Y Y Y Y T v ",
"b Y ~ v b E R c b Y T b v b T R g b T l b T Y R E c c Y b b b T z v v v T R Y Y c c v z Y v R c v Y T v Y R b c z T Y c T b b b ",
"b Y ~ E ~ Y R c T z b Y R T R c c c Y b E b f c b g c G z Y b v b b Y c T b b c f t < 2 7 5 7 4 t z g v R ~ Y z T T v Y R Y T R ",
"z b b c R b Y b Y c a 0 q 0 q 0 t p Y b Y b p c Y Y b T T ~ R T Y b b c Y c T Y g 2 @ % % % % % = < e z c b b Y ~ b v T E T E b ",
"z b Y v c T c Y k 0 = @ @ @ @ @ @ * 7 p c ! B ~ ) ~ _ ] ] _ / ` ) ( ( / / / ( / E 7 * : : : , , : : : < t f T E b b Y c b g Y Y ",
"v c b T v g z t 4 < < < 1 4 0 7 4 5 e d T ) ) / / Q Q E E R T T Y Y Y B B b Y { +.g 4 0 e e q 0 9 4 2 < < q g c c Y Y E c c R Y ",
"R Y z Y c b u 7 < % % % = i ..+.g < = = = & # # # # # # = = = = = = = = 1 p R E p 8 p z z g p i t 0 5 2 : : p Y b b b b z b E T ",
"c R b Y v g 0 , O O O O O & < t h h q ; < 1 5 q p g c Y Q ( [ { | | ` R Q E p < o @ t z z g f p t q 5 2 < = f E R b c g b c Y c ",
"v v R ~ v t 7 @ @ % # + + # # o o < a / / / ( [ ..@.&.5.6.8.q.e.-.D ;.y.[ 1 = # @ o 5 g z z f p p 0 5 1 > % 0 [ T z R b R R R Y ",
"T c b R p 4 : O < Y B = O = = @ X   = E T Y R E Q ` ..+.$.*.5.,.C n A t.>.6 = # @ X > s v _ _ ` P 0 5 2 < = % 1 t v c Y c Y v b ",
"T E Y T p * + O @ a Q = @ = = @ X   - S j c B Y T Q _ | +.$.*.:.m n M t.e.a = # @ X # p z [ { { b 0 5 2 < = % + @ p Y T Y R T T ",
"z v b Y e O O X % c B # @ = $ @ X   1 B h x b S T E _ { X.@.%.:.V n Z t.u.Y = # @ X @ t z { | X.B 0 5 2 < = % @ O 0 Y c z c z v ",
"Y c c b 7 X X X < ' Q = @ - = @ X   5 S h x b B T E ) { X.@.%.5.} N =.r.u./ = # @ X X q g Q ..{ h 0 5 2 < = % @ O 4 c c z b R z ",
"R c b T 5 X X X = T B % @ - $ @ X   0 Y j x c B T E ) { X.@.%.5.+.) 7.r.u._ = # o X X 0 g ~ [ [ c 0 5 1 < = # @ O 0 v b v T ~ b ",
"R b z c 0 O O X 3 c p # # - $ @ X   q T z c c B T E ) { X.@.%.5.+.) 8.r.u.( = # o X X 5 g B B / Y 0 5 2 < = # @ O 5 c v v T Q c ",
"Y Y v c 9 X X X 1 B g % @ - = @ X   q T z c c B T E ) { X.@.%.5.+.) 7.r.u.Q = # o X X 0 g / | { x 0 5 1 < = # @ O 5 T R c v T x ",
"v Y c Y 9 X X X = B x # @ - = @ X   0 Y x c c B T E ) { X.@.%.5. .F <.r.u.B $ # o X X 0 g ( X.X.v 0 5 1 < = % @ O q Y E z c E S ",
"g T b T 0 O O X < ! E = @ = = @ X   5 b x c c B T E ) { X.@.%.3.L J U 0.r.h = # @ X X q k / o.{ l 0 5 2 < = % @ O e I R v z v I ",
"T Y v Y t + O X < Y B = @ = = @ X . ; c c c c B T E _ { X.#.*.3.H J K 0.9.t = # @ X X t z _ o.Y t 0 5 2 < = # @ % z T R c b b b ",
"~ v Y R p = + O 3 E E , + = = @ X . $ c T B b S T Q [ ..@.%.>.4.L J U i.>.5 = # @ X @ u v { X.{ x 0 5 2 < = = d v b z c v c v E ",
"v b R b z 0 % O % < < # + = # @ X   # B { _ ~ ! _ | +.&.5.6.8.w.2.I 1.p...< = # @ X = f z v v h p q 5 1 : = q [ ~ b T c b b R b ",
"Y T b c v p 4 @ + + + @ @ = = @ = t z g a j x B T / [ X.+.@.@.@.o..._ / E z w - @ X 5 z v z f p t q 5 3 < 9 p b B z Y z b T T T ",
"T b z Y Y v q 2 = % @ @ + t [ ~ ! b t 1 < - - - - < < < < - = = = # @ @ = t c S g 1 t l g f p u t 0 5 3 0 r d T R b T z c Y v c ",
"R v Y E c z t 7 7 0 0 3 = 2 p p t e i g T ~ Q E E R T Y Y B b c c x v z l g z T ..p 3 0 q q 0 0 7 4 2 4 0 p g v v v b Y b E T z ",
"v g E ] R z b k 4 < < < : % @ @ @ % = 3 g T ~ ~ ) ~ ) ) ) ) ] ] ] [ [ [ [ [ [ ] Q 4 = = : : : , : : : 2 p c c T g G b Y v Y E z ",
"b G g b v z ~ ~ c p 1 # @ @ % # # 1 d g g b c T T v Y Y b G T Y c T Y T z b R Y v < # * = * = = = 4 0 p T ) T R v b b T b T ~ z ",
"Y b p b c T Y c b v g p t p q y p c b Y z Y Y R E R Y T Y R Y Y c Y b T z Y ] E T p 5 3 4 0 0 e u G Y c E ) b T z Y c c Y E E z ",
"E b g R T b b g Y R Y c b R v Y T T Y ~ R b v Y b b b T Y Y z T Y R Y Y c c R b z g g v I b T b T b b p g b v c g T b Y b b T Y ",
"R c z Y E c T v v c v Y T z b I T T z z c Y Y R T g Y T Y b c R c v g z v v Y b T b b b b c R T ) Y T Y b b b T b I c c g z c T ",
"R ~ b c v b Y R b Y c E T z T v c Y Y v T b Y c ~ T v c c v Y b v R b c Y b T c c c b v c b E b T g v b R c c Y c Y S Y c b c b ",
"I R b T f b c v T T Q R E Y T g b b v c T Y E v b Y v Y T c b v b E R b Y ~ Y Y v c R S b b T Y Y G T Y R z b Y Y b f c R Y v T ",
"b T Y / b v v b E b Y g I b R j b Y c R b z Y R Y E c Y v c R c z T Y v b T z v T E b Y g c Y c c b Y Y T z v v b E b a S E Y c ",
"Y T c b z Y T Y R R T z Y Y R g b T Y R b c v S c R b Y f Y R c Y R v c b c b g G ) b R c Y T z v b Y Y E b T R c R R b b x Y T ",
"c b v c Y b Y Y b c T Y v v E B T z b E b T c S Y c p b T R f b E c b T ) R T j T ) R v G b b Y Y Y Y v T E T R c T I T T b Y z ",
"b E b z c b T R c v T Y v b T j T v I T b Y Y b Y E c v b Y f R ~ R ~ I T Y R z c b g v Y c v ~ b R c Y g z g l Y b c Y Y ~ Y z ",
"c Y T z T Y Y E v b Y E R R c z Y c T v c c v b Y Y R Y g T z b b v T b z z ~ ~ T c c R b b Y Y l Y T R g v R b R c v Y b E R Y ",
"b Y T z v b Y T T R v c R b v R E T c c T b b T Y f b ~ T E b v Y z T Y g Y c v c c T T Y g b c Y b Y T z Y ~ R R T c R T b c T ",
"c R E T T b b v c Y v v T c Y T T b c Y R v R E E b Y Y Y E v z Y T Y b b c f z c Y R b R z T R T Y T c Y Y T Y c c f v z f v v ",
"z c v c b Y v Y T c b v b v b g v b T E T b R c Y v T Y b Y b Y Y T z v ~ R c E T T R R ~ T Y E I c v v T Y R T b Y p b E Y E c ",
"E Y v Y v Y T E c v Y c Y g b c Y I Y v z v b b c c Y E T v c c c E T v c ~ E R Y b z b x h g b v g Y ~ Y z Y T v R x E Q / T c ",
"E c v T Y c E R R c T v v c E R b Y ~ T x b c c c b v c b b Y c T Y b Y b v v l f c c b z Y c R E v v b v c Y T z T c Y h z Y E ",
"b c R b Y b v z E Y ~ T Y E Y T c g b Y z R Y z g b R b b T R v c v b R c c T R c Y b b h Y T Y S Y S Y Y I c Y c b v b b z Y T ",
"b R E Y E Y b b b c v z v v c E c S c v c x T T b R ~ R b Y R Y Y b b R T z v ] E R Y T a b R c c Y Y Y T z Y Y c R c v b E R Y ",
"b Y v c Y R b T R Y Y z T g c ) T S v T R c b Y c G T c z S b v b b T Y T T b T z Y b R z b c b E b Y b R g v R ~ Y z z T ~ b Y ",
"p g z G E E v b Y v Y c b z b R T Y b E c c b R I I c c B T T b b b b z z z b v c R T R c Y j I R c b Y Y Y b E T v T z c T b b ",
"b Y b z c b c z v T v b b Y c b v c T ~ v g Y E b T v b v v Y b T Y T z Y z b b b Y v T v v z Y c b b b b Y v c R Y Y Y b b Y I ",
"~ E Y Y Y b T R c b c R E ~ E Y T c c R T z I Y v c c c c b R b b v E T E Y T R Y Y Y R c I Y Y b T c c E Y v Y b v b T Y b b b "
};
