/* XPM */
static char *_d05f82a8f13453a81f831b3b203d7a8n083LvZMfIi4DSzT[] = {
/* columns rows colors chars-per-pixel */
"64 64 138 2 ",
"   c #252323",
".  c #282626",
"X  c #2D2C2C",
"o  c #302E2E",
"O  c #2D2E31",
"+  c #2F3032",
"@  c #333334",
"#  c #383636",
"$  c #3A3837",
"%  c #363639",
"&  c #393739",
"*  c #37383B",
"=  c #3B3A3B",
"-  c #403E3E",
";  c #41403F",
":  c #3E3E41",
">  c #403F41",
",  c #3F4043",
"<  c #434244",
"1  c #494747",
"2  c #474648",
"3  c #484749",
"4  c #47484A",
"5  c #4C4B4D",
"6  c #504D4D",
"7  c #4E4F51",
"8  c #504F51",
"9  c #4F5052",
"0  c #535354",
"q  c #595656",
"w  c #5A5857",
"e  c #565659",
"r  c #585759",
"t  c #575859",
"y  c #5B5B5C",
"u  c #605F5F",
"i  c #5F5F61",
"p  c #605F61",
"a  c #646364",
"s  c #6A6867",
"d  c #676769",
"f  c #686769",
"g  c #656869",
"h  c #6D6D6D",
"j  c #716F6E",
"k  c #73716F",
"l  c #6F6E70",
"z  c #716F70",
"x  c #747474",
"c  c #797776",
"v  c #7A7877",
"b  c #777778",
"n  c #7C7C7C",
"m  c #BE3A39",
"M  c #FA0201",
"N  c #E73635",
"B  c #817E7E",
"V  c #DA4342",
"C  c #D75451",
"Z  c #E64644",
"A  c #C37171",
"S  c #D77A7B",
"D  c #82807F",
"F  c #3F67A3",
"G  c #0551E2",
"H  c #537FCB",
"J  c #827F80",
"K  c #5F87BF",
"L  c #5F88CA",
"P  c #5784D5",
"I  c #6085C7",
"U  c #618BD0",
"Y  c #818181",
"T  c #838383",
"R  c #848484",
"E  c #868686",
"W  c gray53",
"Q  c #898685",
"!  c #898786",
"~  c #8A8887",
"^  c #888888",
"/  c #8B8B8B",
"(  c gray55",
")  c #8F8D8D",
"_  c #8F8E8E",
"`  c #918E8D",
"'  c #95918F",
"]  c #988C90",
"[  c #909090",
"{  c #929292",
"}  c #949392",
"|  c #949494",
" . c #969695",
".. c #999694",
"X. c #9C9897",
"o. c #969698",
"O. c #9A9999",
"+. c #9D9A9A",
"@. c #A69897",
"#. c #A19E9C",
"$. c #A4A19F",
"%. c #8497B6",
"&. c #A6A3A2",
"*. c #A9A6A4",
"=. c #AEA8A7",
"-. c #ACAAAA",
";. c #B1AFAD",
":. c #B3B0AF",
">. c #B6B3B2",
",. c #BAB7B6",
"<. c #BDB9B7",
"1. c #BDBAB9",
"2. c #DA8A87",
"3. c #E28785",
"4. c #CCAEA9",
"5. c #CBB7B6",
"6. c #C3BDBB",
"7. c #8CA2C6",
"8. c #9EB0CD",
"9. c #9AB0D1",
"0. c #BDBEC3",
"q. c #C1BFC1",
"w. c #C5C2C1",
"e. c #CCC5C7",
"r. c #CDC9C7",
"t. c #D1CDCC",
"y. c #DBCECC",
"u. c #D6D0CD",
"i. c #D5D2D1",
"p. c #DFD3D0",
"a. c #DDD9D7",
"s. c #D4D6DB",
"d. c #DDDBDA",
"f. c #E2C2C1",
"g. c #E2CBCA",
"h. c #E1D4D1",
"j. c #E5E1DF",
"k. c #E2E0E0",
/* pixels */
"n v n E v T h n v E n E n E ^ b n T h v v b n [ E E v n T v n v x T ( T T x v T T ^ b v h v b ( n n T n ( n ( T n E b T T x n n ",
"( T n E E ( b T x b h v v v T v ( v v E T v T n b T b n T n ^ T h n E x n x ^ T T E E E v T T v f n E n x E [ n v T T T T b n b ",
"n v n b x v x v b E n D T T T E T h T ( v ^ ^ b T ( v b n ^ [ | ^ E T v T v T x T v f h b | T T b v ^ E h n ^ E x v v T n T T v ",
"n h n [ T b T E B v v E ^ [ ^ ^ ^ v b n n E x h n ( ^ T v ^ v n v n v T ^ ( n v ( x n v T | b v x E ( v E E v n b T n E v T ( ^ ",
"E x x n n T [ v E T E E b v x v n b h x E v b E n v b n E T f v n n n n T n E ^ ^ n O.^ ( ^ T v n v v T [ n b h h T n T v E n b ",
"v T ( x n E n f v n x x b b E ( v T T T T x v v T n v n T [ v b n T T T E T T ^ b E ( h n n ^ n T v T [ n b ^ E v n T n E T x n ",
"E E | v E b h v n ^ n v T T E v v [ ( ^ T n ^ v v v v T T ^ T v E ( n T n T b v h v T n E E E b T v n E x n ( [ [ E T T n n x E ",
"n n ( n ^ b n ( K n ^ [ n E v x E n n n n E [ n n E b ^ T v T b v n f h v ( n E v n n v x x b h T v E [ n v v x b v v T v T E n ",
"f n ^ E ( T E T ^ h b ( T E E h v ( n ^ b n [ T x h h T ^ v ^ f n ^ T n E E b x x T b v b n ( v T b x T v T T T T v E ^ v v n n ",
"x v n v E v v b ( E x n n ( n v E E h b h T ^ T ^ n x E [ b E x E | ( ( b T n T n ^ v T n ^ ( E ( v v E n ^ b x x v n E ( T x T ",
"v v E ( v v n n n v n E v T x ( [ b n E v b n v E E T n [ E T n v T v ( E v T [ ^ T E v E n n v E v h b E ^ n x n T n x n O.^ [ ",
"T T T n f E ( [ ^ E ^ v b T v ^ v h T n x b v b E n ^ T T x b x n T n b n x n T b z T T T T E b v T E T T n E v E E v x T ( n n ",
"E E E T v T n n b v T v v ( ^ T T T n E T n T T E v ^ E b T ^ n T b ( E [ T v n E n T n n v n E v v v T [ n b n v ^ E n ^ n x b ",
"n T v E T E n x T ^ n n b v T v b n E n E E T ( b x E ^ v n n ^ n v E ^ E T E x b h v ^ ( E v T v T x E ( b n T T E n E E v T n ",
"[ E n v n T b n ( T b ( v T E E b ^ ^ b v b x v v b T [ E ^ f v T ^ T b T T ^ T T b n n b T v E ^ ^ v ^ [ T n n v n v T b E ^ h ",
"E x ^ v v b n [ E ^ v T h v b h x E ^ h x n v T n n T v h ( E T n ^ E n n v n n ^ n ^ b v E T b E ^ b h x b v E v b b T v ^ T f ",
"^ v T n n b n T b n h x x T T n b T | T n ( ^ T ^ n n n T E b E x b n ( ^ v n T E v T x T T b b [ | ^ E h n T n n E n T v T E b ",
"n x v h b n n v T E n n n b n ( b v | ^ n T ^ x b x n T E n n ( v T n n n T b v T n E E ( b T x v n v [ ^ E n ^ b n T T T T E b ",
"n T [ b n ( ^ v n T E n v n E ^ h n E x n E T ^ ( v v T n n n E x b b b E ^ T T v v v b E b ( n b T E b T ^ n v x E T v E n n n ",
"n T [ ^ [ T ^ v E x n T ^ E ^ v v v T v ^ v f v n h v n x T n b n n T v E n n v f v x v ^ n T v E v h b ^ [ T x E E b T ^ T E ^ ",
"x n n v ^ n T n T n E n T v b y e 0 0 5 5 5 0 v n T n E E [ ( E n n n v T v ( ^ x T E [ [ ^ x a a y y u y h n T [ n b E ^ E ( n ",
"x n T b v E n E E n v x b r 2 = * * * * * % < b T n E ^ ^ T n ^ T T T b b h T ( n T ^ n v a < # # % # @ @ : h E n n T v n h T T ",
"b v n E b f v n n ^ b a 4 : : : , : : : = * 5 ` O.+.+.+.+.O.O.O.O...| ..| [ | [ ( ( ^ a 5 = % @ @ @ % : < < , 5 a n T ( v v ^ T ",
"^ T x T v n E n f x a 0 5 2 5 7 0 0 e e 0 5 a &.! x h j x b c v v n B T E ! ^ ^ ( ` [ E h p r y a a 2 = 5 0 0 7 5 a v n x v ( E ",
"v ^ n T b E n E b a t 0 5 5 0 r i a f h z r 1 h D v y = @ @ # $ = = - < < < < - - - - ; 1 r n ' [ +.y + @ @ % * 2 e h h n v T v ",
"b b ^ [ v ^ v T n a 0 < 3 5 e y a f x b x 5 X @ - w x ( } o.&.*.;.;.;.-.*.+.} ! B c k s h x y = @ = = @ @ + + + @ 5 f n ^ ^ ^ T ",
"E v n ^ x T ( [ +.e * > 1 5 e a h b b x f = X @ # = < &.k.9.K 8.i.t.r.w.<.-.$...' ' ..#.B #   X @ # = + # < < % O % 0 v v T b n ",
"E ( T E T h b n f = = < 2 5 0 c #.*.#.b i @ X @ # = 5 6.d.U G I w.6.,.;.&.+.` ! D n B ! v $ . X @ = = + , ^ ^ 5 O + = h T ^ E E ",
"x b n T n b a * @ # = < 2 5 0 y T =...x r X X o # = y u.s.P G H 0.1.:.*.#...( E B v v v v ; . X @ = = @ * B T < X O + e x v x b ",
"K v v n T T 0 O @ % = < 2 5 0 z #.=.} l e X X o # = j d.s.L G L 0.,.;.*.#.| ( E B v v c n 5   X @ = = @ * ^ ' < X O O 5 x n ^ x ",
"^ v v E E b 0 O @ % = < 1 5 0 b =.=...h 0 X X @ # = B j.d.7.F %.q.,.;.*.#.| ( E B v v c T 0   X @ = - @ # c B = X X X 5 b E [ n ",
"^ n x v ^ x 0 O @ # = < 1 5 0 c #.$.} h 8 X X @ # = ` j.d.r.[ -.w.,.;.*.#.| ( E B v v x ! q   X @ = - @ % h B 1 X X X 5 b E ( v ",
"E T b n ^ x 5 O @ # = < 2 5 0 T } B B h 5 X X @ # = | j.d.t.| -.w.,.;.*.#.| ( E B v v x ! e   X @ = - # # a v 2 X O O 0 v b E b ",
"b T v T ( n 0 O @ # * < 1 5 0 v +.+.[ h 0 X X @ # = ..j.d.e.] *.w.,.;.*.#.| ( E B v c k ! 0   X @ = - @ # B ! = X X X 0 h v ( T ",
"h E B ! T n 5 O @ % = < 2 5 0 j #.&.` h e o X @ # = ' j.p.S m A 5.,.;.*.#.| ( E B B c j D 5   X @ = - @ = ` X.< X X X 0 b x b T ",
"E T v D T ^ 0 O @ % = < 2 5 0 B *.$.#.x r @ X @ # = T h.g.Z M V 5.,.;.*.#...` ! D n c j B 1   X @ = = @ # B v # X O O y v n n n ",
"' b T ^ n T y @ + % = < 2 5 0 n #.#.+.x a # X @ # = s a.f.N M N 4.1.>.-.$...` ! T B v k D -   X @ = = @ = ' s @ O + * y b v b ( ",
"b n ^ n v n T r 1 % = < 2 5 0 J X.....b d > X @ # = 6 6.g.Z M V 5.w.1.>.-.&.X.` ^ ~ E E ^ $   X @ = = O * B T < O : 5 f n n ^ T ",
"T E n v v v E ( O.0 % > 1 5 0 a a f x x h 5 o @ # = 1 +.h.3.C 2.y.i.t.r.w.<.;.&.+...} ' } s < o o # # + + % % @ @ 7 r h n E E ^ ",
"E n x T T E n E E f = < 2 5 e y a f h x x y @ o < a ^ ` ~ ..@.@.#.+.| ` T v h a q 5 1 < ; q j j r < & O O O O O , 0 h x v T v v ",
"^ b T ( v x h ^ T b : : 2 7 0 r p a h x x a 7 a ^ ~ a 1 = = = = = = = = & # # # # # & = = = < h -.&.p * % % % < 0 e v T n ( E x ",
"b h ( O.^ x n ( v v 0 : < 4 5 9 0 e e e 0 5 h -.#.T n B B T T E ! ! ^ ^ ( ` [ } } | | E f e 5 5 7 0 5 1 < < < 5 0 v v T b T ( b ",
"n n l n b x [ [ n n n g < : : : : : : : * * 7 ( } } | | } | | ..| ..| | ^ [ +.[ [ ( ^ v y 5 * @ @ @ @ @ @ : y x x n n E n E [ x ",
"T n a n v E T v n b v E h r < * % % % % % @ 2 v E E T T T ! T T n T n E x T O.( E T n n v T h y e y r 0 y b v E x T v v T ( ( b ",
"( n h ^ E n n h T ^ T v n ^ h y 8 0 7 e 5 1 y T n n n E T T x E T ^ T T v v ^ n x h x v T T E n E n n a h n b v h E n T n n E T ",
"^ v x T ( v E b b v v T E x n n T T x j v T T ^ E h T E T n v ^ v v h x b b T n E n n n n v ^ E o.T E E n n n E n T v v h x v E ",
"^ [ n v b n T ^ n T n ( E x E b v T T b E n T v [ E b v v b T n b ^ n v T n E v v n n b v n ( n E h b n ^ v v T v E T E v n v n ",
"n ^ K E f n v b E E [ ^ ( T E h n n b v E T ( b n T b T E v n b n ( ^ n T [ T T b v ^ T n n E T T n E T ^ x n E E n f v ^ T b E ",
"n ! T | n b b n ( n T h T n ^ x n T v ^ n x T ^ T ( v T b v ^ v x E T b n E x b E ( v T h v T v v v T T E x b b n ( n h D ( T v ",
"T E n T x T E T ^ ^ E x T T ^ h n E T ^ n v b T v ^ n T f T ^ v T ^ b v n v n h T | n ^ v E E x b n E T ( n E ^ v ^ ~ n v c T E ",
"v B x v T n T T n v E T b b ( T E x n ( n E v T T v a n E ^ f n ( v n E | ^ E x E | ^ b T n n T T T T v E ( E ^ v E K E E n T x ",
"n ( B x v n E ^ v b E T b n E x E b T T n T T n T ( v b n T f ^ [ ^ [ n E T ^ x v n h b T v b [ n ^ v T h x h z T n v T T [ T x ",
"v T E x E T T ( v n E ( ^ ^ v x T v E b v v b n T E ^ T h E x v n b E n x x [ [ E v v ^ n n T T x T E ^ h b ^ n ^ v b T n ( ^ T ",
"n T E x b n T E E ^ b v ^ n b ^ ( E v v E n n E E f n [ E ( n b T x E T h T v b v v E E T h n v T n T E x T [ ^ ^ E v ^ E n v E ",
"v ^ ( E E n n b v E b b E v T E E n v T ^ b ^ ( ( n T T T ( b x T E T n n v f x v T ^ n ^ x E ^ E E E v T T E T v v f b x f b b ",
"x v b v n T b T E v n b v b n h b v E ( E n ^ v T b E T n T n T T E x b [ ^ v ( E E ^ ^ [ E T ( T v b b E T ^ E n T a n ( T ( v ",
"( T b T b T E ( v b T v T h n v T T T b x b n n v v T ( E b v v v ( E v v [ ( ^ T n b n v h h n v h E [ D x T E b ^ c ` [ | E v ",
"( v b E T v ( ^ ^ v E b b v ( ^ n T [ E c B v v v n b v n n T v E T n E n b b x f v v n b T v ^ ( b b n b v T E x E v D h b T ( ",
"n v ^ n T n b x ^ T [ E T ( T E v h n T x ~ E x h n ^ n n E ^ b v v n ^ v v E ^ v T n n h T E T T T T T T K v T v n b D n x T E ",
"n ^ ( T ( T n n n v b x b b v ( v T v b n v E E n ^ [ ^ n T ^ T T n n ^ E x b O.( ^ T E f n ^ n v T E T E x T E v ^ v b n ( ^ T ",
"n T b v T ^ n E ^ T T x E h v | E T b E ^ v n T v n ~ v x E n b n n E T E E n E x T n ^ x n v n ( n T n ^ h b ^ [ T x x E [ n T ",
"a h x T ( ( b n T v T v n x n ^ E E n ( v v n ^ K n v v D ~ E n n n n x x x n b v ^ E ^ v T x T ^ v n T T T n ( E b E x v E n n ",
"n T n x v n v x b E b n n T v n b v E [ b h T ( n E b n b b T n E T E x T x n n n T b E b b x T v n n n n T b v ^ T T T n n T T ",
"[ ( T T T n E ^ v n v ^ ( [ ^ T E v v ^ E x K T b v v v v n ^ n n b ( E ( T E ^ T T T ^ v T T T n E v v ( T b T n b n E T n n n "
};
