/* XPM */
static char *_c3cea5cc9ac4ab2e988f483daccabc152NUVshfeJn2AKZY[] = {
/* columns rows colors chars-per-pixel */
"64 64 102 2 ",
"   c #597C65",
".  c #5E7F69",
"X  c #666666",
"o  c #6D6D6D",
"O  c #67786D",
"+  c #796E70",
"@  c #6F7672",
"#  c #747474",
"$  c #7E7375",
"%  c #717974",
"&  c #767C79",
"*  c #7C7C7C",
"=  c #847A7C",
"-  c #887D7F",
";  c #3AA55E",
":  c #26BC58",
">  c #2DBB5C",
",  c #31BA5E",
"<  c #36B660",
"1  c #3AB362",
"2  c #34BC61",
"3  c #3CBB66",
"4  c #5F8E6F",
"5  c #4C9B66",
"6  c #59916C",
"7  c #59986E",
"8  c #5A9E71",
"9  c #62846D",
"0  c #668570",
"q  c #648D72",
"w  c #698A74",
"e  c #738278",
"r  c #7B837E",
"t  c #738C7C",
"y  c #7A8A7F",
"u  c #609170",
"i  c #679B78",
"p  c #71937C",
"a  c #49A267",
"s  c #44AB66",
"d  c #4EA76C",
"f  c #49A869",
"g  c #49B36C",
"h  c #50B56B",
"j  c #4DAA74",
"k  c #56A671",
"l  c #5CA373",
"z  c #10CD4F",
"x  c #0CD54E",
"c  c #00DE49",
"v  c #09D94E",
"b  c #1EC756",
"n  c #12CE51",
"m  c #1BCB55",
"M  c #1ECD58",
"N  c #0ED550",
"B  c #02DE56",
"V  c #13D152",
"C  c #21C056",
"Z  c #24C359",
"A  c #28C95D",
"S  c #31C060",
"D  c #8B7E80",
"F  c #A47C87",
"G  c #B67582",
"H  c #B87784",
"J  c #B77B84",
"K  c #BA7986",
"L  c #BC7B88",
"P  c #7F8080",
"I  c #7D8A81",
"U  c #769781",
"Y  c #7F9286",
"T  c #779882",
"R  c #6CAA81",
"E  c #7FDB8D",
"W  c #838383",
"Q  c #8D8284",
"!  c #818C85",
"~  c #8B8B8B",
"^  c #8B908D",
"/  c #919191",
"(  c #949494",
")  c gray59",
"_  c #979797",
"`  c #9C9798",
"'  c #989898",
"]  c gray60",
"[  c #9B9B9B",
"{  c #A59297",
"}  c #A69398",
"|  c #A79499",
" . c #A9969B",
".. c #AA979C",
"X. c #AB989D",
"o. c #AD9A9F",
"O. c #BD959F",
"+. c #AAA49E",
"@. c #AF9CA1",
"#. c #B19EA3",
"$. c #F5A7B7",
"%. c #F6A6B7",
/* pixels */
"* * * ~ * W o * * W * ~ * W ~ # * W o & * # P / W W * * P * * # # P ^ D P # & D W ~ # * o * # ^ P * D P ^ P ~ P P D # P W # P * ",
"~ W * W W ~ # W # * o * * * D * ~ * * W W # W = # W # * W * ~ P o * ~ o * @ ^ P P ~ W W * P P # o * P * # P / P & P P W P # * * ",
"* * * * # * o * # W * * P D P I W o W ~ * ~ ~ # W ~ * # * ~ / ( ~ ~ D * P * P @ D & o o # ( W W # * ~ ~ o P ~ P # # * W P D P * ",
"* o * / W # W W * * * W ~ ^ ~ ~ ~ * # * * W # o * ~ ~ W # ~ * P * * % P ~ ~ * * ~ o * * W ( # * # ~ ^ # ~ P * P # W P W * P ~ ~ ",
"~ # # * * W / * W W W W # & @ * * # # # W # # W P * # * W W o * * P P P P & W ~ ~ * ( ~ ~ ~ D & * * * W / * # o o P P P & W P # ",
"* * ~ # * W * X * * # # # # D ~ * W W * W # * * W * * * P / * # & P P D D P W ~ * W ~ % * & ~ P P * W ( * # ~ D * P W P W W # P ",
"W W ( * W # # * * ~ * * P P W & * / ~ ~ W * W * * * * W W ~ * # W ^ * P * W # * o & D * W W W & P * * I # P ~ / / W W P P P # W ",
"* W ~ * ~ # * ~ D P ~ ( * ~ # @ W * * W * W / * * W # ~ W & D @ * * o o * ~ * W # P P * # @ # o W * D / * * * # # * P P # P D * ",
"o * ~ W ^ P D P ~ o # ~ D W W o & ~ * ~ # * / W # o # W Q * Q o * ~ P * ~ W # # # P # * # D ~ * W # & P * P W P W # ~ W * & P P ",
"# * P * D * & # ^ P # * P ^ P * F O.- 6 ; s g d ! * o W / % W # ~ ( ~ ^ # W P P * ~ * P * ~ ~ W ^ # * P * ~ # # # * P W ~ D # P ",
"# * P / * * P P P * P W & D # Y h E j > c c c V l i I r / W P * # W # ~ W * P / ~ * p 4 i w * * W P o # W ~ P @ * W P # * ( W / ",
"W W P P o P ^ ( ~ W ~ * # P * U V c v v c c c c x V l W P @ # @ P P D # * # * P @ O , x x , y * * P D P P P D * W W * o W / P P ",
"W W W W * W * P # # P * * ^ ~ U V c c c c c c c c c M 8 & P ~ * W # ^ ~ / W * e 2 Z V c c x 1 I * * # P / P # P * ^ D * ~ * # # ",
"P W * W W W * # D ~ * P # * P 0 V c c c c c c c c c c S u P = ~ * & P ~ P U k ; x c c c c c V d & P # D ~ # * P P P * ~ W # P * ",
"/ W P * W * # * ^ W # ~ * P W U z c c c c c c c c c c c , p   q U U w 9 w f B c c c c c c c c V T ~ & ~ / P * P * * * P * W ~ o ",
"W # ~ * * # * ( W ~ * P o * #   V c c c c c c c c c c c v V V N z z N n n x c c c c c c c c c V U ^ # o # # * W * # # P * ~ W X ",
"~ # W P P # P W # * o # # P W w n B c c c c c c c c c c c c c c c c c c c c c c c c c c c c c n T ( ~ I o P P * P W P W & P D # ",
"* # & o # * P # W W P P * # P T n c c c c c c c c c c c c c c c c c c c c c c c c c c c c c c n O P * / ~ D P ~ # * P P W P P & ",
"* P ( # P ^ ~ * P W ~ * * * W U z c c c c c c c c c c c c c c c c c c c c c c c c c c c c c c V 0 P W # P ~ * * o P P P W P P P ",
"* D / ~ / W W * W @ * W ~ W W w n c c c c c c c c c c c c c c c c c c c c c c c c c c c c c c n U * o * ~ / P # ~ D * P ~ W W ~ ",
"# * P * ~ P P P P P W P P & P O n c c c c c c c c c c c c c c c c c c c c c c c c c c c c c c V U # * P * * * P / P & D ~ W / P ",
"# * W # # W * D D * * # ~ P ~ U n c c c c c c c c c c c c c c c c c c c c c c c c c c c c c c V w # P * # o ~ ~ P * P # P o P P ",
"# # W W # o # P P ~ # W P * # U n c c c c c c c c c c c c c c c c c c c c c c c c c c c c c c n U & W W ~ # # * * P P ~ * * ~ P ",
"W W # P # P W P o # * P * @ # U n c c c c c c c c c c c c c c c c c c c c c c c c c c c c c c V U ~ / W ~ P * P * * * * # * / W ",
"* ~ P W # D P D & * * * W # P U V c c c c c c c c c c c c c c c c c c c c c c c c c c c c c c V U * P # # # * * ~ P * o P # P * ",
"# # W / * ~ & W * ~ W ^ P * W U n c c c c c c c c c c c c c c c c c c c c c c c c c c c c c c n I ~ ~ P # P ~ * P o ~ P ~ ~ ~ P ",
"W * P ~ # P ~ ~ P P # * P W &   n c c c c c c c c c c c c c c c c c c c c c c c c c c c c c c V . @ * P * ~ ~ * * P & W P D # P ",
"~ ^ P D P o # P # o # * ~ P & I n c c c c c c c c c c c c c c c c c c c c c c c c c c c c c c V U @ P ~ # P P W P D P W P ~ W W ",
"@ # * P P # * / # # ~ * P ~ ~ U V B A m c c c c c c c c c c c c c c c c c c c c B : 3 < < b B n . P W / W P * D W D W * @ # # # ",
"P # & P W P W ~ P * W # # P D * L $.+.s n x c c c c c c c c c c c c c c c c c c M 4 # o D 7 V n . # P W P W # # # # * # # P ~ # ",
"~ * * D W # W P P # P P D * P D G $...r t a v c c c c c c c c c c c c c c c c n i ^ ~ # P * 8 b U ~ / # @ # ^ W P W * * # ~ / * ",
"~ P o * ~ # P W W # P * W P P ~ J $.#.# o O l s x c c c c c c c c c c c Z l 5 8 & # ~ W ~ & Y R I W P o ~ # W ( P * P # # W / # ",
"W P # P Y o & D W o W P W P ~ D J $.@.W # W ) P 1 : > : > > , , > > 2 2 5 * * * o P & P ~ * o # # # & ^ ~ o P ^ # * W ~ * # W * ",
"# P * P / * ~ _ W o W W W o # * F $.} * * P ) P * & P & @ @ I & & % e ! & W * / * D * # P / ~ * * * # ~ # o Q * W ~ P ~ o * ~ P ",
"o W P ~ P P # # / # W * W o P F L $.} P P P / W ~ & # P # W ~ * W * ~ Q # o # ~ * ~ * I @ # D P # P P D * P P X * ~ P ~ # # # P ",
"W W * W W D P P / # W * W o P D H $.] W * W P P Y P # W W P P * W # P W W * ~ / * # * ( W W * P # W P P / ( / P P ( ~ ~ * P P P ",
"( # W D * P # * P P ~ W * D / D L $...D P * * W # # W P D W P P ~ W W ~ ~ ~ W ' P o W D # * # # @ * # ~ D P # * # W # # # # # ~ ",
"# W Y W * * D P # P W # o W * o H $.#.# * ~ * D # P D * * P P ~ W W * * # # # W o * P W W * P W W W # # * & P # / P W & P P ~ P ",
"W W P * * * P D * * ~ W W P P D L $...# / / P P # ~ ~ W # W P # * W * o * X # / P P * # # ~ ~ ( W / P W W & W * P # D # P Y D ~ ",
"W P # W W Y W W # * / P * * P D L $.` D P P * P P # X P W / D W * * / * ~ W W ~ ^ D W * P / * * # # # W P W W ~ ~ * W # * D # & ",
"D * W / P # o ~ P _ P * ~ W # P K %.{ P # o P * P P * # P # # P # # * * W W W * W # * # * P * ~ * * W W # & o # # # * P P / D # ",
"# o D [ ~ o P Y * P o # * W * D L %...* D * D P W * * * P # W W * * * W * * W X * # * W * * * W * ~ ~ * * P * W o P * P # W / # ",
"P P o * * # ( / P * W ^ # * # $ L %...# o P * P ~ & W W P W Y W * W P W X W ( W W * * W * * # * P ( * o W ( P ^ # * * W P W / o ",
"W P X P * W P * P # * W * W # P F %...D o W W ~ / D W W W D W W * W * ~ # W ' ~ ~ W * * * W W ~ * ~ W * ~ ( P W # P * * W ~ ~ # ",
"D * o ~ W P P o P D W * P D # D K $.@./ D * # W P P P W P P # W W ~ W W * * ~ * # o @ * D P W * W P * X o P # P o W P P P & W P ",
"Y * # P D P W # # * * W W # P D L $.F # P ~ P ~ W o P W W * * ~ # * X # # # W * W D P * * & ~ I ' W D W * P P D * P * * o # P D ",
"D [ P # # P W ~ P P * ~ W # ~ * F $. .# W P P * ( W # # # * P P # ~ * * W * W # & * * # * P ~ * W o # P ~ * * W * W P W * P & P ",
"P ~ P W o P * # ~ W / ~ ~ P D + L $._ * W P / # P W # W W * * * * / ~ W * / W W & # ~ P * * ~ D W P W W D o P W W * o & W W # W ",
"P ~ P ( P # * * D W P o P P ~ # L %.} D W # W D W D W W # * ~ # # Y W # P W o # ~ ~ * ~ o P P # * * P P W # # # * / P o P ~ P * ",
"W W * P o P W P ~ ~ ~ # W P D # F %.X.D P D # P * Y P W o P W * W D # * P * P # P ( P D * W W # & P W P ~ * W ~ * ~ W P * * W P ",
"P W # * P P W P P * P W # # D D K %.} / P P * W W # X P W ~ o P / * * W ( ~ W o W ( W # P * P P P W P * W / W ~ # W P W W * P # ",
"P D P # * * ~ ~ * # W P # P ~ * K %.} W * P P P W ~ * # * P o W / ~ / P W P ~ # # P o # P * # / P D * P o # o o W * * P P / P # ",
"# W W # W P P ~ * P W D ~ ~ * # K %.#.# * * # P P W ~ P o W # * P # W * o # / / W * * W P P P P # P W D # & ~ P W * # W P ~ ~ W ",
"P P W # # P P ~ W D * * W P # D L $.{ # W P P W W o * ( W / P # P # W P o P * # * * W ~ W o P * P P W W o W / ~ ~ W * ~ D P * W ",
"* ~ ~ W W P P # * W # * W * W D K $.] ~ W * ~ Y / * P P W D * # W W W P * * o # * W ~ * D # Y D W W W * W W W W * * o # # X # # ",
"o P # * P P # W W P * # * # P # H $.@.D W P ~ * P # W P P P W P W W # # / ~ * ~ W W W ~ ' W W ~ W & * # ~ P ~ W P W X * ~ P ~ * ",
"/ P # P * W W ~ * # W P P o P * F $...# # # * P * * P / W # * # P D W * # / ~ D W P # * * o o * * o W / P # W D # ~ # / / ( W * ",
"/ * # ~ P P D ~ ~ # W # # * / D W F ] D # W * * # * # * P P P * W ~ * W P # & # X * * * # P * ~ ~ # # P # & W W # W * W o # P / ",
"* # ( P W P # o ~ W / W W Y P ~ * o P W # D ~ o o P ~ * P W W * * # P ~ * # W ~ * P P W o W W W W W P P W P & W * P * P P # W W ",
"* ~ D W Y P P P P # # # * # P D * P * # P # ~ W * ~ / ~ P P ~ P W P P W W # # ' ~ ~ P D o P ~ * * W W W W # W W * W * # * ~ ~ P ",
"P P # * ~ ~ P W ~ P P # W o * D W W # W W * P ~ # P D P # W P * * P W P W W P W # P * Y # P * P ~ P P & D o & W / W o # W ( * W ",
"X o # P D D * P P * P * P # W / ~ W P / * * * Y P P * * P ~ W P P * P # # # P # * ~ W D * P o P D P * W W P P ~ W # W # * W * P ",
"P ~ P o * P # # # W * P P P P * # * W ( # o P D P W # P # # W P W W W # P # P P P P & W # # # P * P P * * P # * ~ P W W P * P P ",
"_ D P P W P W ~ * P P Y D ( ~ P W * P D ~ o P W # # P # * W D P P # ~ W / W W ~ W W P D * P P W * W * * ~ P * P P # * D P P P * "
};
