/* XPM */
static char *result[] = {
/* columns rows colors chars-per-pixel */
"64 64 199 2 ",
"   c #262526",
".  c #2B2624",
"X  c #2F2826",
"o  c #272728",
"O  c #292728",
"+  c #2C2A2B",
"@  c #342925",
"#  c #3C2A23",
"$  c #312E2E",
"%  c #2E2E30",
"&  c #302F30",
"*  c #3D3330",
"=  c #4F2C1E",
"-  c #562F1C",
";  c #582F1B",
":  c #5B301B",
">  c #68331C",
",  c #7A361B",
"<  c #7E3618",
"1  c #432D24",
"2  c #4C2F22",
"3  c #49332B",
"4  c #543223",
"5  c #5B3424",
"6  c #55372C",
"7  c #5B382B",
"8  c #443631",
"9  c #4C3931",
"0  c #543C31",
"q  c #5A3F32",
"w  c #653624",
"e  c #643A29",
"r  c #5F4132",
"t  c #64422E",
"y  c #634434",
"u  c #654B32",
"i  c #6A4836",
"p  c #7E4930",
"a  c #695038",
"s  c #5F564E",
"d  c #604D42",
"f  c #615145",
"g  c #6C5642",
"h  c #665B52",
"j  c #7C604F",
"k  c #69635E",
"l  c #74685E",
"z  c #666564",
"x  c #6C6460",
"c  c #6D6D6D",
"v  c #7C6B61",
"b  c #776E6A",
"n  c #7B726A",
"m  c #6F7070",
"M  c #747474",
"N  c #7B7673",
"B  c #7C7875",
"V  c #777879",
"C  c #7C7C7C",
"Z  c #9B3F0D",
"A  c #873B17",
"S  c #983B15",
"D  c #B73F0C",
"F  c #B83F0C",
"G  c #A83F12",
"H  c #883E22",
"J  c #9A480C",
"K  c #944111",
"L  c #974116",
"P  c #924914",
"I  c #A54C07",
"U  c #A4410A",
"Y  c #A9430A",
"T  c #A44C09",
"R  c #BA410C",
"E  c #B3490D",
"W  c #BA4A0B",
"Q  c #A44715",
"!  c #AD4215",
"~  c #A44815",
"^  c #A34A1C",
"/  c #BB4211",
"(  c #BA4B19",
")  c #A95314",
"_  c #A55519",
"`  c #A9571B",
"'  c #964E27",
"]  c #9D4E23",
"[  c #975527",
"{  c #9E5126",
"}  c #995B39",
"|  c #A14E23",
" . c #A95C23",
".. c #A45928",
"X. c #B8572C",
"o. c #AF5E37",
"O. c #A25D3A",
"+. c #B05D36",
"@. c #B05F38",
"#. c #A96239",
"$. c #C8450D",
"%. c #C34C0A",
"&. c #CA4D0B",
"*. c #D2460D",
"=. c #D64A0A",
"-. c #DC4A0D",
";. c #D4520C",
":. c #C64914",
">. c #D34C15",
",. c #CF5311",
"<. c #D65415",
"1. c #D55A15",
"2. c #D65519",
"3. c #DA561A",
"4. c #D95A1D",
"5. c #E44B0B",
"6. c #EB4C0A",
"7. c #F54E09",
"8. c #F84F0A",
"9. c #EB510E",
"0. c #F6500A",
"q. c #F8500A",
"w. c #E34E10",
"e. c #E55719",
"r. c #F75613",
"t. c #F85712",
"y. c #F55914",
"u. c #F85913",
"i. c #F45D1A",
"p. c #F85E1A",
"a. c #D7611D",
"s. c #F7611E",
"d. c #F9611E",
"f. c #D85A23",
"g. c #DB5B23",
"h. c #E25D25",
"j. c #CC602D",
"k. c #D86726",
"l. c #C56C3E",
"z. c #D36F3C",
"x. c #D4723E",
"c. c #DC733E",
"v. c #EA6326",
"b. c #F66423",
"n. c #F96422",
"m. c #F46927",
"M. c #F36C2B",
"N. c #FA6C2B",
"B. c #F2702F",
"V. c #ED6E33",
"C. c #F76E30",
"Z. c #ED7035",
"A. c #E3763F",
"S. c #EB763C",
"D. c #F47234",
"F. c #F4773A",
"G. c #F87739",
"H. c #F37B3E",
"J. c #8A5D47",
"K. c #9A6745",
"L. c #886655",
"P. c #986C53",
"I. c #99735A",
"U. c #AB6846",
"Y. c #BB6641",
"T. c #B76C4C",
"R. c #B87857",
"E. c #81736B",
"W. c #897669",
"Q. c #85786D",
"!. c #997562",
"~. c #847B75",
"^. c #857B75",
"/. c #8A7C74",
"(. c #837D79",
"). c #C7744B",
"_. c #D87947",
"`. c #C27D5A",
"'. c #E67941",
"]. c #EA7C44",
"[. c #E17D4A",
"{. c #F57E42",
"}. c #86807C",
"|. c #8A827C",
" X c #918274",
".X c #9C8477",
"XX c #92837C",
"oX c #BE896D",
"OX c #EB824B",
"+X c #F58246",
"@X c #F5854A",
"#X c #E28150",
"$X c #CE8560",
"%X c #838383",
"&X c #8A8684",
"*X c #8B8B8B",
"=X c #948982",
"-X c #929292",
";X c #999999",
/* pixels */
"C C C *XC %Xc C V *XC *XC %X*XM C %Xc C C M C -X%X%XC C %XC C V m C -X%XC M C %X%X*XM C c C M *X%XC %XC *X%X*X%XC %XM }.%XM C C ",
"*X%X}.%X&X*XM %XM M c V C C %XC *XC C %X%XM %XC V %Xm C %XC *XC c %X&Xm C M *X%X%X%X%X%XC %X%XM c C %XC M %X-XC C %XC %X%XV C V ",
"C C C V M V m C M %XC %X%XC C %X%Xc %X*XC *X*XC }.*XC V C *X-X;X*X%X}.V %XV C M %XC c m M -X%X%XM C *X%Xc C *X%Xm C C %XC %X%XC ",
"C c C -X%XM %X%XC C C %X*X-X*X*X*XC M C C %Xm c C *X*X%XC %XC C C C C %X*X*XC V *Xm C C %X-XM C m *X*XC %X%XC %XV C C %XC %X*X*X",
"*Xm M C C %X-XC %X%X%X*XM C M V C M m m %XC V %X%XC M C %X%Xc M C C C C %XC %X*X*XC ;X*X*X*X%XC C C C %X*X%XM m m %XC %XC &XC M ",
"V %X*Xm C %XC z C C M M M M %X*XC %X%X%X%Xm C C %XC V C %X-XC M C %X%X%X%X%X%X&XV %X*Xc C C %XC %XC %X-XC M *X%XV C %XC %X%XM C ",
"%X%X-XC %XM m C C *X%XV C %X%XC C -X*X*X%XC *XM V V C %X%X*XC C %X*XC %XC %XM V m C }.C %X*X%XC %XC C &Xm %X*X-X-X&X%X%XC C M %X",
"C %X-XC *XV C *X%XC *X-X(.%XM M &XC C C C %X-XC C &XV *X%XV %Xm C C c m C *XC %XV C %XC m m m c %XV %X-XC C C m V V C %XV %X&XC ",
"z C *X%X*X%X%X%X*Xc M *X%X*X%Xc V *X%X*XM C -XC m m m %X&XV &Xc C *X%XV %X%XM M m %XM C M %X*XC %Xm m %XC C %X%X%XV &X*XV V C %X",
"M C %XC %XC V M *X%XM C C -XC V %X&Xm V c %X*X%X*XC m %X-XV %Xm *X-X*X*XC %XC %X%X&XC C C *X*X*X*XC C %XC *XM M m V C %X*X%XM %X",
"C C %X*XC C %XC C C %X%XV %XM *X*XV C %XV V C V &X%X%XC -X%X%XC M %XC *X%XC %X-X*X%X&XV %XC C C %XC c M *X*X%Xm C %XC M C ;X%X-X",
"%X%X%XC c %X*X-X*X%X*XV M %XC *XV m %X%Xm M C V %XC *X%X%Xm V M C %XC V C m C %XM m C %X%X%X%XC C %X%X%XC C %XC %X&XC M C -XC C ",
"%X*X%X%XV %X%XC M V C C C *X*X%X%XC %X&X%XC %X%X&XV *X*XV C *XC %XM *X%X-X%XC C %XC C %XC C C %XC C M C -XC V C C *X%XC *X%Xm M ",
"C %XC %X%X%XC M %X*XC %XM C %XC V C %XC &X%X%X*XV M %X*XC C C *XC V %X*X%X%X%Xm M c V *X-X%XC %XC %XM %X*XM C %X%X%XC &X%XV %XC ",
"-X%XC V %XC V (.*X%XV *XV %X%X%XV %X*XM V V M V V V %X-X&X*Xc C %X*XC M %X%X%X%X%XV C %XM %XC %X%X*XC *X-X%X%XC V C V %XV *X*Xc ",
"%XM *XC C M C -X%X*XC %Xz C M c M &X*Xm m C C %XC C C V m *X%X%XC *X%X%XC V C %X*XC *XM V %X%Xm &X*XM c m M V %XV V M %XV *X%Xz ",
"*XC %XC %XM C %XM C m M m %X%XC M %X;X%XC *X*X%X*XC C C %X&XM %XM M C *X*XB C %X%XC %XM %X}.M M -X-X*X*Xm C %XC %X%XC %XV %X*XM ",
"C M C c M C C C %X*XC C C V %X*XM V -X*XC %X*Xm V m C %X%XC C -XC %XC C C %XV V %XC %X%X*XM %Xm V C V -X*X}.C *XM C %X%X%XC %XM ",
"C %X-XM %X*X*XC %X%X%XC V C %X*Xc C *Xm %X}.%X*X-XC C }.C %XC %Xm M M M &X*X%X%XV C V V %XV *X%XV C %XV %X*XB C m %X%XC *XC C C ",
"C %X*X*X-X%X%XC }.m C %X*X%X*XV C V %XV *XV z C C c V C M %XC M C C %XV *XC C C c V m C %XV C m C M c M *X-X%Xm %X*XV C *XC *X*X",
"M C C C %XC %XC B C }.C %XB M k k s s a a g h V C }.B }.}.=X|.}.~.~.n n Q.E. X Xl W.W. XW.a a u u u a a l %XC %X-XC V }.*X*X*XC ",
"M C %XM C %XC |. XP.P.K.K.O.[ P P P J I J T _  . . . . . . .` ` ` ` ` ) ) ) ) ) ) ) ) ) I I I I I I I I [ [ #. XI. X%XC C m C %X",
"M V %X%XM c N U.,.;.;.;.;.;.;.;.;.;.;.;.1.;.%.&.&.%.%.W W W W E Y Y T Q J K K A A W ;.&.;.1.1.1.a.a.1.a.a.a.a.k.k.l. X|.C V *X%X",
"%X%Xm %XV C T.v.M.v.M.v.B.M.B.B.B.B.B.B.B.B.( > 5 - 4 2 2 1 # # # @ @ X @ . . # S &.K K e.M.B.Z.F.H.H.H.+X+X@X@XOXOX$XC m C *X*X",
"C &X%X%XM XXg.i.M.M.m.m.s.M.m.m.m.v.v.i.i.y.w.L 8 * 8 8 9 9 9 0 0 q q q r y y | ( 7 + # :.0.r.y.i.i.s.s.b.m.M.D.#XP.$Xz C V %XV ",
"M V *X*XV XXg.8.q.q.0.q.0.0.0.0.0.J : , P ! 0.0.f.z.x._.c.c.c.A.'.'.'.].].].].H.p % + o A 9.$.R R R R F R R W ;.c.j $X|.&X*X*XC ",
"&XV C *XM /.h.8.q.6.6.5.6.6.5.0.0.<   o + e 6.0.t.d.d.d.s.d.d.s.i.d.s.s.n.b.N.H.O.$ +   - -.-.=.=.=.=.-.=.=.=.6.V.J.R. XC %XV C ",
"*X*X%X%X%Xv g.q.q.6.5.5.6.5.=.0.0.<   + $ t 6.0.q.q.q.8.q.q.q.q.q.q.q.q.q.q.q.N.l.* + O # *.q.q.8.8.q.q.q.8.q.q.m.#X#X.X%X*X%X*X",
"m M C %XC n g.8.q.6.5.-.6.5.5.0.7.<   X % e 9.0.q.q.q.q.q.q.q.q.q.q.q.q.q.q.q.b.x.9 + O . / q.q.q.q.q.q.7.q.q.q.s.@XOX!.m C m M ",
"%XV C C %X|.h.8.q.6.5.5.5.5.5.0.7.<   + $ 7 6.q.q.q.q.q.q.q.q.q.q.q.q.q.q.q.q.p.A.r + + . ! q.q.q.q.q.q.q.q.q.0.s.@X@XR.m C *XM ",
"&XC C &X%XE.h.8.q.6.5.5.6.5.5.7.0.<   + & 7 9.0.q.8.8.8.8.8.8.8.8.8.8.8.q.q.q.u.S.y + O . G q.8.8.q.q.8.7.q.q.q.s.@X@X$XM *X-XC ",
"*XV m V *XE.g.8.q.6.5.5.5.5.-.7.7.,   + & 7 5.0.8.q.q.8.q.8.q.8.8.q.8.8.8.8.8.u.S.i +   . G q.q.8.8.8.q.q.q.q.0.d.@X+X$XB %X*XC ",
"%X%XV C &XE.f.8.7.6.5.5.5.5.5.7.7.<   + % 7 5.8.q.q.8.8.q.q.8.8.q.q.8.q.q.q.8.y.F.q $ O X D 8.8.8.8.8.8.8.8.8.7.b.{.@X$X%XV %XV ",
"M %XV %X*X/.h.8.7.5.5.5.5.5.5.7.7.A   + % 6 w.8.8.8.8.8.8.8.8.8.8.8.8.8.8.8.8.y.'.q + O @ / 8.7.8.8.8.8.8.8.8.8.N.@X@X$XM V *X%X",
"c %X%X&XC /.f.8.8.6.5.5.6.5.5.7.7.<   + & 6 -.8.8.8.8.8.8.8.7.8.8.8.8.8.8.8.8.p.c.6 + O 1 *.7.8.8.8.8.8.8.8.8.7.m.@X@XoXV M V C ",
"%X%XV %X%XXXf.8.8.6.5.5.5.5.5.7.7.< O + % 6 5.8.8.8.8.8.8.8.8.8.8.8.8.8.8.8.8.n.).8 + o = 5.7.8.8.8.8.8.8.8.8.8.C.{.[.=XV %XC C ",
"-XV %X*XC |.f.8.7.6.5.5.5.5.5.7.7.<   O % 3 -.8.8.8.8.7.q.q.7.7.7.8.7.7.7.7.q.C.O.* % o > 7.7.7.7.7.7.7.7.7.7.r.S.T.)./.V V V *X",
"V C *XC V ^.h.8.7.7.6.7.6.7.6.7.7.< . 1 6 H w.8.8.n.n.n.n.d.p.n.d.d.d.p.p.n.N.S.e & + O S 6.F D F F F F D D F >.'.L.R.^.C C *X%X",
"%X%XC V V E.h.r.r.r.8.8.r.r.r.r.r.:.G >.5.7.7.7.>.+.@.@.o.+.o.o.+.+.o.o.o.+.@.X.H w 3 # F 7.5.5.5.5.w.w.e.e.h.Z._.L.`.M %X%X%X*X",
"&XC M &X%X&XT.v.D.V.C.C.D.D.F.D.D.C.C.C.N.b.d.3.w $ $ & $ $ $ $ & & $ $ $ $ $ * 5 H G F 5.p.n.b.N.C.D.G.{.{.{.{._.).R.m V %XV V ",
"*XV %X*XV M b Y.2.2.2.<.<.2.2.2.f.3.3.f.3.4.4.^ - - - - - - ; ; ; ; ; ; ; ; : : ; : A $.=.1.4.4.4.k.g.f.g.f.f.f.f.j.!.%XC -X&Xm ",
"M c -X;X*Xm C XXL.P.J.} } } ' L S S Z S Z G ~ ^ { { { ' { ] { { | | | | | ^ ^ Q ^ ~ Q ! Y U Y Y Y U U Q Q ..} P.J.W.V %XV %X-XM ",
"C C m C V M -X-X%XC %X*XV C c k x h s f d h L.}.|.N }.}.B }.|.(.B |.^./.x Q.=X/./.E.E.W.j i t y t i y r L.-X%X*XM C C %X%X%X-Xc ",
"%X%Xz C V &X%XV C V C %XC %XM C (.&XC %Xm %X%X*X*X*X%X%X%X&X%X%XC %XC &Xm %X;X*X%X%XC B V %XC C M }.C V *X-XC &Xm %XC C %X*X*XM ",
"-XC c &X&XV C M %X*X%XV %X*XM %X%X&X%X-X&X%XM %XC %XC %X%X%XM %X%X*X%X%XV C *XC M c M V %X%X*XC %XC C z m %XM C c %XC %XC C %X%X",
"*XV M %X-XV %XV M V V %X%Xm C %X%X%Xm M C %X%X&X%Xc %X%X%XC C &XV V c m M M %XC *X(.C C C C *X%X;X%X%X*XC C C &XC %XC V c m C &X",
"&X-XC V V C %X*XC %XC *X%Xm &XV V %X%XM %XC %XV -X%XM V V M %X%XV &XC V %XC %XM M C C M M %X*XC %Xc M C *XV C %XV %X%X%XV C V C ",
"C *X%X%Xc C V M *X%X-X*X*X%X%Xc C %XV V %X%X-XM %X%XM %X%XV C V C -X*X%X%X-X%X%XC M *X%XC C %X%X%XC *X%X*Xm C %X%XC c V &X%XV &X",
"C *X%X-XC V V C *XC %Xc %XV *XM %X%XV &XC m %X*X%X*XC %XM C *XV M %X%XV %X&XM M %X-XC %Xc C %XM C C %X%X%XM M M C -XC c %X*X%XC ",
"%X%XC C M %X%X%X*X*X&Xm %X%X*Xc C %X%X*XC C M %XM *XC %Xz %X%XV %X*XM V C M C M %X-XC %XC %X%XM M C %X%X*XC %X*XC *X*XC C M %X%X",
"V C V V %XC %X%XC V &X%XM V *X%X%Xm C -X%X%XV %X%XV z C *X*Xc C *XC C *X-X*X%XM %X-X*XM C C C %X%XC C V *X*X%X%XM %X%X%X%XC %XM ",
"C -XC V V C %X*XV M %X%XM %X%Xc %Xm %X%XC %X%XC %X-XV V C %Xz *X-X*X*X%X%X%X%XM C %Xc M %XC C *XC *XC %Xc M c M %XC C C %X-X%Xc ",
"V %X%XM %X%X%X*XV C &X*X*X*XV M %XV &XM C C V C C %X*X%Xc %XM C C M %XC c M -X-X%XC C *XC %X%XC M %X%X*XM M *XC %XV M %XC *X*X%X",
"%X%X%XM V C %X%X&X*XM V %XC M *X-X%XV V &XC C %X%Xz C -X%X-XC M %XM %X%Xc %XC M C M %X%X%Xc C C %XC %X%XM %X-X*X*X*XV *X%XC C %X",
"V &X*X&X%XC %XV V %XV V %XV %X%X*XC C %X%XV *X-X-XC %XC %X*XM c %X%X%XC C C c M C %X*XC *XM %X*X%X%X%XC %X%X%X%XC C c V M z C M ",
"m C V V C %XM %X%XC C M C V C c V C %X*X%X%X&XC %XM %X%XC %X%X%X%X%XM V -X%XC *X%X%X*X*X-X%X%X*XC C V M %X%X*X%XC %Xz C *X}.*XV ",
"-XC V %XV %X%X*XC M %XV %Xc C C %XC %XM M V C C C C %X-X%XM C V C *X*XV V -X*X*X%XC M C V m c C C c %X-XC M %X%XV *XM -X-X-X*XM ",
"-XV M %X%XC *X*X*XV %XV V V -X*XC %X-X%XM %XC V V C M C C C %XC %X%XC %XC M M m z C C C M %XV *X*XM M C V M %X*XM %XC %Xc M %X-X",
"C (.*XC %XV V M *X%X-X&X%X*XC &XB c C %XM *X%XM c C &XC C *X%XV C C C &XV V %X*XC %XC %XM %X*X%X%X%X%X%X%XC M %XC %XM %XC M %X%X",
"C %X-X%X*X%XC C C V V m M V V *XC %XC V C V %X%XC *X-X*XC %X*X%X%XC C *X%XM M ;X*X%X%X%Xz C *XC C %X%X%X%XM %X%XC %XC M C *X*XC ",
"C %XV V %X*XC &X*X%X%Xb %Xc C -X%X%XV %X*XC C %XV C *XC M %XC M C C %X%X%X%XC %XM C C *XM C V C *XC C C *Xz V *X-X%Xc m *X-XC %X",
"z m M C *X-XV C %XV %XC C M %X*X%X*XC -XV C C *XC %XC C %X*X%X%X%X%XC m M M C C V *X%X*XC %Xm %X*XC C %X%X%XC *X%XV %XM C %XC C ",
"%X%XC M V C V M M %XV C C %XC C M C %X-XM c C *XC %XM C M M %XC %X%X%XM %XM }.C C %XV %XM M M %XC C (.C C C M C *X%X%X%X%XC %X%X",
"-X*X%XC %XC %X*XC C C *X*X-X*X%X%XC C *X%Xm %X%XB M C V C C *X%XC V -X%X*X%X%X*X%X%X%X*XC C %X%XC %XC C *X%XM %XC M C *XC C C C "
};
