/* XPM */
static char *d56a1280e0614808ec859bd0d2e0f639RDKuWN3KHW3xCQix[] = {
/* columns rows colors chars-per-pixel */
"64 64 147 2 ",
"   c #7B5F5F",
".  c #646464",
"X  c #676767",
"o  c #686868",
"O  c gray42",
"+  c #6C6C6C",
"@  c #6D6D6D",
"#  c #7D6161",
"$  c #756F6F",
"%  c #7A6868",
"&  c gray44",
"*  c gray45",
"=  c #767070",
"-  c #747474",
";  c #777777",
":  c #797373",
">  c #7D7777",
",  c gray47",
"<  c #797979",
"1  c #7B7B7B",
"2  c #7C7C7C",
"3  c gray50",
"4  c #BF1111",
"5  c #BD1F1F",
"6  c #B23C3C",
"7  c #B73C3C",
"8  c #C21313",
"9  c #C21414",
"0  c #F10000",
"q  c #F10101",
"w  c #FE0303",
"e  c #FB0606",
"r  c #FD0404",
"t  c #F60A0A",
"y  c #F30D0D",
"u  c #F70C0C",
"i  c #F90A0A",
"p  c #EE1212",
"a  c #EA1616",
"s  c #EE1515",
"d  c #E81818",
"f  c #EB1919",
"g  c #F21111",
"h  c #F71212",
"j  c #F01717",
"k  c #CD2C2C",
"l  c #DA2626",
"z  c #D22929",
"x  c #D12F2F",
"c  c #D82828",
"v  c #CE3333",
"b  c #C73838",
"n  c #C43D3D",
"m  c #C93838",
"M  c #CC3939",
"N  c #CD3E3E",
"B  c #D13030",
"V  c #D53333",
"C  c #D03535",
"Z  c #D83030",
"A  c #E02121",
"S  c #E62121",
"D  c #805A5A",
"F  c #995959",
"G  c #A54D4D",
"H  c #AF4B4B",
"J  c #B64343",
"K  c #B44444",
"L  c #BC4646",
"P  c #B64B4B",
"I  c #B14D4D",
"U  c #A05A5A",
"Y  c #A75B5B",
"T  c #AB5B5B",
"R  c #AF5B5B",
"E  c #AD5C5C",
"W  c #B45050",
"Q  c #B45555",
"!  c #B15858",
"~  c #896262",
"^  c #886464",
"/  c #8A6666",
"(  c #8E6767",
")  c #846868",
"_  c #856969",
"`  c #8E6A6A",
"'  c #8A6E6E",
"]  c #8E6C6C",
"[  c #946060",
"{  c #956363",
"}  c #946D6D",
"|  c #9D6969",
" . c #9C6C6C",
".. c #817575",
"X. c #897272",
"o. c #8D7171",
"O. c #8F7474",
"+. c #857878",
"@. c #837D7D",
"#. c #8B7B7B",
"$. c #8B7C7C",
"%. c #8A7F7F",
"&. c #927272",
"*. c #957171",
"=. c #927676",
"-. c #967474",
";. c #9B7272",
":. c #9B7474",
">. c #937979",
",. c #907F7F",
"<. c #9C7878",
"1. c #997D7D",
"2. c #A96060",
"3. c #A26868",
"4. c #B26D6D",
"5. c #A07C7C",
"6. c #B27D7D",
"7. c #C24B4B",
"8. c #DB4949",
"9. c #E35757",
"0. c #838383",
"q. c #848484",
"w. c #868686",
"e. c #898383",
"r. c #8E8282",
"t. c #888888",
"y. c #898989",
"u. c #8B8B8B",
"i. c #8F8989",
"p. c gray55",
"a. c #948080",
"s. c #908C8C",
"d. c #8E9090",
"f. c #909090",
"g. c gray58",
"h. c #959595",
"j. c #989696",
"k. c #989898",
"l. c #9D9D9D",
"z. c #9F9F9F",
"x. c #A0A0A0",
"c. c gray64",
"v. c #A7AAAA",
"b. c #A9A9A9",
"n. c #D4A3A3",
"m. c #CBCBCB",
"M. c #CDCBCB",
/* pixels */
"3 < 3 w.< 0.@ 3 ; w.3 w.3 w.u.; 3 0.@ < < ; 3 d.w.w.< < 0.< < < * 3 u.0.0.* < 0.0.t., 2 @ , - u.3 2 3 3 u.3 u.0.3 w., 3 0.; 3 2 ",
"p.0.3 w.w.p.; 0.* ; @ < < < 0.< p.< < w.3 < 0.3 ; 3 - @.0.3 u.3 @ 3 w.@ 3 * u.0.3 u.0.0.2 3 3 < @ 3 0.3 - 0.u.@.< 3 3 0.3 < 3 ; ",
"0.< < < * < * < * w.3 3 0.0.3 0.0.O w.p.< u.u., 0.u., , 3 w.d.h.u.u.0.< 0.< 0.@ 3 2 O @ < h.0.0.- , u.w.@ 3 u.0.- < < 3 3 0.3 2 ",
"< @ 3 f.0.; 3 w.3 < ; w.w.f.w.u.u.< * 1 1 u.@ @ 3 u.u.0.< u.< 3 < < < 0.u.u.3 , i.@ 3 , 3 h., , - u.u., w.w.< 3 < 3 2 0.< 0.u.t.",
"w.* ; 3 < 3 p.< w.0.w.w.< < @ < 3 ; O * w.< ; w.3 < - 3 0.0.O < 3 3 3 3 3 2 w.u.u.1 k.u.u.u.3 < 3 , < 0.d.3 ; @ @ 0.3 3 < u.< - ",
"; 0.p.* 3 w.3 X < < * ; * ; w.p.1 w.0.3 3 * < < 0.< , 3 3 d.< ; < 3 3 0.0.3 0.w.< 0.p.* < < u.3 0.< w.d.2 , u.w.2 3 3 3 0.w.& 3 ",
"0.0.h.< 0.; @ < 3 u.3 < 3 0.w.< < f.u.u.0.< u.< < < < 0.0.u.3 ; w.u.3 3 3 0.* < @ < 3 3 u.0.w.; 3 3 2 t.* 3 u.d.d.w.0.0.2 3 - 0.",
"3 3 p.3 w.; 3 p.0.< u.f.3 w.< @ w.< 3 3 3 0.s.3 3 w.< u.0.< 3 - < 3 O @ < u.2 w.< 3 3 , * * ; O 0.< w.d.3 < < * ; < < 0., 0.w.2 ",
"O 3 u.w.p.0.0.0.u.O ; p.0.w.w.@ < p.3 u.; < d.0.& @ @ 0.w.; u.O < u.0.< w.w.; * * 0.; < ; 3 u.< 0.; * 0., 3 0.0.0.< w.u., < 2 3 ",
"* < 3 < w.< ; ; p.w.@ 3 3 p.3 < f.b.0.F 6 L 7.W r.3 & w.p.; 0.* w.h.p.p.; 0.< 0.3 w.< 3 3 u.u.t.u.< ; 0.3 w.; * & < 3 w.u.0.* 0.",
"< < w.u.< 3 0.3 3 < 0.w.< 0.* i.5.n.6.x r r r y E  .#.@.f.w.0.; ; 0.< p.0.< 0.d.t.0.-.F | ] 3 < w.< @ - w.u.3 * 2 0.3 - 3 h.u.p.",
"0.0.0.< O 0.p.p.u.0.u.; ; 0.< >.5 s h r r r r r u s R 0.3 ; * * 3 3 3 ; 3 * 3 0.* % v g u v #.< < 3 0.3 3 3 w.; 0.w.< & 3 u.3 3 ",
"w.w.0.0.; 0.3 3 ; ; 0.< < p.u.o.8 0 r r r r r r e r f 2.; 3 u.3 3 ; p.w.f.0.< o.M c u r r t n %.< < < 3 d.3 , 3 < u.0.3 u.3 @ , ",
"3 0.< w.0.w.3 * 0.u.< 3 ; < 0._ 8 0 r r r r r r r r r V { @.3 u.< , 0.u.w.&.Q 7 y r r r r r s I ..0.* w.u.; 3 0.0.w., w.0.< 0.3 ",
"f.0.3 ; 3 3 ; 3 p.0.; u.< 0.w.o.8 0 r r r r r r r r r r C ;.D ( } :.} ~ } P i r r r r r r r r a :.w.< u.d.3 3 3 < < , 0.; w.w.@ ",
"w.* u.< ; * 3 f.w.u.< 0.O < *   8 0 r r r r r r r r r r t j p g s s s s a y r r r r r r r r r p -.u.; @ * - , w.< < , 3 , u.0.@ ",
"u.< 0.3 3 ; 3 0., , @ - * 3 0.) 4 q r r r r r r r r r r r r r r r r r r r r r r r r r r r r r a 1.h.u.w.@ 3 0.3 3 0.< w.< 3 w.; ",
"3 * < @ * 3 < ; 0.w.3 3 3 ; 3 >.4 q r r r r r r r r r r r r r r r r r r r r r r r r r r r r r a ( 3 < p.w.w.3 u.* < 0.0.0.3 0.; ",
"< 0.f.; 3 p.u.< 3 0.w.3 ; 2 0.=.4 q r r r r r r r r r r r r r r r r r r r r r r r r r r r r r s / @.u.; 0.u.3 < * w.0.; w.3 < 3 ",
"3 0.p.p.f.0.u.< 0.* 2 3 u.0.u.) 9 q r r r r r r r r r r r r r r r r r r r r r r r r r r r r r a -.1 @ ; u.d.0.* w.w.; 3 u.0.w.u.",
"; < < < u.< 0.3 0.2 w.3 0.< @._ 8 0 r r r r r r r r r r r r r r r r r r r r r r r r r r r r r p &.3 3 0.< < < 3 p.3 ; 0.u.w.p.3 ",
"* 3 0.; ; w.< 0.0.2 2 - 0.0.u.1.9 0 r r r r r r r r r r r r r r r r r r r r r r r r r r r r r g ` $ 3 < ; @ u.p.0.3 3 < 3 @ 3 0.",
"* ; 3 w.* O < 3 3 u., 0.3 2 , ' 8 0 r r r r r r r r r r r r r r r r r r r r r r r r r r r r r d -.2 w.3 u.; @ < < 0.0.u.< < u.3 ",
"w.0.* 0.; 3 w.3 O - 2 0.< - < o.9 0 r r r r r r r r r r r r r r r r r r r r r r r r r r r r r s :.u.d.u.u.3 < w.< 3 < 3 ; < u.w.",
"< u.3 3 ; w.3 w.; < 3 3 w., 3 ' 9 0 r r r r r r r r r r r r r r r r r r r r r r w w w w w w r p } 3 0.* ; * 3 < u.3 < @ 0.; 3 < ",
"; ; u.p.; w.; 0.< u.w.p.3 , w.' 9 0 r r r r r r r r r r r r r r r r r r r r r r w w w w w w r a ] w.u.3 ; 0.u.3 3 * u.3 u.u.u.0.",
"w.< < u.* 0.p.u.3 0.; < 3 w.3 # 8 0 r r r r r r r r r r r r r r r r r r r r r r w w w w w w w s / ; < 0.; u.u.< < 3 < 0.< 0.; 3 ",
"u.p.0.w.0.@ ; 0.@ @ ; < u.0.< _ 8 0 r r r r r r r r r r r r r r r r r r r r r r w w w w w w w a -.* 3 w.; 3 3 0.< w.0.0.0.u.0.0.",
"@ ; < 0.3 * ; p.; * w.< 0.u.w.a.I 9.8.a r r r r r r r r r r r r r r r r r r r r i z N M M l r a ~ < w.p.w.0.< w.0.0.w.< * < * ; ",
"3 ; < 3 0.0.0.u.0.< 0.; ; 3 w.< h.M.c.J a g r r r r r r r r r r r r r r r r r r S { < @ w.F d d / * 3 w.< 0.@ < * ; < < @ 3 w.* ",
"u.< 3 w.w.* 3 3 3 ; 3 0.w.; 3 0.g.M.c.+.o.H t e r r r r r r r r r r r r r e r p 3.i.i., 0.1 T d -.u.f., * ; u.w.3 0.< 3 ; w.d.3 ",
"u.< * < u.* 0.0.0.; 3 ; 0.0.3 u.j.M.b.; @ _ R K i r r r r r r r r r r r l ! G Y ..; w.0.w.< ,.4.r.w.3 @ w.; 0.f.w.< < ; ; w.p.< ",
"0.3 ; < u.* ; p.w.@ 3 0.0.3 u.w.l.m.c.0.- 0.k.o.b x x k x x B B z k x V G 3 , 3 @ 0.; 0.u.< @ ; ; ; < p.p.@ 0.p.< < 0.u.< ; w.; ",
"; 0.< 0.u.< w.f.0.@ 0.w.0.O ; < k.m.x.2 , 0.g.0.1 > @.1 $ * @.> > : > e.< 0.2 p.< 0.< ; 0.p.w.; < < ; u.* O 0.< 0.u.0.u.* < u.3 ",
"@ 0.3 u.3 3 * ; d.< 3 < 3 O 3 h.k.m.x.3 0.3 u.w.t.< * 1 , 0.u.< w.@.u.w.; @ ; u.3 u.< w.* * 0.0.; 3 3 w.< w.0.X < u.3 u.; * ; 3 ",
"w.0.< 0.0.u.3 0.u.; 0.< w.* < u.g.m.k.t.< 0.0.< s.0.* w.0.3 w.< w.* 3 0.0.2 u.f.3 * < d.w.0.3 3 * 0.< 0.f.k.p.3 0.h.w.u.; 3 3 3 ",
"d.; 0.w.3 0.; * 3 3 u.w.3 w.u.0.k.m.c.d.3 < 3 3 $ * 0.3 u.3 3 3 u.0.0.u.u.u.w.h.3 @ w.0.* 3 * - * ; < u.w.3 < < ; 0.* ; ; ; ; u.",
"; 3 u.3 < 3 w.3 ; 3 0.; * 0.; * k.m.v.; 3 u.3 u.* 3 p., < 3 3 w.0.w.3 < - * * w.@ , 3 w.0.3 3 u.3 u.@ * < < 3 < u.3 w.; 3 3 w.3 ",
"0.w.3 < < ; 0.u.; 3 u.0.0.3 3 3 z.M.z.* d.f.3 0.< t.0.w.; 0.3 , < 0.3 O , O ; u.0.3 3 - @ u.u.f.w.p.3 0.w.< 0.< 3 * w.* 3 w.w.w.",
"w.3 * 0.0.w.3 w.; < f.< < 3 3 u.h.M.k.w.3 0.< 2 3 * X 3 0.u.w.0.; 3 d.3 i.3 w.p.u.0.w.< 0.f.; 3 * ; * w.3 0.0.w.u.3 w.* < 0.< < ",
"w.; 0.p.< * @ u.0.h.0.3 u.w.; 3 k.m.z.3 ; & 2 2 3 3 3 ; 3 ; ; 3 - ; ; 2 0.3 w.< 3 @ < < 3 3 3 w.< ; w.u.; < @ * * ; 3 3 3 p.u.* ",
"; @ p.k.p.* 3 p.< 3 @ @ < w.< w.z.m.c.2 t.- 0.3 w.< 3 , 3 < 3 0.< 3 < 0.0.; 0.O 3 ; 3 w.0.< < w.< u.u.< 3 < < w.@ 3 < 0.; 0.p.* ",
"3 3 @ < ; * f.f.3 < 0.u.; < < < h.m.c.- * 3 < w.w.; 0.0.3 3 u.0.< w.0.w.O 3 h.0.0.3 < 0.< < , < 0.h.< @ w.h.w.u.* < 3 w.3 0.f.* ",
"0.3 X 3 < w.0.< 3 < < w.< 0.* 3 k.m.z.0.@ 0.3 u.p.u.0.0.0.u.3 3 2 0.3 w.- 0.h.u.w.0.3 < ; w.0.u.3 u.w.< p.f.< w.* 3 < < 0.u.u.; ",
"p.3 O u.w.3 3 @ 0.u.0.< 3 u.< w.k.m.c.d.u.2 < 0.3 3 3 w.0.3 * w.0.u.0.3 < < u.< * @ @ < w.0.w.3 0.3 3 X @ 0.; < @ w.3 0.< 3 0.0.",
"u.< * 0.p.< w.; ; < ; 0.0.* < 0.z.m.k.* < 0.3 u.w.@ 3 0.0.3 < u.< < @ - - ; 0.3 w.3 3 3 < < w.0.h.0.w.0.< 3 3 w.< 0.< ; @ * < w.",
"u.f.< < ; 3 0.u.3 3 < u.w.@ 0.; h.m.x.; 0.2 0., d.0.* < ; ; 0.3 ; u.3 < 0.< w.; < < 3 * < 3 u.3 w.O ; 3 u.; < 3 < w.0.0.; 3 < 3 ",
"3 w.3 w.O 3 ; * w.u.d.u.u.w.u.; h.M.z.< 0.0.d.- 3 0.* 0.w.< < ; 2 u.u.3 0.d.0.0.; ; w.0.3 3 w.0.0.3 0.0.u.* 3 0.0.3 O < w.3 ; w.",
"3 w.0.h.< ; ; < p.3 0.@ 0.< u.; k.M.z.u.2 * 0.u.3 u.< 0.; < u.< * w.0.; 3 w.* < w.p.< 0.@ < 0.< ; < 0.0.w.* ; ; < p.3 O 0.p.0.; ",
"0.0.< 3 * 0.w.0.w.u.w.* 0.0.u.* k.m.c.u.3 , , 0.< u.3 3 O 3 t.; 0.w.; < 3 ; 3 @ 3 h.3 w.< 0.0.* ; 3 0.0.u.3 w.w.< u.w.3 < ; 0.0.",
"< 3 ; < 0.3 0.0.3 ; w.0.; * p.0.k.m.x.u.3 0.< 3 0.< o 3 w.u.@ < p.3 3 w.f.u.w.@ w.h.w.; 3 3 3 3 3 3 3 ; w.p.w.u.< 0.3 0.0.3 0.* ",
"3 p.3 ; < < w.u.< ; 0.3 * 3 w.; k.m.c.0.2 3 0.3 0.u.< - 2 0.O u.f.w.p.3 w.0.u.; < 3 O ; 0.< ; p.3 u.< 0.@ * O @ 0.3 < 0.0.f.0.@ ",
"; 0.0.* 0.3 0.u.; 3 0.p.u.w.< ; h.M.b.* < < ; 3 3 w.u.0.@ w.* < 3 ; 0.< * * f.p.w.< < u.3 3 3 0.@ 0.w.w.@ < u.3 w.; ; 0.3 u.u.0.",
"3 0.w.* ; 3 3 w.w.w.; < w.3 ; u.z.M.z.< w.3 < w.0.X 3 d.w.u.3 ; 0.* w.0.@ 3 < ; < < w.w.0.@ 3 < 0.3 0.w.* 0.f.u.u.w.< w.w.3 ; 0.",
"; u.u.w.0.3 3 ; < 0.; ; w.; 0.w.k.M.z.0.u.; u.p.d.2 3 3 0.p.; * 0.w.0.3 3 < O * < 0.u.3 u.* w.u.w.0.0.< 0.0.0.3 < < O ; * X ; * ",
"* < ; ; 3 0.* 0.w.< 3 ; < * 3 * h.m.c.p.w.3 u.< 0.- 0.0.3 3 3 3 0.w.@ ; f.u.< p.w.w.w.w.f.0.0.u.3 < ; ; w.0.u.w.3 w.O < u.0.u.< ",
"p.0.; 0.; 0.w.p.< ; 0.< 0.@ 3 3 h.m.z.; * ; 3 3 < 3 0.f.w.* < ; < p.w.; < f.p.u.0.3 * < ; @ @ 3 ; O w.f.3 * 0.w.; u.< p.f.f.w.< ",
"p.< * w.0.< p.w.w.< 0.; ; ; p.u.0.h.k.w.; 3 < ; < < ; < 3 3 0.< w.w.3 0.< ; * * O < < 3 ; 0.< w.p.; ; < ; ; 0.w.* w.< 0.* ; 0.p.",
"3 < p.3 0.< ; * u.0.f.w.0.u.0.w.3 O 3 3 * u.0.* @ 3 w.3 < w.u.; < ; 3 w.; ; w.w.< 0.3 3 @ 0.w.0.0.0.3 0.3 3 < 0.< 3 ; 3 < * w.w.",
"< u.p.0.p.0.3 < 3 < ; * * ; ; u.< 3 < ; < < w.0.3 w.f.u.3 0.w.0.0.3 3 w.w.* ; k.u.w.0.w.O 3 u.3 < 0.0.0.w.* 3 0.< u.< ; 3 u.u.0.",
"3 0.; ; 0.u.3 0.w.0.0.* w.O < h.w.0.; w.u.< 3 0.; 3 w.< * 0.3 ; 3 3 0.0.w.w.3 0.* 3 3 w.* 3 < 3 p.3 3 < w.O ; u.f.0.@ * w.f.3 0.",
"X @ * 3 p.u.; 3 0.; 0.< 3 * 3 u.w.w.3 p.< < < u.3 3 < 3 3 u.w.3 < 3 3 * * * < ; < u.w.w.< 0.@ 3 u.< < w.0.0.< p.w.; w.* < 0.< 3 ",
"3 0.3 * < 3 ; * ; 0.; 3 3 0.< 3 ; < w.f.; O 3 u.3 w.; < * ; 0.3 w.0.w.* 0.* 3 3 3 3 ; w.* ; * 0.< 3 0.3 < 3 ; < u.3 0.0.3 3 0.0.",
"f.u.0.3 0.3 w.u.< 3 < u.p.f.u.0.u.< < p.w.@ 3 3 ; ; 3 < < 3 u.3 3 ; p.0.p.0.0.u.0.0.3 u.< 3 3 0.3 w.< < u.0.; 3 3 ; < w.3 3 3 < "
};
