/* XPM */
static char *_70c9e0f540246a580b8b2bf90f2ca43PKPydokYmYxtTBuO[] = {
/* columns rows colors chars-per-pixel */
"64 64 184 2 ",
"   c #371F15",
".  c #3C240D",
"X  c #38251F",
"o  c #3D2A20",
"O  c #3F2D22",
"+  c #472D0C",
"@  c #462D15",
"#  c #462F1D",
"$  c #4E3510",
"%  c #43301C",
"&  c #4A3118",
"*  c #49331E",
"=  c #573D1C",
"-  c #402C21",
";  c #422F26",
":  c #433023",
">  c #443227",
",  c #523D27",
"<  c #453331",
"1  c #433532",
"2  c #483A37",
"3  c #4C3C3C",
"4  c #5F4717",
"5  c #59441E",
"6  c #634A13",
"7  c #604815",
"8  c #765B10",
"9  c #57452A",
"0  c #594732",
"q  c #5B4834",
"w  c #51443B",
"e  c #654B22",
"r  c #664C23",
"t  c #6E5527",
"y  c #6D5C25",
"u  c #735E26",
"i  c #755C2C",
"p  c #755E2C",
"a  c #634F35",
"s  c #78602F",
"d  c #7C622C",
"f  c #796231",
"g  c #574846",
"h  c #554A49",
"j  c #534D4D",
"k  c #545050",
"l  c #5A5151",
"z  c #5F5656",
"x  c #5E5858",
"c  c #605755",
"v  c #605858",
"b  c #675C59",
"n  c #675F5F",
"m  c #6F624F",
"M  c #626262",
"N  c #676262",
"B  c gray40",
"V  c #676767",
"C  c #6A6767",
"Z  c #6E6564",
"A  c #686868",
"S  c gray42",
"D  c #6F6B6B",
"F  c #6C6C6C",
"G  c #6D6D6D",
"H  c gray43",
"J  c #6F6F6F",
"K  c #706E69",
"L  c gray44",
"P  c #717171",
"I  c #737272",
"U  c gray45",
"Y  c #747474",
"T  c gray46",
"R  c #777777",
"E  c #797575",
"W  c gray47",
"Q  c #797979",
"!  c gray48",
"~  c #7B7B7B",
"^  c #7C7C7C",
"/  c #7E7E7E",
"(  c gray50",
")  c #907910",
"_  c #957D10",
"`  c #967C10",
"'  c #977C11",
"]  c #856E36",
"[  c #8B7233",
"{  c #8A7136",
"}  c #967D38",
"|  c #957C3C",
" . c #987E39",
".. c #827C7C",
"X. c #A58C12",
"o. c #B59C13",
"O. c #B69D12",
"+. c #B49A15",
"@. c #B89F15",
"#. c #BDA313",
"$. c #B9A018",
"%. c #BFA718",
"&. c #A2883A",
"*. c #C4AC13",
"=. c #C7AE14",
"-. c #CFB514",
";. c #CEB614",
":. c #D1B814",
">. c #D2BA15",
",. c #DCC316",
"<. c #DDC516",
"1. c #E0C816",
"2. c #E1C916",
"3. c #E7CF17",
"4. c #E7CF18",
"5. c #E8CF18",
"6. c #E7D017",
"7. c #E8D016",
"8. c #E8D017",
"9. c #E8D018",
"0. c #E8D01F",
"q. c #DFC73A",
"w. c #E8D020",
"e. c #E9D223",
"r. c #EAD228",
"t. c #EAD22D",
"y. c #ECD42F",
"u. c #EBD330",
"i. c #ECD434",
"p. c #A28740",
"a. c #AA9141",
"s. c #AC9342",
"d. c #B19740",
"f. c #BDA349",
"g. c #C6AD4D",
"h. c #C9B04E",
"j. c #D2B951",
"k. c #D4BB53",
"l. c #DEC558",
"z. c #EFD745",
"x. c #F1D94C",
"c. c #E2C959",
"v. c #E2CA5A",
"b. c #E7CE5C",
"n. c #E8D05C",
"m. c #EAD15D",
"M. c #EBD35D",
"N. c #ECD45E",
"B. c #EED55F",
"V. c #EED65E",
"C. c #F1D952",
"Z. c #F2DA53",
"A. c #F2DA59",
"S. c #F3DB5A",
"D. c #F3DB5D",
"F. c #F4DC5E",
"G. c #F3DB61",
"H. c #F4DC60",
"J. c #F5DD60",
"K. c #F4DC61",
"L. c #F4DC62",
"P. c #F5DD62",
"I. c #808080",
"U. c gray51",
"Y. c #838383",
"T. c #848484",
"R. c #868686",
"E. c gray53",
"W. c #888888",
"Q. c #898989",
"!. c #8B8B8B",
"~. c gray55",
"^. c #8D8D8D",
"/. c #8E8E8E",
"(. c gray56",
"). c #909090",
"_. c #929292",
"`. c #939393",
"'. c #959595",
"]. c gray59",
"[. c #979797",
"{. c #989898",
"}. c gray60",
"|. c #9B9B9B",
/* pixels */
"( Q ( R.Q Y.G ( R R.( R.( R.!.R ( Y.G Q Q R ( ).T.T.Q ~ Y.Q ~ Q U ( ~.Y.( U Q Y.T.~.R Q G Q R Q.( ~ ( ( Q.( ~.T.( R.R ( Y.U ( Q ",
"~.Y.( R.R.~.R Y.U R G Q Q Q Y.Q ~.Q Q R.( R Y.( R ( U ( Y.~ ~.( G ( R.L ( U Q.Y.( R.Y.T.Q Y.( Q G ( Y.( U R.~.( ~ ( ( T.Y.R ( Q ",
"Y.Q Q Q U Q U Q U R.( ( Y.Y.( Y.T.G Y.).Q ~.Q.R Y.~.Q Q ( R.).'.Q.R.Y.Q Y.Q T.G ( ~ G G Q '.T.Y.R ~ W.R.G ( Q.Y.Y Q Q ( ( T.( ~ ",
"Q G ( ).Y.R ( R.( Q R R.R.).R.!.Q.Q Y Q ( R.Y G ~ ~.Q.Y.~ Q.Q ( ~ ~ Q Y.Q.~.( Q ~.Y ~ ~ Y.).R Q U Q.~.Q T.R.~ ( R ( ( Y.Q Y.~.W.",
"R.U R ( Q ( ~.Q R.Y.R.R.Q Q G Q ( Y G U T.Q R R.( ~ Y ( T.( S Q ~ ( ( ( ( ~ R.~.Q.~ }.~.~.Q.Y.Q ( Q Q T.).( Q G S Y.( Y.Q R.( U ",
"R Y.~.U ( R.( V Q Q U R U R R.~.~ T.T.( Y.U Q Q Y.~ Q ( ( _.Q R ~ ( Y.T.T.( ( W.R R.~.G ~ ~ R.( Y.Q R.).( Y Q.R.Q ( ( ( R.Y.L ( ",
"Y.Y.'.Q Y.R G Q ( !.( Q ( Y.R.Q ~ ).~.W.( ~ W.Q Q Q Q Y.T.Q.( Q T.~.~ ( ~ T.Y ~ G Q Y.( R.R.R.R ( ~ ( W.L ( ~.).).W.T.Y.( Q U R.",
"( ( ~.( R.R ( ~.Y.Q !.).( R.Q G R.~ ( ( ( T.).( ( R.Q W.Y.Q ( Y ~ ~ G G ~ Q.( R.R ( ( Q U L R G Y.Q R.~.( Q Q U R Q Q Y.R Y.R.~ ",
"S ( !.R.~.Y.Y.Y.!.S R ~.Y.R.R.G Q Q.( Q.Q Q ).( Y G G T.R.R W.S ~ Q.( ~ T.R.R U L Y.R Q Y ( ~.Q Y.R U T.Q ( T.( Y.R R.W.Q Q ~ ( ",
"U Q ( Q R.Q R R ~.R.G ( ( ~.( R R.R.G Q G Y.Q.Y.W.~ U T.).R R.U W.'.~._.R T.~ T.( R.Q ( ( Q.~.R.Q.Q Q T.( W.R U U Q ( R.~.T.U T.",
"Q Q R.!.Q ( Y.( ( Q Y.R.Q Y.U ~.).R Q R.Q R ~ Q R.R.T.( ).R.Y.Q Q ( Q ~.T.Q Y.).W.Y.R.Q Y.~ ( Q R.Q G Y R.Q.( U ~ Y.( U ( }.W.).",
"Y.Y.Y.Q S Y.~.~.!.Y.!.R R Y.Q !.Q G Y.( U Y Q Q Y.( Q.Y.( U Y U ( ( ( R ( Y ~ ( Y G Y.( Y.Y.Y.Q Q ( T.( ( ( R.R Y.R.Q L ( ~.~ ( ",
"R.R.Y.Y.R Y.( ( R R Y.Q Q ~.!.Y.Y.( ( T.Y.Q ( T.T.Q Q.R.Q ( Q.Q ( Y ~.R.).T.Q ( R.~ ( ( ( Q ( T.~ ~ Q ( ).( Q ( Q ~.T.( ~.( G R ",
"( Y.Q R.Y.R.( U Y.!.Q ( R Q Y.Q Q ~ R.( R.R.T.Q.R U R.~.~ ( ( ~.~ Q T.~.Y.Y.R.Y R G Q Q.~.R.Q Y.Q T.U T.~.R ~ Y.( R.~ R.Y.Q ( ( ",
").Y.( R ( ( R ( ~.Y.R !.Q Y.R.R.R R.Q.R Q R U Q Q Q T.~.R.R.S Q ( Q.( Y ( ( Q.( Y.R ( ( R Y.Q Y.W.R.Q Q.).( ( ( Q ~ Q Y.R R.Q.G ",
"R.U !.Q R U ( ).R.!.Q Y.S Q U G Y R.~.G L ( ~ ( ( ~ Y.Q U ~.Y.T.( W.R.( ~ ~ ( ( R.( W.R Q W.( R R.Q.Q G U U Q T.Q Q Y Y.Q W.Y.S ",
"!.Q Y.( ( R ( Y.R Q G U U ( Y.( R ( '.R.( ~.!.Y.!.( ^ Q Y.R.R T.U U Q ~.Q.Q ( Y.R.Q Y.L Y.Y.Q Y ).).~.W.G ( Y.( ( Y.( Y.Q ( T.R ",
"( U Q G U ( Q R Y.R.( ( ( R ( !.R Q ).!.( ( R.U R R ^ Y.Y.( ~ Q.Q Y.( ( ( Y.R Q ( ~ T.Y.Q.Y ( Y Q ( ~ ).R.R.~ ~.Y Q ( Y.Y.( T.R ",
"Q Y.).R ( ~.!.Q ( Y.R.Q R Q R.!.S Y.R.G ( R.Y.!.~.Q Q Y.^ ( k o U R U U R.~.Y.( Q ( Q R T.R Q.~ R ( R.Q T.~.( Q L R.( Q R.( Q ( ",
"( Y.~.~.).Y.!.Q Y.U ( Y.!.Y.R.Q Q Q Y.( ~.Q V Q ( G W I.U W w ) k Q Y.~ R.~ ( ~ S R U ~ W.~ Y.Q T.~ G R Q.).Y.L W.R.Q Y.~.T.R.Q.",
"R Q Q Q !.Q Y.( Y.Q R.( Y.Q Y.Q R.( Y.( Y.( M Q I.T.Q R.R.b o.1.2 p.I.~ Y.Q ~.Q.L Y.R.~.).Q.( ( Y.~ ( Y.R ~ ~ T._.( R Y.Q.W.~.( ",
"U ( Y.R R R.Q Y.Y.( ( U Y.Y.!.~.Y.U Y.R.( Y.S Y.Q.U.~.).E 5 7.3.' x I.T R G Y.~.Y.( Q.Y.Y.Q ~ ( Q R ( ~ R G R.~.( ~ ( Q ~ G ( T.",
"U R ( R.U S Q ( ( !.R Y.( Q Q Y.Q Q Y.R.G R U Q R.p.( R X #.7.9.,.; k / ~ Q Y.Y.Q R ( Y ( Y.( Y.Y.~ R.( ~.Y G Q ~ ( Y.~.~ ~ Q.( ",
"R.Y.U Y.R ( R.( S U Q Y.( U Q R.R.R.Q !.Q Y.Y.Q W R R K %.3.9.7.w.@.1 E.~.Q R.~.T.~ T.( Y.Q R ( ~.~.).W.~.( ( Y.~ ( Q ( Y ~ ~.R.",
"Q !.( ( R R.( R.R Q ( ( R.R ( ( Y.R.~.!.!.!.Q !.R R.Q y 1.9.7.9.w.i.&.A Y.L Q Q G ( R.R.Q Q.~ Y.( ~ ( Y Y Q ( ~ Q.( ~ L ( Q T.Q ",
"R R !.~.R R.R Y.Q !.R.~.( Q R.( ( Y.Q R Q R.R.).Y.Q g o.7.9.9.7.w.D.M.0 Q U R.S ~ ).Q R.R Q G ( ( Q.~.( R ( Q.~ ( L Q.( W.Q.Q.( ",
"R.Q Q !.U Y.~.!.( Y.R Q ( R.( G G Q Y.R.( Y.( !.R S + <.9.7.7.4.i.G.F.[ 2 Q R.T ( Q.Q G Q Q.~ ( ~ R Q Y.Q Q.~.~ ~ Q Q Y.~ ( Q ( ",
"!.~.Y.R.Y.G R Y.G G R Q !.Y.Q ( R ( R R ( R.Q U R : =.5.7.5.7.4.A.G.K.n.s z R.Q ( W.( Y R.R.Q T.Y.U ( R.Q ( ( ( ( R.R.T.T.Q.T.R.",
"G R Q Y.( U R ~.R U R.Q Y.!.R.!.R.R.~.( Y.( R.U j _ 7.9.7.9.4.z.P.P.P.P.V.> / Q T.Y Q.( ( U ( ( Y ~ R.~.T.T.Q R.Y.R.T.Q Y Q U R ",
"( R Q ( Y.Y.Y.!.Y.Q Y.R R ( R.R Q R R.Q R R ~.Q 9 1.3.9.9.7.u.J.P.P.P.P.J.| ..Q Q.( Q G R.( ( Q R U ( R.~ Y.L Q U R Q R G ( R.U ",
"!.Q ( R.R.U ( ( ( R ( Y.R.R ( ( G R Y.( Y.Q Y.2 X.7.9.7.7.0.A.J.P.P.P.P.J.b.% V R.~.~.Y Y.Q R.( R.W.).Q U R W.R.( Y.Q ( R R.).( ",
"!.Q U Q !.U Y.Y.Y.R ( R Y.Y.( !.R R.!.R S R D $ 1.7.7.9.5.y.J.J.P.P.P.J.J.L.a.3 ~ Y W.T.R.Q Q.'.W.W.( G T.R T._.R.Q Q R R T.).Q ",
"Y.I.Q ! E.Y Y E.I.J I.Y.Y.( E.T.R.R.R.R.Y R., *.9.7.9.9.w.Z.P.P.P.P.P.P.P.P.L.i k T.R Y.!.~ G R R Y Q ~.~.L / ~.Q Q T.!.Q R R.R ",
"R I.! T.(.^ E.].E.J Y.T.I.G Q Y ^ Q Q U.Q v +.3.7.9.9.4.Z.P.P.P.P.P.P.P.P.P.J.N.q E.Q R Y.~.E.R Q ~ R !.U S T.Q T.~.Y.!.L ~ ~./ ",
"J Y.I.E.I.I.L Q (.R ( ! Y.G I.`.^ ^ Q p.T.; :.3.9.7.4.e.J.J.P.P.P.P.P.P.P.P.P.L.f ..^ T.U U R.T.R ~ I.R.Q T.T.V Q !.I.!.R Y R I.",
"E.Y.R T.T.E.I.Y.~.Y Y.Q E.L ^ E.Q A W R.I 6 3.3.7.9.4.z.P.P.P.P.P.P.P.P.P.P.P.P.d.1 Q '.R.I.~ I.Y Y.~ Y.'.'.~./ Y.`.R.!.Q / ^ / ",
"(.Q Y.E.( I.R Y I.I.!.E.^ E./.( R.A T.~.n ) 3.3.9.7.9.x.P.P.P.P.P.P.P.P.P.P.P.P.l.o T...T ( U U U R Q !.R./ Q Q R T.Y R R R R !.",
"Y I.!.I.! ! E.( R I.Y.Y L Y.R G R.Q Q.U h X.3.5.7.9.4.Z.P.P.P.P.P.P.P.P.P.P.J.g.l.# W R.Y.( ( !.I.!.L U Q Q / R !./ R.Q / I.E.I.",
"I.E.( R ^ Q E.E.! ^ !.Y.T.I.I.^ W.Q ^ Y Z ` 7.9.7.9.9.Z.P.P.P.P.P.P.P.P.P.P.L.i j.o ( T S ).~.).R.~./ Y.T.R T.~ / Y T.U / R.R.R.",
"E.I.Y ( I.E.I.T.Y ! `.! ! ^ I.E.R.^ W R.U 8 4.7.9.7.9.z.P.P.P.P.P.P.P.P.P.J.k.} g.< R.Q I.).R ( U R Y R.I.T.Y.E.~./ T.Y Q T.Q Q ",
"E.T I.(.! Y J E.Y.].Y.! ).I.Y ( T.^ Q I.R X q.<.9.7.9.u.J.J.P.P.P.P.P.P.J.M.= g.{ j Q Q ( ( ( R./ R R.E.Y Q G Y U R / I./ !.!.U ",
"Y L !.|.Q.L ( ).Q I.G L ! E.^ I.`.R.U.^ !.k +.<.7.9.7.4.A.J.P.J.P.P.P.P.K.s.| N.a I I.R.( Q Q R.Q !.!.Q I.~ R R.G / Q Y.Q Y.~.U ",
"I.( J ! Q P `.(.I.! Y.~.T ! T Y R.U.Q U G U 4 ;.4.7.7.7.t.D.J.J.J.L.P.B.h.r b.&.c Q Q T.Q ^ T ^ I.'.Q L R.'.E.~.U Q I.R./ R.).U ",
"T.( B / ! E.I.! ( T ! E.^ Y.Y ( ^ R.^ R.U E.N * #.7.5.7.9.r.J.J.P.L.v.t d v.s h T.Y.( ^ W R.Y.R./ !.Y.Q ~.`.Q R.U / Q Q T.~.!.Y ",
"!.( G Q.E.^ ! L Y.E.T.! ( !.R Y.R.R.Y.(.E.( R R * ;.7.7.7.9.t.D.v.r @ h.F.i z ( U G U Q Y.Y.W.( T.I./ V L I.R Q G T.I.T.Q / T.T.",
"!.! Y I.~.! E.R R ( R Y.T.U ^ ( Y.E.Y U Q E.Y.R.R m u $.>.<.6.w.q.d.f.] 0 N ..( W.( ( ^ Q Q R.Y.'.T.R.T.Q / / R.~ Y.Q R S U Q R.",
"E.`.! ! Y ( I.!.( p.^ !.E.J Y.R R Y.( R Y.^ Y.Q ).Y.U A w - . +   3 b U ( ( R.R W Q ( U Q ( ~.( R.G U / !.Q Q I.Q R.I.T.R ^ Q / ",
"I.E./ E.G ( Q Y E.E.).E.!.Y.R.S ( ( R Q R.Y.!.R ( Y.U Y.E.! ~ R / (.!./ Y.!.Y.( R W R.Y.( ^ W.T.Y./ T.T.~.L / Y.T./ S R !./ Q R.",
"( E.T.`.( Y Q ! /.! I.L I.! ~.L I.Y.R !.~ U Y.E.Y.!.Q T.R Q R.Q Y R.Y.R ( R.U Q E.!.Q Y.G Q Y.Q R Q T.I.R.L R R Q ~./ G Y.!.Y.Q ",
"I.T.! I.L Y.E.I.Q.Q.E.L T.Y.E.L Q R.Y.!./ Q R I.R !./ Y.G / E.Q Y.E.R Q ( R ( G I.'./ E.Q Y.Y.Y R / Y.Y.~./ R.E.~ !.E.~ Q R Y.T.",
"^ I.T ^ I.( Y.I.( Q E.Y.Y Y ).I.T.L / ~.I.Y.Q T.Y.Q V ^ R.!.G / ~.Q I.R.(.!.R.L R.'.R.R I./ ( / T./ I.R R.~.R.E.Q T.I.Y.T.I.I.U ",
"! ~.I.Y ! ^ E.!.! T Y.( T I.E.L T.Y I.T.Q Y.T./ Y.~.R R Q Y.S !.).!.~./ R.Y.~.Y Q / S R T.Q Q ~./ !.Q Y.G U G L Y./ Q Y.Y.).Y.G ",
"Q Y.T.L E.I.T.!.^ ^ Y.~.Q.E.^ Y Y.Q E.Y Q ^ Q / / T.!.Y.G Y.Y Q I.R Y.~ Y U ).~.T.^ Q !./ I.I.I.G T.R.R.L R !./ E.R R T./ !.!.T.",
"I.( E.L Q ! I.E.E.E.Y ! E.^ Y E.~.R.Q Q E.Q ( E.Y.S I.).R.~.Q R I.U R.Y.G I.Q R Q Q R.R.Y.G / Q Y.~ Y.R.U Y.).!.!.R.Q E.R.^ R T.",
"! Q.~.E.Y.( ( Y ! T.R R E.R T.T.R.I.Q Y.E.R !.~.~./ I./ Y.~.Q U Y.R.Y.~ / Q S R Q T.E./ E.Y R.!.R.T.T.Q Y.T.T.I.Q ~ S R U V R Y ",
"L ! R ! ( Y.Y Y.T.! ( T ! U ( J R ~ R.~.R.I.R.Q Y.U Y.Y./ I.( ( Y.Y.U R ).E.Q ~.R.R.E.E.`.T.Y.!.I.Q R R R./ !.R./ T.V ~ !.Y.!.Q ",
"/.I.R ( Q I.E.(.! Y I.! T.J I.! T./ I.Q U R ( ( ^ Q R.~.R.Y Q R Q ~.R.R Q ).~.~.Y./ Y Q Q J G I.R S T.).I.L Y.E.Q !.R ~.).`.E.R ",
"~.! R Y.( ! !.E.E.Q Y.R R R ).E./ Y.).E.R ( Q R Q Q Q Q I./ Y.~ T.T.~ R./ Y R L S Q Q / R Y.Q E.~.R R ~ R R Y.R.U R.~ T.Y Y T.~.",
"I.^ !.( Y.! R J !.I.`.E.( !.I.E.~ G I./ U !.Y.U G / ~./ ~ R.R.R ^ Q Q E.R R T.E.Q Y.I.I.G T.R.T.Y.T.I.Y.I.I.R Y.R I.R I./ U T.R.",
"^ E.(.Y.).I.( ! ( ! R J Y R Q ~.Q I.Q Q Q Q R.Y.I.R.).E./ Y.R.Y.T./ I.E.R.Y Y }.!.R.I.R.S / !.Q Q T.T.I.R.U I.Y.~ E.Q R ^ !.~.I.",
"( ( R R Y.E.( E.E.Y.I.P E.G R '.R.Y.R R.!.Q / T.R I.E.Q Y T.I.Q ^ / Y.Y.R.R.~ T.U I./ E.G / Q I.~.( ( Q R.S R !.).Y.G U R.)./ T.",
"B J L I.(.!.R / T.R T.! ( Y I.!.R.R./ ~.R R I.E.I./ ~ ~ I.R.R./ / I./ U Y U / R R ~.R.R.Q Y.L / ~.Q ~ Y.Y.T.~ !.E.R T.U Q T.^ / ",
"I.I.( L ! ( Q Y T E.T ( I.I.! ^ Q Q E.~.R S / ~./ R.R ~ Y Q I./ R.T.R.U Y.U I./ ( / R R.Q R U I.Q / I./ Q / Q Q E.Y.T.Y./ ^ Y./ ",
"'.~.T.I.Y.( Y.E.! ( ! ~.~.`.!.Y.E.Q ^ !.R.L I./ Q Q ~ Q Q / ~.I./ R ~.T.~.T.T.R.Y.Y.( !.Q ( Y.Y.I.T.^ Q !.Y.R I./ Y ^ R.I./ I.^ "
};
