/* XPM */
static char *result[] = {
/* columns rows colors chars-per-pixel */
"64 64 202 2 ",
"   c #262526",
".  c #2B2624",
"X  c #2F2826",
"o  c #272728",
"O  c #292728",
"+  c #2C2A2B",
"@  c #342925",
"#  c #372B27",
"$  c #3C2A23",
"%  c #312E2E",
"&  c #2E2E30",
"*  c #302F30",
"=  c #3D3330",
"-  c #4F2C1E",
";  c #562F1C",
":  c #582F1B",
">  c #5B301B",
",  c #68331C",
"<  c #7A361B",
"1  c #7E3618",
"2  c #432D24",
"3  c #4C2F22",
"4  c #49332B",
"5  c #543223",
"6  c #5B3424",
"7  c #55372C",
"8  c #5B382B",
"9  c #443631",
"0  c #4C3931",
"q  c #543C31",
"w  c #5A3F32",
"e  c #653624",
"r  c #643A29",
"t  c #5F4132",
"y  c #64422E",
"u  c #644433",
"i  c #654B33",
"p  c #694A37",
"a  c #7E4930",
"s  c #68513D",
"d  c #5F5145",
"f  c #5C534C",
"g  c #685648",
"h  c #725C4F",
"j  c #655A53",
"k  c #65615E",
"l  c #786659",
"z  c #666666",
"x  c #6E6A67",
"c  c #6D6D6D",
"v  c #726B65",
"b  c #786E66",
"n  c #7F7164",
"m  c #7B726A",
"M  c #747474",
"N  c #7B7673",
"B  c #777879",
"V  c #7C7C7C",
"C  c #9B3F0D",
"Z  c #873B17",
"A  c #983B15",
"S  c #933F19",
"D  c #B73F0C",
"F  c #B83F0C",
"G  c #A83F12",
"H  c #883E22",
"J  c #9A480C",
"K  c #934113",
"L  c #9A4115",
"P  c #924914",
"I  c #A54C07",
"U  c #A4410A",
"Y  c #A9430A",
"T  c #BA410C",
"R  c #B3490D",
"E  c #BA4A0B",
"W  c #A74712",
"Q  c #A84515",
"!  c #A34A1B",
"~  c #B24114",
"^  c #BA4B19",
"/  c #A95415",
"(  c #A85416",
")  c #A5551A",
"_  c #A95619",
"`  c #994E25",
"'  c #9A5327",
"]  c #9E5127",
"[  c #9D5C37",
"{  c #A14D22",
"}  c #A25226",
"|  c #A55A23",
" . c #A85C23",
".. c #A2552B",
"X. c #B8572C",
"o. c #AF5E37",
"O. c #A15D3A",
"+. c #AF5F38",
"@. c #B05D36",
"#. c #B05F38",
"$. c #9D643E",
"%. c #B4613B",
"&. c #C8450D",
"*. c #C34C0A",
"=. c #CA4D0B",
"-. c #D2460D",
";. c #D64A0A",
":. c #DC4A0D",
">. c #D4520C",
",. c #C64914",
"<. c #D34C15",
"1. c #D55415",
"2. c #D55A15",
"3. c #D55519",
"4. c #DA561A",
"5. c #D75E19",
"6. c #D95A1D",
"7. c #E44B0B",
"8. c #EB4C0A",
"9. c #F54E09",
"0. c #F84F0A",
"q. c #EB510E",
"w. c #F6500A",
"e. c #F8500A",
"r. c #E34E10",
"t. c #E55719",
"y. c #F75613",
"u. c #F85712",
"i. c #F55914",
"p. c #F85913",
"a. c #F45D1A",
"s. c #F85E1A",
"d. c #D7611D",
"f. c #F7611E",
"g. c #F9611E",
"h. c #DC5B23",
"j. c #DA5B25",
"k. c #E25E25",
"l. c #CD612E",
"z. c #D96727",
"x. c #C56C3E",
"c. c #D36F3C",
"v. c #D4723D",
"b. c #DC733E",
"n. c #EA6326",
"m. c #F66423",
"M. c #F96422",
"N. c #F46927",
"B. c #F36C2B",
"V. c #FA6C2B",
"C. c #F2702F",
"Z. c #F76E30",
"A. c #ED7035",
"S. c #E3763F",
"D. c #EB763C",
"F. c #F47234",
"G. c #F4773A",
"H. c #F87739",
"J. c #F37B3E",
"K. c #9C5F40",
"L. c #9A6649",
"P. c #886755",
"I. c #976C54",
"U. c #9D7158",
"Y. c #A76746",
"T. c #B46647",
"R. c #B87553",
"E. c #BD7B59",
"W. c #867568",
"Q. c #84746B",
"!. c #9C7D6D",
"~. c #857771",
"^. c #847B75",
"/. c #8A7C75",
"(. c #847F7C",
"). c #8E7F78",
"_. c #C67147",
"`. c #D87947",
"'. c #C97850",
"]. c #C37D59",
"[. c #E67941",
"{. c #EA7C44",
"}. c #F57E42",
"|. c #86817D",
" X c #8A827D",
".X c #96857C",
"XX c #B0856F",
"oX c #CA815B",
"OX c #E1804F",
"+X c #EB824B",
"@X c #F58246",
"#X c #F5854A",
"$X c #7F8081",
"%X c #838383",
"&X c #8A8784",
"*X c #8B8B8B",
"=X c #958981",
"-X c #9B8D87",
";X c #9A918B",
":X c #8F9090",
">X c #929292",
",X c gray60",
/* pixels */
"V V V *XV %Xc V V %XV &XV %X*XM $X(.c B B B $X:X&X%XB V %XB V B M V :X%X$XM B %X$X*XM V c B M :X$XV $X$X:X$X*X$X$X%XM $X&XM V V ",
"*X%XV %X%X*XM %XM B c B V V %XV :XB B &X$XB %X$XM $XM $X$XV *X$XM V &Xc V M *X%X$X&X&X%XV $X$XB z $X&XV M $X:X$XB $X$X|.$XB V B ",
"V V V V M V c V M %XV %X%X%X%X%X%Xc $X:XB *X*XB $X:XV M V *X:X,X*X&X%XB %XB (.c $XV x c B >X&X|.M B &X*Xc V *X&XM V B $X$X|.$XV ",
"V c V >X%XM %X%XV V V %X%X>X%X*X*XB M V (.&Xc c (.*X*X%XB *XB V B V B %X*X*X$XB :Xc V V $X>XB B M &X:XB &X&XB V B V V &XB $X:X*X",
"*XM M V V %X>XV %X%X%X%XV V c V V M c M &XB B %XV B B V &X$Xc B $X$X$XV %XV %X*X*XV ,X*X:X&X$XB V V V $X>X$XM c c |.$X$XV *XV M ",
"V V *XM V %XV z V V M M M M %X*XV %X%X$X$XM B B %X~.~.~./.-X~.Q.~.~./.).)./.)..XB &X:Xc V V &X$X$XB $X:XV M *X&XV $X$X$X&X$XM V ",
"%X%X>XV %XM c V V *X$XV |.$X%XV V :X:X&X$XV *XN T.h.h.h.j.k.k.j.k.k.k.j.k.k.j.j.Y.^.$X$X$X&X&XB $XV V &XM $X:X:X>X&X$X$XV V M $X",
"V %X*XV *XV V *X$XV *X>XV %XV c &XV V $X$X%X-X%.n.y.0.0.0.0.0.0.0.0.0.0.0.0.0.y.d.Y.^.B M M M c &XB *X:XV B B M M B V &XB $X&XV ",
"z V *X%X*X%X%X|.*Xc M *X%X*X%Xc B *X$X*XM B !.<.Z.0.9.9.0.0.0.0.0.0.0.0.w.w.e.N.N.1.P.B M $X*XV %XM M %XV $X$X$X$XB &X*XB V V $X",
"M V $XV %XV B M *X%XM V V *XV V &X&Xc B M $XU.j.Z.0.9.7.8.8.8.8.8.8.8.8.8.8.w.B.B.>.I.$X$X*X*X&X*XB B $XV &XB M M B $X$X*X$XM $X",
"V V %X*XV V $X$X%XV $X%XV %XM *X>XB B &XB B L.<.Z.y.9.7.7.7.7.7.7.7.7.7.7.8.w.N.B.>.I.B %XV V B &XV c B &X&X$XM V $X$XM V ,X*X:X",
"%X%X%XV c %X*X>X*X%X*XV M $XV *XB c $X$Xc B K.<.[.y.8.7.7.7.7.7.7.7.7.7.7.7.w.N.B.>.L.$X%X%X%XB B $X|.$X$X$X&XB &X&XB M $X:XV V ",
"%X%X%X%XV %XV $XM V V V V *X*X%X$X$X$X&X$XV K.<.Z.y.9.7.7.7.7.7.7.7.7.7.8.8.w.N.C.=.$.$X$XN $X%XV V B $X:XV B $XV *X&XV *X$XM M ",
"$X|.B *X%X%XV M %X*XV $XM V |.V B V &XV *X&XO.4.Z.y.9.7.:.7.7.7.7.7.7.7.7.7.w.N.B.>.[ &X:X XV $XV %XM %X:XM V $X$X$XV *X|.B $XV ",
":X$XV V V $XV V *X%XM *XV %X%X%XM &X*XM B c H h.Z.y.8.7.7.7.7.7.7.7.7.7.7.7.9.N.C.=.' M B %XV %X*X&XB &X>X$X$XV B V V $XM *X*Xc ",
"%XM *XV V M V >X%X*XV $Xc B M c M &X*Xc M x S 4.A.y.9.9.9.9.9.9.9.9.9.9.0.0.0.N.C.>.P k B &X$XM &X*XB c M M B |.V B M $XV *X|.z ",
"*XV %XV $XB V %XB V c M c |.|.$XM $X,X%X$Xl K 5.}.y.9.9.9.9.9.9.w.9.w.w.9.w.w.m.C.>.P f %X%XM M :X>X*X&Xc $X$X$X$X%X$X%XB $X|.B ",
"V M V c M V V B $X&X$X$X$XM $X*XM V >X*XV k C 6.Z.,.Z 1 1 1 < Z 1 1 1 1 1 1 A n.C.>.P j *XM $XM B V V :X*X$X$X&XM V $X$X%X$X|.B ",
"V %X:XM V *X*XV $X%X&XV B V %X*Xc $X&Xc V j C 3.Z.G O                       , n.C.>.J s %XB *XV M %X$XB %X*X$XV c $X$XV &X%XV $X",
"V %X:X*X>X%X&XV %Xc $X$X*X%X*XB B V $X$X*Xg L 6.Z.<.2 + O O X + O X + + + O , a.C.2.J d %XV %XB $XV c B *X:X%Xc &X&XV %X*X$X$X*X",
"M V V B *XV %XV %XV &X$X$XV V V *XV %XV V g C 6.Z.r.5 & * & * * * * * * % + K a.C.>.J g :X$X%XV &XV V %XB $XV %X>X$XB |.*X&X*X$X",
"M V $XM B %XV %X%XV V M %X%X*X:X%XM %X*X$Xh U 6.m.9.H 4 7 7 8 8 8 8 r r y r ! i.B.>.I g %XV V $XV B V V M c &X:X$XV $XB $Xc $X%X",
"M B |.*XM c V V V *XB $X$XV B $XV V %X%XM l W 6.m.9.7.:.:.r.r.r.7.q.q.7.q.q.w.q./ >._ l V  X$X%X%XV $X$X*XM c V B %X%X*XV B *X$X",
"&X%Xc %XB $X&XV c M V |.V M $X%X%X%XV &XV ^.{ ! t.0.0.0.9.9.0.e.w.w.w.e.w.w.w.P < *. .V %XB M $X*X*X>X*X*X$XV |.V V V V M V :X$X",
"B *XV %XM &X$X%XB V V $X&XM $X$X$X*X*X*X*X X` ; e <.0.0.0.0.0.e.w.0.e.w.w.p.h.4 6 =. .|.B *XV $X$XV $XM M M V V *XV V c $XV $XV ",
"M B *X:XB *XB %XV &X%X*X$XB &X$XV %XV M V  X] ; + o.s.0.0.0.0.0.0.w.e.e.e.g.c.9 ; =.| |.B V c $X%X*X*X$XB $X*XV V M *X$X&X*X&X$X",
"&XB V *XM $X*X*X$X$XB V $X%X$Xc c V %X%X%X(.] ; + +.M.0.0.0.0.e.0.0.w.0.w.M.v.9 5 E | v B *XV %XM M V $XB *X*X$XB V B %XV %XB $X",
"*X*X%X%X|.c B $Xc c M V *X|.B $XV V M V V |.] ; * %.M.0.0.0.0.e.0.w.w.e.0.g.v.0 3 E  .v  X%XB %X XM $X XB $XV $XV *X|.&X$X*X%X%X",
"c M V $X$XM B :XB M &XV $X*X*X*X%X%X*XV %X(.] ; % #.M.0.0.0.0.e.0.0.e.e.e.g.b.0 3 E  .^.$XM $X$XM V %X:X%X$XV &X%X%X XB M B M M ",
"$XB V $X$X|.%X*X|.V $XB B $X%XB V V %XV V m ..; % #.s.9.0.0.0.e.0.w.e.e.e.g.b.0 2 E ) v |.V $XB B M $X%XV %Xc V M B V B c $X XM ",
"*XV V %X%XB $X$X$XM $X|.%XB $X$Xz M %X%X%XN ..; % #.g.9.0.9.0.0.w.0.e.e.e.g.b.q 2 R  .m %XV $X%X$X&X>XM M B *X$X$X%XB V B *X:X%X",
"*XV c V *XM $X|.%XB $XB |.%X$X&XM *X*XM z m } ; % #.g.0.0.0.0.0.0.0.e.w.e.g.b.q 2 I _ |.$XV *X,X*X&X$Xc %XB %X>X&XB B B B $X*XV ",
"%X$XB V *XM B *X%Xc $X%X&X$X&X%X&X%X&X%XM )...: % @.g.9.0.0.0.0.w.0.w.e.e.g.S.q # R ) ^.*XV c M B M V *X*Xc %X*XV V %X*XV M &XB ",
"B |.B |.:XV %X>X%Xc %X%X$Xz B B V V V V B /.} : % @.g.0.0.0.0.0.0.0.e.e.e.g.D.w # Y ) m %X*X%XB V V V &XM z %XV %X&X%X*Xc V *X$X",
"c %XV *X$XV c V >XB $XV %Xc $X>XV V B V %X^.{ : % @.g.0.0.0.0.0.w.0.w.e.w.f.[.w @ U / |.M M %X%XV V V %XV %X%Xz V *X%X*XM M B $X",
"%X%XB %X%X*X$X%X*XM %XB %XM B *XB z B &XV ^.{ : % @.g.9.0.0.0.0.0.0.w.e.w.f.[.t @ J ( .X%X%XV %XM %XV %X>X>X:X$X$X>X%X*XV |.V V ",
">XB |.&XV |.B M |.$X*X%XB &X:X$X%Xc $X>XV ~.{ : % @.M.0.0.0.0.0.e.0.e.e.e.g.{.t . J / Q.M $Xc M c V B *X%XV B V B |.M B B B B *X",
"B $X*X$XV V %X$XB $X%XM M %XM c %XV %XM V ).{ : % @.g.9.0.0.0.0.0.e.e.e.w.M.{.u   J / /.|.V %X&X$X*XM M V V V B *X$X%XB V $X&X$X",
"%X%X$XM B B %X*XV V *X%X%X|.$XV %XV $XM >X=X{ > % @.V.0.9.0.0.0.0.0.w.w.w.N.+Xy . K / b M :X:X>X%X*X|.%X%XB %XV $XM %XM $X%X%X&X",
"&X$XM $X%X&X$X%XM V :XV B V $X&X%X$XB %X$X~.G 6 2 X.[.Z.M.s.y.y.p.p.s.M.Z.}.J.{ @ K / n $X:XB $XM M M %X$X%X%X&X*XV %XM V %XB V ",
"*XM $X:XV M c *X|.>X%XB :X%XM $X%X%XV $XM v Q : 6 H w O._.[.}.}.G.D.S.`.x.O.a ^ A Z / W.$X$XV %X$XM &X&XM B c M M M V $XV :X&XM ",
"M c *X,X*Xc V :XB $Xc M V %XV $X>X%X$XV &Xm Q > H r % % 9 7 w w p u w 0 = % * 8 =.R / W.$XB V %XB *X*XV $XV B %Xc $XV %XB %X*XM ",
"$X$Xc V M M >X:X$XV $X*XB V M M %XV V B c W.! Z D 4 + + + + + O + O X + + + + + K >./ W.V V M V $X>XB c %X>X%X:XM V V %X|.%X>Xc ",
"%X$Xz $XV %X$XV $XB V &XV %XM V $X&XV %XM W.U &.F # O O O O O O O O O O O o O $ S =.( P.V %X$X&X$X:X%XV :X>XV &XM $XV B $X*X*XB ",
"*XV c *X*XV V c %X&X%XV $X*XM %X%X&X|.>X&Xh Y :.r.F A , - $ @ X . . . X $ ; Z ,.t.>.I l |.$X*X$X%X$X$Xz c $XB B c %X$X%XV V %X%X",
"*XV M $X*XV %XM B B B $X%XM V $X%X%XM M B p Y 6.y.9.8.9.7.-.&.~ G G ~ T -.7.q.w.N.2.I s B B &X%X>X%X%X%XV $XV &XV |.B B c M B &X",
"&X>XV V M |.%X:X$X$XV *X%XM %XB B $X|.M V u Y 6.f.7.F 9.9.9.0.0.0.w.e.e.0.:.T u.C.2.I i M $X:XV %Xc M $X*XB V |.B %X$X%XB V V V ",
"$X&X$X%Xc V B M &X&X:X*X*X$X&Xc $X$XB B B y Y 6.m.8.F 9.0.9.0.0.0.0.w.w.w.;.T u.G.2.I i M V %X%X%X|.%X%X*Xc $X%X%X$Xc B *X$XB &X",
"$X&X%X>XV M B V :XV $XM $X$X&XM V $XV *XM 8 U 5.M.7.T 9.9.0.0.0.0.0.e.w.0.;.T a.G.2.I i z V $XB B V $X|.%Xc B M V :X$Xc $X:X$XB ",
"$X%XV $XM %X&X$X*X&X&XM $X$X*Xc V %X%X*XM u G z.Z.7.T 9.0.0.0.0.e.e.e.w.0.;.T a.G.d.I s M &X|.M B $X%X$X:XB &X*XB *X&X$XV M |.%X",
"V $XM V $XV %X%XV B %X$XM B :X$X%XM V :XB i U h.F.7.D 9.0.0.0.y.0.0.w.w.0.;.E f.J.d.I i V V V $X$X$X$XB &X:X%X*XB &X$X%X%X$X$XM ",
"V :X$XM B $X&X*XB B %X|.M $X%Xc %XM $X%XB s G 5.H.4.D 9.0.0.0.0.e.0.0.w.0.;.R f.J.d.J s $XV M :X$X*XB |.c M c c $XV B $X$X>X%Xc ",
"M %X%XM %X$X%X*XB $X%X*X*X&XV M $XV &XM B l W j.}.t.D 9.9.0.0.0.0.0.e.e.e.;.T g.@Xd.) m $X$X$X$Xc %X%X*Xc V *X$X&XB M %XV *X*X%X",
"$X$X%XM B V $X&X%X&XM V &XV M *X:X%XB B &XN [ j.}.t.D 9.0.0.0.0.0.e.e.e.e.;.T g.@Xd.$. X%Xc V V %XV %X%Xc |.>X*X*X%XV &X&X$XB %X",
"V *X*X%X|.V $XM V %XB M %XB $X%X&X$XV %X%XB Y.3.}.k.F 9.0.0.0.0.0.w.e.w.e.>.E C.+Xd.L.%X*XM &X*X&X%X%XV %X%X%X$XV V x B M z B M ",
"c V M V $X%XM %X%XV $XM V M $Xc B V %X*X&X$XY.h.}.A.3.0.0.0.9.9.0.0.w.w.w.7.>.G.+Xd.XX&X>X$X%X*X$XB B B &X$X:X%X$X$Xz V *X$X*XV ",
":X$XB $XB $X%X:XV M $XV %Xc V V %X$X$XM M B P.j.`.`.`.A.Z.V.M.g.g.g.g.g.M.n.v.`.+Xz.P.V N c c V B c %X>X$Xc $X*XB *XB :X:X>X*XB ",
":XB M &X$XB :X&X&XB %XB B B :X*XV $X>X&XB (.Q.l._.P.P.R.#X#X#X#X@X@X@X@XOXI.P.U.[.c.|.N M %XV &X:XB B V B B $X*XM &XV %Xc M |.:X",
"V V *XV %XV B c *X%X>X&X$X*XV *XV c $X$XM &X%XU.R.R.R.'.#X#X#X#X#X#X#X@XOXR.E.oXoX.XV $Xc %X&X%XV |.$X$X$X$XV $XB $XB $X$XM %X&X",
"V &X:X$X:X|.$XV $XB B c M M V *XV $XB B V M %X%X(.&X;X=X!.XXXXoXoX].XXXX.XQ.N ,X:X&X$X&Xc $X*XV V %X%X|.%XM $X%XB &XV M V *X*X$X",
"$X$XB B |.&X$X%X*X%X|.c %Xc V >X*X$XB %X&XV $X%XB $X&XB M %X%XB (.(.%X%X&X%XV %XM V V &Xc $XV $X:XV $XV *Xc M &X>X$Xc M %X>XV %X",
"z c M V :X*XB $X$XB %XV V M V :X%X&XV :XV B V &X$X(.V V V *X%XV V V V M N M V B V *X&X*XV $Xc $X&XV V %X$X|.V *X&XB %XM B %XV $X",
"$X$XV M V $XB M B %XM V $X%XV V M V %X>XM c $X*XV &XM V M M %X$X%X%X*XM %XM (.V $X$XB |.M B M |.V V $XV V $XM V *X$X$X%XV V $X$X",
">X:X|.$X%XV %X&XV $XV *X:X>X*X|.*XB V *X&Xc $X$XB B V B V V *X$X$XB *X%X*X%X%X*X%X$X$X*XV $X$X%XV %XV V *X%XM $X$XM V &X|.$X$XV "
};
