/* XPM */
static char *_dfb6b53aaa14c4b8f8a16249a1baa7aC2Ks1a7nucZS2coJ[] = {
/* columns rows colors chars-per-pixel */
"64 64 211 2 ",
"   c #262526",
".  c #2B2624",
"X  c #272728",
"o  c #292728",
"O  c #2C2A2B",
"+  c #342925",
"@  c #372B27",
"#  c #3C2A23",
"$  c #312E2E",
"%  c #2E2E30",
"&  c #302F30",
"*  c #3D3330",
"=  c #4F2C1E",
"-  c #562F1C",
";  c #582F1B",
":  c #5B301B",
">  c #68331C",
",  c #7A361B",
"<  c #7E3618",
"1  c #432D24",
"2  c #4C2F22",
"3  c #49332B",
"4  c #543223",
"5  c #5B3424",
"6  c #55372C",
"7  c #5B382B",
"8  c #443631",
"9  c #4C3931",
"0  c #543C31",
"q  c #5A3F32",
"w  c #653624",
"e  c #643A29",
"r  c #5F4738",
"t  c #64452F",
"y  c #644433",
"u  c #654B32",
"i  c #694837",
"p  c #7E4930",
"a  c #68513C",
"s  c #5E5047",
"d  c #6D5747",
"f  c #64554B",
"g  c #765A49",
"h  c #635953",
"j  c #6A625B",
"k  c #75675C",
"l  c #666666",
"z  c #6B6663",
"x  c #6B6866",
"c  c #6D6D6D",
"v  c #7A6B65",
"b  c #75706E",
"n  c #7C736D",
"m  c #6F7071",
"M  c #747474",
"N  c #7C7672",
"B  c #7F7974",
"V  c #7C7C7C",
"C  c #9B3F0D",
"Z  c #873B17",
"A  c #983B15",
"S  c #933F19",
"D  c #B73F0C",
"F  c #B83F0C",
"G  c #A83F12",
"H  c #883E22",
"J  c #9A480C",
"K  c #8F4815",
"L  c #944011",
"P  c #994618",
"I  c #A54C07",
"U  c #A4410A",
"Y  c #A9430A",
"T  c #A44C09",
"R  c #BA410C",
"E  c #B3490D",
"W  c #BA4A0B",
"Q  c #A64713",
"!  c #A84616",
"~  c #A44B1C",
"^  c #B24114",
"/  c #BB4211",
"(  c #BA4B19",
")  c #A65214",
"_  c #AA5414",
"`  c #A6561C",
"'  c #A95619",
"]  c #9C4D23",
"[  c #9B5127",
"{  c #9C5D39",
"}  c #A34D23",
"|  c #A15325",
" . c #A65A23",
".. c #A4582A",
"X. c #B8572C",
"o. c #AF5E37",
"O. c #A25C39",
"+. c #AF5F38",
"@. c #B05D36",
"#. c #B05F38",
"$. c #A1623C",
"%. c #B6623C",
"&. c #C8450D",
"*. c #C34C0A",
"=. c #CA4D0B",
"-. c #D2460D",
";. c #D64A0A",
":. c #DC4A0D",
">. c #D4520C",
",. c #C64914",
"<. c #D34C15",
"1. c #D55415",
"2. c #D55A15",
"3. c #D55519",
"4. c #DA561A",
"5. c #D75E19",
"6. c #D95A1D",
"7. c #E44B0B",
"8. c #EB4C0A",
"9. c #F54E09",
"0. c #F84F0A",
"q. c #EB510E",
"w. c #F6500A",
"e. c #F8500A",
"r. c #E34E10",
"t. c #E55719",
"y. c #F75613",
"u. c #F55914",
"i. c #F85913",
"p. c #F85A16",
"a. c #F45D1A",
"s. c #D7611D",
"d. c #F7611E",
"f. c #F9611E",
"g. c #CB5F2C",
"h. c #D85A23",
"j. c #DC5B23",
"k. c #E35F24",
"l. c #D96827",
"z. c #C56C3E",
"x. c #D36F3C",
"c. c #D5733E",
"v. c #DC733E",
"b. c #EA6326",
"n. c #F66423",
"m. c #F96422",
"M. c #F46927",
"N. c #F36C2B",
"B. c #FA6C2B",
"V. c #F2702F",
"C. c #ED6E33",
"Z. c #F76E30",
"A. c #ED7035",
"S. c #E3763F",
"D. c #EB763C",
"F. c #F47234",
"G. c #F67739",
"H. c #F37B3E",
"J. c #986648",
"K. c #896654",
"L. c #996D57",
"P. c #85715E",
"I. c #90725E",
"U. c #AB6443",
"Y. c #B06848",
"T. c #BB7754",
"R. c #BB7956",
"E. c #806D62",
"W. c #837366",
"Q. c #84766E",
"!. c #88786C",
"~. c #987562",
"^. c #867770",
"/. c #847A74",
"(. c #8A7C73",
"). c #857F7B",
"_. c #987F72",
"`. c #C67147",
"'. c #D87947",
"]. c #C77D58",
"[. c #E37B45",
"{. c #EA7C44",
"}. c #F57E42",
"|. c #87817D",
" X c #8C827D",
".X c #92837B",
"XX c #A8826F",
"oX c #B78165",
"OX c #C9805B",
"+X c #E1804F",
"@X c #EB824B",
"#X c #F58246",
"$X c #F5854A",
"%X c #7F8080",
"&X c #838383",
"*X c #848484",
"=X c gray52",
"-X c #868686",
";X c #8B8683",
":X c #888888",
">X c #8A8988",
",X c #8A8A8A",
"<X c #8B8B8B",
"1X c #8C8C8C",
"2X c #8F8F8F",
"3X c #918B86",
"4X c #8F8F90",
"5X c #909090",
"6X c #929292",
"7X c #959595",
"8X c gray60",
/* pixels */
"V V V -XM &Xc %XV -XV :XV -X:XM V %Xm M V M %X5X-X-XV V *XV V V m V 4X&X%XM V %X&X:XM V c V M 2XV V &X%X:X%X2X&XV -XM &X&XM V V ",
"2X&XV -X-X2XM &XM M c V V V &XV 2XV V -X%XV %XV M %XM V &XV -X|.m V -Xm V M :X|.%X-X-X*XV V V V x %X-XV M -X2XV V &XV &X&XM V V ",
"V V V V M V c V M -XV V &X&X%X&X%Xc |.4XV :X<XV %X1XV M V >X5X7X:X-X*XM %XV %Xm %XV c c M 7X&X&XM V :X-Xc V :X&XM V V &XV &X&XV ",
"V c V 2X&XM %X-XV V V &X-X5X:X:X:XV M V V -Xm c V 2X:X*XV -XB |.V V V *X:X2XV V 1Xm V V &X7XM V M -X1XV &X-XV &XM V V &XV &X2X-X",
":XM M V V &X5XV -X&X-X-XM V M V %XM m M %XM M -X|.|.!..XXXoX].].OXoXXX_..X/.|.:X1XV 8X1X2X:X&XV V V V &X4XV M m c &XV &XV -XV M ",
"V &X:XM V &XV x V V M M M M &X:XV %X%X%X%Xm XXOXOXT.T.+X$X$X$X$X$X$X@X{.].T.R.OXL.*X2Xc V V -X%X%XV &X4XV M :X:XV V &XV &X&XM V ",
"&X-X7XV -XM M M V -XV V %X&X-XV V 5X1X:X%X|.c.@XL.K.K.'.$X#X#X#X$X$X$X$XR.K.K.`.g.W.*X%X-X-X:XM %XV V -XM %X4X5X5X:X&X&XV V M &X",
"V V 2XV :XM V 2X&XV :X7XV -XM c |.%XV %X).I.l.@X'.v.b.M.d.f.f.d.d.B.N.N.C.'.'.[.h.L.V M M c M l &XV -X2XV V V c M V V -XM &X:XV ",
"l V 1X&X2X&X*X%X:Xc M 2X&X-X&Xc V :XV :XM J.l.$XG.1.8.e.e.w.0.0.0.0.0.0.9.<.C.}.h.J.M V M V 4XV &XM M %XV %X&X%X&XM :X:XV V V V ",
"M V %XV -XM V M 2X-Xm V V 2XV V -X-Xc V m J.l.@XN.R ;.0.e.e.w.0.0.0.0.0.9.D k.}.h.U.V V %X:X2X-X2XM V *XV :XM M m V V &X:X&XM &X",
"V V &X2XV V %X).V V V -XV *XM :X2XM V :XV { s.#XM.R ;.0.e.w.e.0.0.0.0.0.9.D t.}.h...-XM *XV V V &XV c M :X:X%Xm V &XV M V 8X:X2X",
"%X%X%XV c *X2X5X:X-X2XV M V V 2XV m %XV j ) s.#Xn.F ;.e.w.e.0.0.0.0.0.0.9.D t.}.h.! k &X&X%X*XV V %X*X%X%X%X&XV &X-XV M %X2X).V ",
"-X:X*X*XV &XV %XM V V V V 2X:X&X*X|.%X%Xd I s.}.n.R ;.0.w.e.e.0.w.0.0.0.0.F r.}.j.U i V |.V V -XV V M %X2X%XM %XV 2X&XV <XV c M ",
"%X%XV *X%X*XV M *X:XV V M V ).V N V -XV a T 5.H.a.R ;.e.e.e.e.e.e.0.0.0.9.F r.F.j.U y &X2X*XV %XV %XM -X2XM V &X%X-XV -X&XV &X%X",
"5X*XV V %X%XM V 2X&XM 2XV %X&X-XM -X:Xm u I 5.H.a.R ;.0.e.e.0.0.w.0.0.0.9.F 7.F.l.G t M M %XV *X:X:XV :X2X%X%XV M V V &XM -X-Xc ",
"-Xm :XV V M %X5X-X:XV %Xc V M c M >X:Xl t I 2.G.a.R ;.0.e.e.0.0.e.0.0.0.9.F 7.N.6.Y t c V *X%XM -X<XM c M M V -XV M M %XV 2X&Xx ",
":XV %X%X%XV V %XM V m M M V &XV M &X7XV y T 3.F.i.R ;.e.e.e.0.0.0.0.9.9.9.F 7.n.5.Y t c %X&XM M 4X7X<X-Xm %X%XV %X&X).%XV %X-XM ",
"V b V c M V V V &X-XV &XV M %X:XM V 7X%Xi T 2.F.p.R ;.0.e.e.0.0.0.0.0.9.9./ 7.m.6.G y V 2XM &XM M |.V 5X:X:X|.-XM V &X%X%X%X&XV ",
"V &X5XM %X1X:XV V *X-XV V V *X:Xc V :Xc a I >.N.y.8.:.-.R Y G G D / -.7.9.8.0.a.3.Y y c &XV :XV M %X-XM &X<XV V m -X%XV -X%XV V ",
"V *X4X2X5X%X-XV &XM V &X>X*X>XV V V &XV P._ >.t.,.Z - # + . . . . + # = > A F q.;.Y g V -XV %XV &XV m M :X4X%XM -X-XM &X:X%X:X:X",
"M %XV V :XV %XV &XV -XV &XV V V -XV &X%XW.) >.C # o o o o o o o . o o o X o # F &.U !.5X5X:X%XV %X|.V %XV V V %X7X%XV *X2X-X2X%X",
"m V %XM V -XV &X-XV V M &X-X>X5X&XM -X&XW._ =.S O O O O O O O O O O O O O % 3 ! Z Q (.|.-XM V %XV M V V M c -X1X%XV V N V m %X%X",
"M V %X-XM c M %XV 1XM &XV V M &XV V |.-Xk ) W =.5 % $ * 9 r y i q q 0 8 & O w Z : Q !.m V &X&X&X&XV -X%X2XM m V V %X%X<XV V >X%X",
"-X%Xm %XV V -X).c M V &XV M V &X-X&XV ;XW._ Z A ( p O.z.c.S.D.D.}.C.[.`.O.y H 5 : ~ (.%X&XV M %X<X2X5X:X1XV V &XV V V V M V :X-X",
"V :X%X%XM <X%X-XV V V V -XM %X%X|.:X5X:X(._ L # } {.H.Z.m.p.p.y.0.y.f.m.Z.{.X.1 > ~ /.:XM :XV &X%XV &XM M M V |.:X%XV m %XM &XV ",
"M M :X5XM :XN -XV -X-X<XV V -X&XV %XV M W._ L o y {.B.e.w.e.e.e.0.0.0.0.0.B.#.$ ; ~ n &XM V c V %X:X1XV V %X:XV %Xm :XV :X:X:X%X",
":XM V <XM %X4X<X%X%XM V %X:XV M c V %X:XQ.' L o t @Xm.e.e.e.0.0.0.0.0.0.9.f.#.$ ; } Q.c V <XV |.V M V %XV :X4XV V V V &XV *XM |.",
"-X2X&X-X%Xm M %XM c M V >X%XV V V V M V Q._ L + t {.f.e.e.e.0.0.0.0.0.0.9.f.o.$ : } Q.m :X&XM :X&XM V &XV V V V V :X&X&X&X:X*X:X",
"b M V V %XM N 5XM M :XV &X>X:X:X%X-X<XV /.' J + r [.f.9.e.e.0.0.0.0.0.0.9.f.@.$ - } ;X|.V M %X&XM V *X4X-X&XV -X%X:X*XV M V M M ",
"%XV V V *X%X%X2X%XV &XM V V &XV V V :XV n ' T + 7 S.f.e.e.e.e.e.0.0.0.0.9.f.@.$ - } n c -XV %XM M M V *XV &Xc V M M V M c V :XM ",
"-XV V -X-XM %X%X%XM %X&X&XM %X%Xl M -X%X!.` Y @ q [.a.e.e.e.e.9.0.0.0.0.0.f.@.$ - }  XM &XV -X%X-X-X7XM M M :X-XV *XV V M *X2XV ",
":XV M V :XM %X*X&XM %XV %X&XV 2XM :X<XM j ` E @ 6 [.f.e.e.e.e.e.0.0.0.0.0.f.@.$ - }  X&X-XV >X7X:X-X%Xm -XM &X4X:XV V M V &X4XV ",
":X|.M V :Xm M :X%Xm %X-X-X%X-X*X-X&X-X|.n _ E # 0 [.d.e.e.e.e.0.0.0.0.0.0.f.@.% ; [ N V 2X).c M M M V 1X4Xm %X2XV V *X:X|.M *XM ",
"M %XV *X4XV :X7X*Xm *X%X|.l V M V V V V n  .E # 3 v.f.e.e.e.0.0.0.0.0.0.9.m.@.$ ; | N M V 2X-XV V V V :Xm x *XV &X-X%X1Xm V 4X%X",
"c -X%X:X%X%Xm V 2XV *XV %Xc %X2X%XV V %X|.` W 1 9 v.f.e.e.e.0.e.0.0.0.0.0.m.@.$ - [ N &XM M -X*XV V V &XV *X*Xl V :X%X1XV m M %X",
"-X%XM *X*X<X%X%X-XM %XM -XM V >XM l M :Xn  .W 2 9 v.d.e.e.e.0.e.0.0.0.0.0.m.+.$ ; ] N 7X:XV V %Xm %X).%X5X7X4X%XV 7X:X:XV V ).%X",
"4XM -X>XV |.V M %X%X1X-XV >X1X&X-Xl &X2X/.` W 2 8 c.f.e.e.e.0.0.0.0.0.9.9.m.#.$ - ] &X&XM ).M m M V V :X*X%XN V M &XM V M V M :X",
"M %X:X%XV V -XV V V *XM m &XM c -XV :Xm |. .=.2 8 c.f.e.w.e.0.0.0.0.0.0.9.m.@.$ - ] N -X&XV %X:X%X:Xm M V V %XM :X%X&XM V %X:X%X",
"&X-XV V V M *X-XV V >X-X&X%X%XV -XV %XM 3X .*.4 8 c.f.e.e.e.0.e.0.0.0.0.0.f.@.$ - ] V M c 2X1X5X-X:XV &X%XV *XV *XM -XM %X-X*X:X",
"-XV M %X*X-X%X*XM V 2XV V V %X-X-X%XM -XV  .=.; 3 j.p.e.e.0.0.e.0.0.0.0.9.0.<.w - } ).V &X5XV %Xm V M -X%X%X%X:X:XV *Xm V *XM V ",
":XM %X4XV M m >X&X7X&XV 1X&XM %X&XV V %Xb ` *.> P w.e.e.e.w.w.w.0.0.0.0.0.0.0.<.^ } Q.V %X%XV *XV M -X-Xc V c M M M V %X%X4X-XM ",
"M m 4X8X>Xm V <XV %Xc m %X|.V &X7X X%XV |.) >.( q.w.8.8.q.r.q.r.r.7.:.r.:.7.0.m.j.! v &X%XM V *XV >X>XV V V V -Xc %XV %XV %X4XM ",
"%X%Xc V M M 7X4X%XV &X>XM V M M %X%XV M a T >.N.u.! w t e 7 7 7 7 6 6 6 3 H 8.n.<.G h &XV V M V %X7XV c -X7X-X>XM V V :X%X-X4Xm ",
"*X%Xl V V -X&XN %XM V -XV &Xm %X%X-XV %Xr T >.F.d.< % % $ $ $ $ & $ % $ % 6 r.B.h.G f V V -X&X:XV 2X%XV 2X7XV :XM %XV N %X:X1XM ",
"4XV c :X>XV V m &X>X&XV %X>XM &X-X:X&X4Xh J >.V.f.,   O O O O . O O o . O 1 -.Z.4.C s M *X&X-X%X-X%XV l m %XM V c -X%X*X).V -X%X",
"<XV m |.<XV -XM M V M &X-Xm %X&X-X%XM m s J >.V.t.>             o o     o . ^ B.4.C f V V V -X&X7X&X-X-XV V V :XV %XV M c m V -X",
":X5XV V M %X&X<X%X%XV <X-Xm &XM M &X%XM h J >.V.b.L < < < < < < Z Z , , Z Z / Z.4.C h M V %X2XV -Xc M V :XV V %XV &X%X&XM V V V ",
"%X>X%X-Xc %XM M :X>X5X:X<X%X-Xc %X%XM V j K >.V.n.w.w.w.w.w.w.w.8.9.9.9.8.9.y.}.4.A l &XV V -X&X&XV -X&X-XM V *X*XV c V :X&XM -X",
"V &X:X5XV M V V 2XV %Xc &XV :XM V &XV ,Xl L >.N.M.w.w.w.w.w.w.w.9.9.9.9.0.0.y.F.4.S x &Xc V &XM V V &X%X:Xb M M V 4X%Xc %X4X%XV ",
"*X-XV %Xm &X:XV :X:X:XM &X&X:Xc V -X%X:XM [ >.C.M.e.7.:.7.7.:.7.7.7.7.7.7.8.y.F.4.[ N :XV &X-XM M V &X&X:XV -X:XV :X:XV V M *X%X",
"V %XM V &XV &X%XV V =X&XM M 4XV &Xm ).2XV $.>.N.M.w.8.7.:.7.7.7.7.7.7.7.7.8.y.Z.4.U.-XM %XV %X%X%X&X%XV -X2X-X-XM -X|.*X:XV %XM ",
"V 4XV M V V =X1XV M =XV M V :XM &XM %X&XV J.>.M.M.w.8.7.7.8.8.7.7.7.7.7.7.9.y.}.<.{ c M -XM M 2XV >XM &Xc m c M *XV V %X&X4X*Xc ",
"V %X:Xc :X%X*X1XM V &X:X:X:XV M &XV -XM V J.-.C.M.w.7.7.7.7.7.7.7.7.7.7.7.8.y.Z.1.J.V ;X%X%X%X&XM &X-X-Xc V 1XV :XM M -XV 4X:X*X",
"V %X*Xc M V %X:X:X:XM V :XV M :X1X-XV M -XJ.<.n.M.w.8.7.7.7.7.7.7.7.7.7.7.8.y.Z.3.K.*X-X&Xc %XM &XV &X&Xm &X5X>X<X-XV :X*XV V *X",
"V :X>X:X=XV %XM V =XM V :XV &X*X-XV V &X-XK.<.C.M.w.8.8.8.8.8.8.8.8.7.8.8.9.y.A.<.L.:XV :XM -X<X-X&X&XV &X&X-X&XV V c M M l M M ",
"M V M V |.%XM *X&XV V M V M V c M V -X2X;XI.<.n.M.w.e.e.w.e.w.e.9.9.9.9.0.9.y.Z.4.~.:X:X5X&X&X:XV V M V -XV >X-XV &Xl V :X%X:XV ",
"2X&XM &XM &X-X2XV M &XV &Xc %XV &X%X%XM M N Y.k.y.9.0.0.0.0.0.9.9.9.9.0.0.9.y.b.%.^.M V M c c %XV c *X4X%Xb %X-XM <XV 2X4X5X:XV ",
"<XV M -X&XM 2X:X:XM :XM M M 4X:XV %X5X-XN V V Y.h.h.j.j.h.j.h.h.j.t.j.j.j.h.h.Y.z V V %XM &XV :X:XM V V M V &X:XM :XV &Xc M %X4X",
"V V :XV &XV M M <X&X4X:X&X4X&X=XV c %X&XM ,X-Xm E.^..X^.^..X.X^.^.^.^..X^.^..X;XV &X%X%Xb &X-X&X&X&X%X&X%X%XV %XV %XM %XV M &X-X",
"V :X2X&X2X&XV V V V M M M M M <XV %XV M V N &X&X&X:X4X4X%X*X:X&X|.V V :X&XM M 7X<X*X%X-Xc %X:XV V &X&X%X&XM %X-XV :XV M V 4X:X%X",
"V &XM V &X-XV -X:X&X&XM :Xc V 4X-X&XM -X-XV %X-XV %X-XV m -X%XM V %X&X&X*X*XV -Xb %X%X:Xc %XV %X<XV %XV :Xc M :X5X&Xm b -X4X|.%X",
"l c M V 2X2XM &X-XM &XV V M V <X-X-X%X4XV V V :XV %XV V &X:X&X%X&XV V b m M %XM V :X*X-XV &Xm %X:XV V &X&X&XV :X:XM &XM V &XV %X",
"V &XV M V V M M M -XM V V &XV V M V -X4XM c %X:XV -XM V M M &X&X-X&X&XM &XM %X%X%X%XM -XM M m &XV V %XV V *XM V :X%X&X&XV V %X%X",
"7X:X&X&X-XV -X:XV V V :X4X5X4X&X:XM V ,X&Xc %X&XM M V V V V -XV &XM 4X&X4X&X&X-X&X&X&X:XV %X&X&XV &X/.V :X&XM %X%XM V -X%X%X%XV "
};
