/* XPM */
static char *result[] = {
/* columns rows colors chars-per-pixel */
"64 64 199 2 ",
"   c #262526",
".  c #2B2624",
"X  c #2F2826",
"o  c #272728",
"O  c #292728",
"+  c #2C2A2B",
"@  c #342925",
"#  c #372B27",
"$  c #3C2A23",
"%  c #312E2E",
"&  c #2E2E30",
"*  c #302F30",
"=  c #3D3330",
"-  c #4F2C1E",
";  c #562F1C",
":  c #582F1B",
">  c #5B301B",
",  c #68331C",
"<  c #7A361B",
"1  c #7E3618",
"2  c #432D24",
"3  c #4C2F22",
"4  c #49332B",
"5  c #543223",
"6  c #5B3424",
"7  c #55372C",
"8  c #5B382B",
"9  c #443631",
"0  c #4C3931",
"q  c #543C31",
"w  c #5A3F32",
"e  c #653624",
"r  c #643A29",
"t  c #5F4132",
"y  c #65432F",
"u  c #654434",
"i  c #654A32",
"p  c #6A4938",
"a  c #7E4930",
"s  c #69513B",
"d  c #5E5044",
"f  c #685444",
"g  c #63554D",
"h  c #635952",
"j  c #735F53",
"k  c #6A635E",
"l  c #7D6A58",
"z  c #656565",
"x  c #6B6764",
"c  c #6D6D6D",
"v  c #726D69",
"b  c #77716D",
"n  c #7C736C",
"m  c #6E6F70",
"M  c #6F7071",
"N  c #747474",
"B  c #7E7975",
"V  c #777878",
"C  c #7C7C7C",
"Z  c #9B3F0D",
"A  c #873B17",
"S  c #983B15",
"D  c #933F19",
"F  c #B73F0C",
"G  c #B83F0C",
"H  c #A83F12",
"J  c #883E22",
"K  c #9A480C",
"L  c #8F4815",
"P  c #944211",
"I  c #9A4519",
"U  c #A54C07",
"Y  c #A4420B",
"T  c #A9430A",
"R  c #A44C09",
"E  c #BA410C",
"W  c #B3490D",
"Q  c #BA4A0B",
"!  c #A94413",
"~  c #A34816",
"^  c #A34A1C",
"/  c #B24114",
"(  c #BB4211",
")  c #BA4B19",
"_  c #A75112",
"`  c #AA5515",
"'  c #A5551B",
"]  c #A8571B",
"[  c #A9591D",
"{  c #964E27",
"}  c #9D4E23",
"|  c #9D562B",
" . c #9B5D37",
".. c #A14D23",
"X. c #A55924",
"o. c #B8572C",
"O. c #A25E3B",
"+. c #AF5F38",
"@. c #B05D36",
"#. c #B05F38",
"$. c #AA6029",
"%. c #A2633C",
"&. c #C8450D",
"*. c #C34C0A",
"=. c #CA4D0B",
"-. c #D2460D",
";. c #D64A0A",
":. c #DC4A0D",
">. c #D4520C",
",. c #D34C15",
"<. c #D55415",
"1. c #D55A15",
"2. c #D55519",
"3. c #DA561A",
"4. c #D75E19",
"5. c #D95A1D",
"6. c #E44B0B",
"7. c #EB4C0A",
"8. c #F54E09",
"9. c #F84F0A",
"0. c #EB510E",
"q. c #F6500A",
"w. c #F8500A",
"e. c #E34E10",
"r. c #E55719",
"t. c #F75613",
"y. c #F85712",
"u. c #F55914",
"i. c #F85913",
"p. c #F45D1A",
"a. c #F85E1A",
"s. c #D7611D",
"d. c #F7611E",
"f. c #F9611E",
"g. c #DB5C22",
"h. c #D95A24",
"j. c #E25D25",
"k. c #D96726",
"l. c #C86939",
"z. c #D36F3C",
"x. c #DC733E",
"c. c #EB6224",
"v. c #E5642B",
"b. c #F66423",
"n. c #F96422",
"m. c #F46927",
"M. c #F36C2B",
"N. c #FA6C2B",
"B. c #F2702F",
"V. c #ED6E33",
"C. c #F76E30",
"Z. c #ED7035",
"A. c #E3763F",
"S. c #EB763C",
"D. c #F47234",
"F. c #F67739",
"G. c #F37B3E",
"H. c #8B5F49",
"J. c #9B6646",
"K. c #886756",
"L. c #986C53",
"P. c #97735C",
"I. c #A8694B",
"U. c #AD7052",
"Y. c #BA7856",
"T. c #856F62",
"R. c #857469",
"E. c #9D7A66",
"W. c #847771",
"Q. c #847B73",
"!. c #8B7C73",
"~. c #837D79",
"^. c #8C7F79",
"/. c #997F72",
"(. c #C6734A",
"). c #D87947",
"_. c #C17D5C",
"`. c #E67941",
"'. c #EA7C44",
"]. c #E17D4A",
"[. c #F57E42",
"{. c #87817C",
"}. c #8C817B",
"|. c #91817A",
" X c #B98367",
".X c #A98370",
"XX c #EB824A",
"oX c #F58246",
"OX c #F5854A",
"+X c #CE8560",
"@X c #7E7F80",
"#X c #838383",
"$X c #8F8783",
"%X c #8B8986",
"&X c #8B8B8B",
"*X c #958881",
"=X c #98928D",
"-X c #929292",
";X c gray60",
/* pixels */
"C C C &XC C c C C #XC #XC #X&XN @X#Xc C C N @X-X#X#XB C #XV C B M @X-X#X@XN C @X#X#XV ~.m V N &X@X@X#XC &X#X&X#X@X#XN #X#XN C ~.",
"&X#XC #X&X&XN #XN C c C C C #XC &XC V #X@XV #X@XN #XN @X#X@X&X@Xm @X#Xm ~.M &X#X#X#X#X#XC #X#XV x @X#XC N #X-XC B #X@X#X#XN @XV ",
"C C C C N C N C N #XC #X#X#X#X#X@Xc #X&XC &X&XV #X&XC N @X#X-X-X&X#X#XV #XV #Xm #XC c c V -X#X#XN C &X#Xm C &X#XN V V #X@X#X@XC ",
"C c C -X#XN C #XC C C #X#X-X#X&X&X~.N C C #XN c C &X&X#X~.#XC @XC C C #X&X&X~.V &Xm C C @X-XV C N &X&XC #X#XC @XN @X@X#XV #X-X#X",
"&XN N C C C &XC #X#X#X#XC C c C C N m m #XV V #X@XC N ~.#X@Xc V ~.@X@X~.#X@X#X&X&X@X;X&X&X&X#XV C C @X#X&X#XV c c #X~.#XC #X@XN ",
"C C &XN C #XC c C C N N N N #X&X@X#X#X#X#XN V C #XC C @X#X-XC N @X@X@X#X#X@X#X#XV #X&Xm C C &X@X#XV #X-XC N &X#XC @X@X@X#X#Xm #X",
"#X#X-XC #XN c N C &X#XC C #X#XC C &X&X&X#XC #XC B V C @X#X&X@XV #X&XC @X@X#XN C m B #X@X#X#X#XV #XV @X#XM @X&X-X&X&X#X@XC @XN #X",
"C #X-XC &XC #X&X#XC &X-XC #XC c #X@X@X@X~.#X-XC @X#XV &X#XV @XN V @Xc c C &X@X#XV @XC V N N V c #XB #X-X@XC B N V V C #XV #X#X~.",
"z @X&X#X&X#X#X#X&Xc N &X#X&X#Xc V &X@X&XV C -X@Xm m M #X#XV %Xc C #X#X@X#X#XV M N #XN B N @X&X~.#XN N #XV @X#X#X#XV #X&XC C ~.@X",
"N C {.C &XN C N &X#XN C @X&XC C &X#Xc V m @X&X#X%X~.M #X-XV #XM #X;X&X&XV #X@X#X@X%XC @XC &X&X#X&XV V #XC %XV N M V C %X&X#XN @X",
"V C #X&XC C #X@X#XC C #XC #XN &X-XN ~.#XC N ~.V #X#X#X@X-X#X@XC N #XC &X#XC @X-X&X@X#XV #X@X@XV %X@Xc N &X&XC M C #X#XN @X;X&X&X",
"#X#X@XC c #X&X-X&X#X&XC N #XC &XB m @X#Xm N C V #X#X&X#X@XN N N @X@X@XV @XM ~.@XN m @X#X#X#X#XB V C #XC #XC &XV #X#XV M #X&XC @X",
"#X%X#X#XC #XC C V V ~.C C &X&X#X#X@X@X#X#X~.@X#X#XV &X#XV @X%XC #XM &X%X-X#XC @X#X@X@X@X@XB @X#XC @XN C -X@XB C C &X#X@X&X@XM N ",
"@X#XC #X#X#XC N #X&XC C N C C C V @X#X@X#X#X#X&XC N #X&XC #X@X&XC B #X&X#X#X#XN N c V %X-X#XC #X~.#XN #X&XN @X@X@X%XC #X#XV #X@X",
"-X#XC V C #XV @X&X#XN &XC C #X#XV #X&XV @XN N V V V #X-X#X&Xc V @X&X@XN #X#X&X@X#XV @X@XN #X@X#X%X&XV &X-X@X@X@XV C V #XV #X%Xc ",
"#XN &XC C N C -X#X&XC #Xc C N N N %X#Xm m @XC @X@X~.@XC M &X#X#X~.&X#X@XV V @XC %X@X%XV V #X@XN #X&XN M N N V #XV B N @X@X&X#Xx ",
"&XV #XC @XV C #XN @Xc M M @X#X@XN @X;X#X@X&X&X#X&X@X~.@X#X#XV #XN N C &X%XB @X#X#XV #XM #X#XN N -X-X&X%Xm @X@X@X@X#XC #XV @X#XV ",
"C N C c N C C C #X%X@X@X~.V @X&XN C -X%X@X@X%XM V N C @X#XC C &XC @X@X@X@X#XV V #X@X#X#X&XN #XM V @XV -X%X%X@X%XN C #X#X#X@X#XV ",
"@X#X-XV @X&X%XC @X#X%X@XV @X#X%Xc @X%Xm @X#X@X&X&XC V #X@X@X~.#XM N N N %X&X#X@XV ~.@XM #XN &X@XN C #XV #X&X@XC m #X#XV %X@XC @X",
"C #X&X&X-X#X%XC #XM C @X&X#X%XC V C #X@X&X@Xz C @Xc V #XN #X@XN ~.C #XV #X@X@XC z @XM C $X@X#XV #X@Xm V %X-X@XM %X#XV #X&X#X#X&X",
"N @XC C %X@X@X@X#XC %X@X@XN N N @XN @XC @XC z V #X#XB #X#X-X&X#X@X@XC V #XC &X&XM #X#X-X-X#X~.@X#XC @X#XV @XC @X-X@XV #X&X#X-XC ",
"M C @XN V #XC #X#XC B j p u u u y y p K.T.!.j !.!.W.|.$X$X^.W.$X~.~.~.b b v ~.$XW.T.j g g g h k x v ~.C N c %X-X~.C #XV C M #X@X",
"N B @X%XN v T.K.J.%.| ~ Y Y Y T Y T Y T ! ~ ~ ~ ^ ^ ^ ^ ..} } } ..} } ..{ } ..} } ! H H H S S S D { O.O.I.H.H.K.W.@X@X&XC V %X@X",
"%X#XM #XB P.l.g.5.g.5.h.k.g.g.h.5.4.2.-.&.A > > : : : > : : : ; 6 ; ; ; ; ; ; : ^ 3.h.3.h.,.h.h.h.2.2.,.2.,.2.2.#.~.C @XN C &X%X",
"V &X@X@XN _.(.].[.[.[.[.[.D.C.b.b.n.p.6.G H J 6 9 % % % % % % % % % % % % % % e r.b.b.C.C.C.C.C.C.[.C.C.[.V.C.C.m.I.~.m @XV @X@X",
"N V %X-XB _.K.).Z.j.j.r.e.e.e.6.6.6.9.G $ 4 e D o.@.+.@.+.@.@.@.#.#.@.@.#.#.@.,.9.9.7.e.-./ ( 8.t.t.t.9.t.t.t.t.9.h.*X@X%X&X&XC ",
"&XV @X%Xn Y.K.`.,.F G G F F G F G G 7.S O + & r `.N.f.f.f.f.f.f.f.f.n.n.n.n.a.9.9.e.J 8 $ O J 8.8.7.7.8.7.8.8.8.9.h.W.#XC @XN @X",
"#X&X#X#X^.(.U.V.9.8.9.9.8.8.8.8.8.8.8., O + * O.C.9.9.8.9.9.9.9.9.9.8.8.9.8.9.8.9.:.4 & &   A 7.8.6.6.6.6.6.7.8.9.j.^.#X@X&X#X%X",
"M N @X@X/.'.OXC.9.9.9.9.9.9.9.9.9.9.6.- O + 9 (.n.9.9.9.9.9.9.9.9.9.9.9.9.9.9.9.9.:.7 &     A 8.8.:.6.6.6.6.7.9.9.j.^.C N W.M @X",
"#XV C @X/.OXOXC.9.9.9.9.9.9.9.9.9.9.-.$ O + 7 A.a.9.9.9.9.9.9.9.9.9.9.9.9.9.9.9.9.:.7 & .   < 8.8.6.6.6.:.6.7.9.9.h.W.N M @X#Xm ",
"&X@XV #X+XOXOXb.9.9.9.9.9.9.9.9.9.9.&.X O + w `.t.9.9.9.9.9.9.9.9.9.9.9.9.9.9.9.9.6.8 % .   A 7.8.6.6.6.6.6.7.9.9.h.W.C V %X-X@X",
"&XV M ~.+XOXOXb.8.9.9.9.9.9.9.9.9.9.F O O O p S.t.9.9.9.9.9.9.9.9.9.w.9.9.9.9.9.9.6.8 % O   A 8.8.6.6.6.6.6.7.9.9.r.W.V V #X&X@X",
"#X@XN ~.+XOXoXf.9.w.w.9.9.9.w.w.9.9.H . o + p S.y.9.9.9.w.9.9.w.9.9.9.9.9.9.t.9.9.6.8 * + o 1 8.8.6.6.6.6.6.7.q.q.4.|.&XC N #XN ",
"V {.C #X+XOXoXf.9.9.9.w.w.w.9.w.9.9.H . o + u S.i.9.w.9.9.9.w.w.w.9.9.9.w.9.9.9.q.0.8 * +   1 8.8.6.6.6.6.6.7.q.w.j.^.&XN C &X#X",
"c #XC &X XoXOXf.q.q.w.w.q.w.w.w.9.w.! . X + w A.a.w.w.w.w.w.8.w.q.w.w.q.w.w.9.9.q.6.r * + . 1 8.q.:.6.6.6.6.7.q.w.g.!.&XN N N #X",
"#X#XC #X.XOXOXn.8.w.q.w.q.q.w.w.w.w.E X o + 0 ).n.q.q.w.w.w.w.w.w.w.w.w.w.w.9.w.q.0.r * + o 1 8.q.6.6.7.6.6.7.q.w.c.|.&XC @XC C ",
"-XN #X&X/.].].b.w.w.w.w.8.8.w.w.w.w.-.$ O + = l.C.w.w.8.9.w.w.w.w.w.w.q.9.q.q.q.w.0.r * X   1 8.q.:.:.7.:.6.0.q.9.j.n V N C N &X",
"V @X&XC !.Y.K.v.6.;.;.;.;.;.;.;.;.:.6.: O + * %.G.N.n.f.f.n.f.d.f.f.f.f.f.f.f.i.q.7.r + +   1 8.q.7.7.7.6.7.q.q.9.j.^.C C #X%X{.",
"#X#X@XC W.Y.K.x.<.E E E E E E W E E 7.A O + & a G.XXXXS.`.`.`.`.A.x.x.x.x.z.z.g.q.q.^ 1 < > I w.q.q.q.q.q.q.q.q.8.5.}.N C &X#X&X",
"#XC N #X$X_.L.).F.N.m.n.d.d.u.d.u.u.q.&.$ + 8 / ..u i t t w q q q q 0 0 9 9 9 9 I 0.i.p.p.c.c.m.d.m.m.m.m.m.m.m.a.g.^.M V #XV V ",
"&XN @X&XC Y.XXXXOXOXoXoX'.G.G.D.F.B.B.r.I A =.S $ . X X X @ # $ $ $ 2 3 3 5 5 > , ) B.B.B.B.B.B.B.B.M.M.M.M.v.m.j.I.C @X~.-X%XM ",
"V c -X;X&XP.z.x.k.s.s.s.s.s.1.s.1.1.>.>.>.>.Q D A Z P K Y Y T T W W Q Q *.Q *.=.=.=.>.>.>.1.>.>.>.>.>.>.>.>.>.<.O.~.C #XV #X-XN ",
"C #Xc C N N |..XL.J.%.' U U U U U R R _ _ _ _ _ ` ` ` ` ] ] ] ] ' ] [ [ ' ' $.X.$.] U R K K K L L |  . .J.E.P.E.n C C #X@X#X-Xm ",
"#X@Xz ~.C %X{.V C V C n s s i i i i s l l R.R.!.^.!.!.!.Q.^.Q.Q.n {.B {.v {.=X%X{.B f s d d h k k @X#XB &X-X@X#XN ~.C C @X&X&XN ",
"&XC c &X#XC @Xm #X&X#XC C #XM C @X{.C -X%XC V #X@X@X@X#X#X@XN #X#X&X#X@XC V &X@XN c m V @X@X#X@X#X@X@Xz c @XN V M #X@X#XC C #X#X",
"&XC N @X-XV #XV N V V @X#XN C @X#X#XN M B #X#X%X#Xc @X#X#XC C &XV V c N V V {.@X%X@X@XC C V %X#X;X@X%X#XC @X@X%XC @XC V c N C #X",
"&X-X@XV N @X{.&X@X@XC &X#XN #XV V @X@XV #XC @XC -X#XN V V V #X@XV %X@XV {.C #XV V V C V C {.-X@X#Xc N @X&XC C #XV #X@X#XV C C C ",
"@X%X@X#Xc @XV N %X#X-X%X-X@X%Xc @X@XV C #X#X&XV @X#XN #X#XB C V C -X%X@X@X-X#X@XV V %X@XC C #X#X#X@X#X#X%XM ~.#X#X@Xc V %X#XN %X",
"@X%X#X-X@XV V C &XC #Xc {.C &XN ~.#XV &X@Xm #X%X#X&X~.#XV C &XC N #X@XV C #XN N &X&XC #Xc C C C V C @X@X#XM V N C -X@Xc @X-X@XV ",
"{.#XC @Xc #X%X@X&X&X#XN #X@X&Xc @X#X#X&X@XV N #XV #X@X#Xx #X#XV #X&XV V #XC C c C -XC &XC #X#XN V @X%X{.&XV #X&XV %X%X@XV V #X#X",
"V @XN C #XC #X#XC V #X#XN V &X@X#XM @X&X@X#XC #X#XC z @X#X&Xc @X-XV V %X-X&X#XN #X;X&XN C C C #X@X@X@XV %X-X#X%XV %X@X%X#X@X@XM ",
"C -X@XN C C #X&XC N #X#XN @X#XN #XN #X#XC @X#X@X#X&XV N C @Xc #X-X%X-X@X&X~.&XN C C c N #XC N &X@X&XV #Xm M m m @X@XV @X#X-X{.M ",
"V @X#Xm #X@X#X&XV C #X&X&X&XV N #X~.#XN V C B @X@X#X#X#Xm #XN ~.@XN #XC N N -X-X#XC C #XC C #X#XM {.%X%Xm V -XC &XV N #X@X&X&X#X",
"@X@X%XM V @X@X%X#X&XN C %XC N &X&X#XC V #XC @X#X#Xz ~.-X#X&X@XN @XN #X#Xc C N N C C &X#X#Xc C C #X@X@X%XM @X-X&X&X#XC %X%XC V #X",
"C %X&X%X#X@X@XN C #XV V #XC @X#X#X#XC #X&XV &X-X&X@X@X#X#X&XV M #X#X#XC C C c N C #X#XC &XN &X&X%X#X#XV #X@X%X@XV C c N N c V N ",
"N C V V @X#XN #X#XC C N C V C c V @X#X&X#X@X#XC #XV #X#X#X#X@X@X#X#XN V -X&XC &X#X#X&X&X-X#X#X&X@XV V V &X@X&X#X@X#Xz C &X@X&XV ",
"&X@XN #XV @X#X-XC N #XC #Xc C C #X@X#XN N V C @XV C #X-X#XN V V C -X%XV V -X&X&XC C N C C c c C V c #X-XC N #X&XV &XV -X-X-X%XV ",
"-XC V %X@XC &X%X#XC #XN N C &X&X~.@X-X#XV @XC C V C N V @XC #X@X#X#XC #X@XN N m c C C C N #XC #X&XV N C N N #X#XN #XC #Xc N #X&X",
"C C &XC #XC N N &X#X-X#X#X&X#X#XC c @X@XN #X#XN m C &X@X@X#X%XN C V C %XV V %X%XC #XC #XN #X&X#X#X#X#X{.#X#XV #XV @XV @XC N #X%X",
"C %X&X#X&X#X#XC C C V N N N C &XC @XC V C V #X#X@X%X-X%X@X#X%X#X@XC @X%X#XN M ;X&X#X#X#Xz C &XC C #X#X@X#XN @X#XC %XC N C &X&X@X",
"C #XN C #X&XC #X&X#X#XN #Xc V ;X%X#XN #X#XC @X#XV @X%XB N #X@XV C @X#X#X%X&X@X@XN C C &XN C C C -XC #XC %Xc N &X-X#XM N %X-XC #X",
"z m N C -X&XV C #XN #XC {.N @X&X#X#X@X-XC V C &X@X@X@XV #X%X#X@X@XC @XN N M @XV C &X#X&XV #XN @X#XV C #X@X#XC &X&XN #XN V #XC @X",
"C #XC N C C V N N #XN C @X#XC C V @X#X-XN c @X&X@X#XN @XN V #X@X#X#X#XN @XN @XC C #XC #XN N N @XC C @XC C #XN C #X@X#X#X@XC #X@X",
"-X&X#X@X#XC #X&XC C C &X&X-X&X@X#XB @X&X#XM ~.#XV V C V V ~.&X@X@XV &X#X-X#X#X%X#X#XC #XC #X#X#XC #XC C &X#XN #X@XN C #X{.@X@XC "
};
