/* XPM */
static char *c733f83b69844968df2b805e2e3ecea2lVt7PMfaOcAN1Xsf[] = {
/* columns rows colors chars-per-pixel */
"64 64 158 2 ",
"   c #164D0F",
".  c #184F0F",
"X  c #1D530F",
"o  c #0F4710",
"O  c #0F4810",
"+  c #114911",
"@  c #184F10",
"#  c #1A4E1A",
"$  c #1A5010",
"%  c #21560F",
"&  c #265B0E",
"*  c #2A5E0E",
"=  c #265A10",
"-  c #2A5E10",
";  c #2E620D",
":  c #31640D",
">  c #37690D",
",  c #3B6C0D",
"<  c #3F700C",
"1  c #316119",
"2  c #225223",
"3  c #2C562C",
"4  c #2E582E",
"5  c #305D21",
"6  c #335633",
"7  c #355935",
"8  c #3A5E3A",
"9  c #3E613E",
"0  c #43730C",
"q  c #48770C",
"w  c #4C7B0C",
"e  c #517E0C",
"r  c #426E18",
"t  c #527727",
"y  c #567C21",
"u  c #627F32",
"i  c #426242",
"p  c #4A664A",
"a  c #526B4F",
"s  c #516552",
"d  c #556B55",
"f  c #5A6D5A",
"g  c #5D715D",
"h  c #62734A",
"j  c #687949",
"k  c #677550",
"l  c #687553",
"z  c #6E7B57",
"x  c #6B745C",
"c  c #6A775C",
"v  c #717D5C",
"b  c gray40",
"n  c #6C6C6C",
"m  c #647364",
"M  c #667966",
"N  c #6C746C",
"B  c #6E786E",
"V  c #707666",
"C  c #727B64",
"Z  c #71736C",
"A  c #797F6F",
"S  c #6F7670",
"D  c #747474",
"F  c #767B76",
"G  c #797C75",
"H  c #7C7C7C",
"J  c #56840B",
"K  c #59860B",
"L  c #5D890B",
"P  c #5B8512",
"I  c #5D851B",
"U  c #628D0B",
"Y  c #67910B",
"T  c #6B930C",
"R  c #70970C",
"E  c #749A0C",
"W  c #799E0D",
"Q  c #638A18",
"!  c #6E9913",
"~  c #749D13",
"^  c #7EA20D",
"/  c #7BA212",
"(  c #7DA719",
")  c #5F8421",
"_  c #618424",
"`  c #63832C",
"'  c #6B8B28",
"]  c #719224",
"[  c #658133",
"{  c #688633",
"}  c #688831",
"|  c #69833D",
" . c #6C883C",
".. c #78923F",
"X. c #6C8542",
"o. c #6E814D",
"O. c #708847",
"+. c #7A8A4A",
"@. c #718451",
"#. c #768955",
"$. c #74825B",
"%. c #78885C",
"&. c #798467",
"*. c #7A836B",
"=. c #7D8274",
"-. c #7D827C",
";. c #83A60E",
":. c #87A80E",
">. c #8AAB0E",
",. c #84A913",
"<. c #8CAE10",
"1. c #82AC1A",
"2. c #8FB011",
"3. c #8AB31D",
"4. c #93B413",
"5. c #97B816",
"6. c #99BB17",
"7. c #9CBE19",
"8. c #8BB421",
"9. c #9FC11A",
"0. c #A2C41C",
"q. c #A6C91F",
"w. c #A9CC21",
"e. c #AFD224",
"r. c #B1D425",
"t. c #B6D928",
"y. c #B9DC2A",
"u. c #C2E62F",
"i. c #C3E730",
"p. c #C6E932",
"a. c #C9ED34",
"s. c #CAEE35",
"d. c #CDF136",
"f. c #D0F438",
"g. c #83904E",
"h. c #808E68",
"j. c #848B75",
"k. c #80817F",
"l. c #81847C",
"z. c #878B7F",
"x. c #808080",
"c. c #818181",
"v. c gray51",
"b. c #838383",
"n. c #848484",
"m. c gray52",
"M. c #878787",
"N. c #858985",
"B. c #888C81",
"V. c #888888",
"C. c #8A8A8A",
"Z. c #8B8B8B",
"A. c #8D8D8D",
"S. c #8F8F8F",
"D. c #8C9086",
"F. c #909090",
"G. c #929292",
"H. c #989898",
/* pixels */
"H H H M.H c.n x.H b.H M.x.c.Z.D H b.n F F u K K K J T >.:.T J L :.>.W K K W >.;.U K u H n F D S.c.H x.x.V.c.V.c.H b.D b.b.D b.H ",
"S.b.H M.M.A.D b.D D n H H H c.H Z.H H M.l.[ K J K J Y >.>.T J L ;.>.W K K W >.:.U K | l.H c.c.F n H b.H D M.S.b.H b.x.b.H D H D ",
"H H H H D H n H D b.H x.b.c.c.b.b.n =.j.v { K K U U E >.<./ ~ ~ ,.>.^ U Y W >.:.T U _ k v j.&.*.D H V.V.n x.V.M.D D H x.c.b.b.H ",
"H n H S.c.D b.b.x.H H b.M.F.V.V.V.H z I I P K L ^ :.:.>.<.w.a.y.4.>.>.:.:.>.>.>.:.:.~ P I Q P _ V M.A.H M.b.H b.D c.H M.H b.S.M.",
"V.D D H H c.F.H b.b.b.m.D H n H H D l P J J J K ^ >.<.>.>.r.f.i.4.>.>.>.>.>.>.>.>.>.W J J K J I A F H b.S.c.D n n c.H b.H M.H D ",
"F b.Z.N H b.H b H H D D D V @.#.o.@...8.3./ T E :.>.>.>.>.9.r.w.<.>.<.>.>.>.>.>.W E / 3.3.! K I j j %.F.H D V.M.H c.b.H b.b.D H ",
"b.b.H.H M.D n H H Z.c.H c.| K K K J ( s.d.0.>.>.>.>.>.>.>.>.>.>.>.>.>.>.>.>.>.;.U J 1.s.d.3.J K U L u N.Z x.A.G.S.M.b.x.H H D b.",
"H b.S.H V.F c.A.x.c.M.G.H X.K K J J ( s.s.0.:.>.>.>.<.>.>.>.>.>.>.>.>.>.>.>.>.:.U J 1.s.s.3.K K K K { S.x.F H n D H H x.H b.M.H ",
"b H V.b.S.b.M.b.M.n C O.| ] W R E E ,.0.w.4.>.>.>.>.>.>.>.>.>.4.q.r.0.>.>.>.>.>.W E >.q.q.<.E T K K I j u A b.l.b.H M.M.H H H c.",
"D H b.H M.F F D A.M.h P K W <.<.>.>.>.>.>.>.>.>.>.>.>.>.>.>.>.4.p.f.y.<.>.>.>.>.>.>.>.>.>.>.>.;.U K K K Q %.F D D D c.V.V.b.D c.",
"H H b.V.H H l.H H G o.U K E :.:.>.>.>.>.>.>.<.>.>.:.>.>.>.<.>.4.u.a.t.>.>.>.>.>.>.>.>.<.4.>.>.:.U K L K P #.F Z H x.H D H H.M.S.",
"x.b.b.H n b.S.Z. ._ _ K K U U U :.>.<.>.>.>.>.:.T U E >.>.>.>.>.5.6.6.>.>.>.>.>.>.>.6.u.y.9.>.>.:.W E L e Q ` ` =.M.H n c.A.H c.",
"M.M.M.b.H b.H =.) K K K K K K K ;.>.>.>.>.>.>.:.U K Y >.>.>.>.>.:.:.>.>.>.>.>.>.>.>.0.d.f.q.>.>.>.>.W K e K K y C V.m.H V.H n D ",
"H b.H b.b.l.A x _ K K K K K U U >.>.>.<.>.>.>.:.U L E 2.4.<.>.>.4.4.4.>.>.>.>.<.>.>.0.u.u.0.>.>.>.>.;.U U U U Q $.j.F m.M.H c.c.",
"S.b.H H H X.I I K K K K K R ;.:.>.>.>.>.>.>.>.>.;.;.7.u.u.0.>.4.y.p.r.>.>.>.>.>.>.>.>.4.4.<.>.>.>.>.:.;.;.;.;.;.Q Q j l.D M.V.n ",
"b.D V.H H u K K J K K K K E >.>.>.>.>.>.>.>.>.>.>.>.0.d.d.q.>.4.p.f.y.<.>.>.>.>.>.>.>.>.>.>.>.>.>.>.>.>.>.>.>.>.U e u b.H V.c.n ",
"V.H =.v $._ K K U Y Y Y Y E W W W W ;.:.>.;.E W ;.>.6.t.t.0.>.<.r.t.w.>.>.>.>.:.;.W ;.>.<.>.>.>.>.>.;.W W ;.:.:.R Y ' @.z *.m.F ",
"H D v P L P K L ;.:.>.>.>.T K K J L Y >.:.T K U ;.>.>.>.>.>.>.>.<.<.>.>.>.<.>.:.U e T :.>.>.>.>.>.>.W L L W >.>.:.>.W K U z M.D ",
"H b.h.P K L K L ;.>.>.>.>.T K L J K Y :.:.T J L ;.>.>.>.>.>.>.>.>.>.>.>.>.<.>.:.U e T >.>.>.>.>.>.>.W K K W >.>.>.>.W J U z H c.",
"H b.h.P K 0 > , T E E E E T T T T T ;.0.q.;.T R :.>.>.>.>.>.>.>.>.>.>.<.>.>.>.:.E T W >.>.6.w.0.2.>.;.R T E E E E E T L K @.b.C.",
"D -.v P e * o @ w J J J L E :.>.:.:.7.a.a.0.>.>.>.>.>.>.>.>.>.>.>.>.>.>.>.>.>.>.>.:.>.>.>.r.d.u.4.>.>.:.>.T K K K K K K P z S.H ",
"Z H v K J * o . w L L J K E >.>.>.:.0.p.a.0.>.>.>.>.>.>.>.>.>.>.>.>.<.>.2.>.>.>.>.>.>.>.>.e.d.u.4.>.:.>.:.T J K K K K K K j c.l.",
"u u t & & > 0 0 E W T L K E >.:.R Y W 0.0.4.>.>.>.>.^ T T ^ >.>.>.>.5.t.t.6.>.>.>.>.>.>.:.5.0.7.>.>.;.T T L J K E W W W W +.V.x.",
"K K 0 + + , K U ;.>.E K K E >.;.L J Y :.:.>.>.>.>.>.E K J E >.>.>.>.9.d.d.0.>.>.>.>.>.>.>.>.>.:.>.>.W K J J K L :.>.>.<.<.g.A.M.",
"K e 0   . 0 L K ;.>.W J J E :.;.L J Y :.>.:.:.:.>.>.W L L E >.>.:.:.6.i.p.0.:.>.:.:.:.>.>.>.:.>.:.>.W K J J e K W >.>.>.>.+.H D ",
"% % * 0 q U ;.;.:.>.W K J U U U K J Y >.:.E U Y :.>.:.^ ^ >.>.:.Y U E 5.6.2.>.:.Y U E >.<.>.<.;.T U U K J > X & K U R >.>.y 3 3 ",
"o o & K L W >.>.>.>.W K K K J e K K Y :.:.T J L ;.>.>.>.>.>.:.;.U e Y :.>.:.>.:.U J Y >.>.>.>.;.L J K K J * o @ q K T >.>.q o o ",
"+ + & J L W >.>.;.;.R K e U Y U L K Y :.>.Y J L ;.>.>.>.>.>.>.:.Y U T :.;.:.>.:.U K T :.>.;.;.W L J K U U > X % q K U ^ W , o o ",
"+ o & J K W >.:.U K U J K R >.;.L J Y :.>.T J L ;.:.>.>.>.>.>.>.:.:.W K L W :.;.U J Y >.>.R K K K J U :.:.U J J K K K K K : o o ",
"o o & J K W >.>.U e K e K E >.;.U J Y :.>.Y J L ;.>.>.>.>.>.>.>.>.>.W K K W >.:.U J T >.>.T K K K J U >.:.T J J K K K J K : + o ",
"& & * , 0 e U U K K U Y Y W >.;.L J U W W U K K E W ^ >.>.;.W W >.>.W L L W >.:.U K K U U K K K K K T >.>.R T U q 0 q K J ; o + ",
"J J 0   +   + . w K Y :.>.>.>.:.L K K K L K K K K K T :.>.R K U ;.>.W K K W >.;.U K , @ . , K K K J Y :.>.>.:.W &   ; J J ; o o ",
"J K 0 + O O o @ w J T >.<.>.>.:.L J K K K K K K K J T >.<.T K L ;.>.W K K W >.:.U K <   o > K J K J Y >.>.>.>.^ = o * J K ;   o ",
"; ; & + + O o @ w J T :.>.W T U > ; < J K K K K K J L R T U K K Y R Y K K Y R Y K K w > > : ; > e K L T T ;.>.^ = o $ ; : : > > ",
"  o + O O + O @ q J T >.>.T K w @ O & J K K K J K K K J K J K K L J J K J K L e K K K K K ; o . w K K K K W >.^ = o o o   > K K ",
"o o + + + + o @ w J T :.>.T J w $ O & J K K J J K K K K K K J K L J K K K K L K K K K K K : o X w K J J J W >.W = o + o + > J J ",
"O o X , < % O @ w J L Y Y 0 & * < < q J K R ^ ^ ^ W T J K K K L W W W W W Y K L E W W W W K , 0 J K q * * e T U % o + o o X * & ",
"+ o & K K * O   w J K J J ; o @ w K K K J W :.>.<.>.^ K K K J L ;.>.>.>.>.Y e L ;.>.>.>.>.R K K K K < o   , K w $ o + + o O o O ",
"2 2 1 K J * o   0 w J J J ; o $ w K K K K W <.>.>.>.W J K K K U ;.>.>.>.:.T J U ^ <.>.>.>.T K K K L 0 o o > w q $ + + + + # 2 2 ",
"F B h P J * o + $ $ ; J K ; o $ J K K K J ^ >.>.>.>.W J K K J L :.>.>.>.>.T J K ;.>.>.>.>.T K K K K 0   o   X . + + + o @ p N N ",
"V.D v Q J * o o + o * K K ; o $ w J K K K E <.<.>.>.^ K J K K L ;.>.>.>.:.T K K ;.:.>.>.>.T K K K K 0 + + O O O + + + + + g M.S ",
"F N &.U K & o @ + o % q q & o $ w K K K K / >.:.;.^ R J K K K K W ;.;.:.>.T e U W ;.;.>.>.T K K K K 0   O X X X + + + + + f S.D ",
"b.H l P K * o o o o +   @ + O $ w J K K J W >.:.Y K K J K K K K K K T :.:.T L e K K T >.>.T K K K K , + + > J q $ O + + + d G.D ",
"b.H h P K - o o o   o o o o + @ J J K J K W >.:.U K K J K K K K L K Y >.>.Y K K K K T >.>.T K K K K 0   + < J J $ @ + + + f V.D ",
"A.H x X.X.5 + + + o X ; ; X o   : , 0 J J J e J J K w > > w K K K K K e e e K K K K U R E e > > > > * +   , K w $ O 2 i i m M.H ",
"V.H D b.V.7 + + + O * J J ; O O O O % J J ; o # w K <   O , K K K K 0 + + 0 L e K K K K K : + o +   + o + < K J $ o 8 D n D H V.",
"V.G.H H D 8 + o O o * J J ; O + + O & J J & o   w K , + O , J K K K 0 + + , L L K K K J J : o o o + o + + , K w $ + 8 m.D H H H ",
"b.V.H M.b 8 o @ ; > q J K ; O O + O X ; ; X o   q K < O o = ; > e K 0 + + & ; : e K q : : @ o   : > &   + & : ; $ + 7 D V.b.D M.",
"H M.b.G.H 7 + @ w K J J J ; O O + + o o o o o @ w J , + o + o $ e K 0 + o o o @ w K , + o o o $ w K 0   O O O O + + 8 n H G.-.H ",
"m.b.H c.n 9 # # w K J J J * O O O o   + @ @   X q J , + + + o $ w J , + + + + @ q J , + + + + $ w L 0       O + # # i H H D b.b.",
"H H D H x.S m c ) K 0 = $ @ O + o o X 0 q q q 0 * X $ + o + + + X % $ + O + o + $ % $ + o + o $ w K e q q % O # s M D M.M.H H D ",
"H S.x.D H H M.z.) J < + + O + O   O * J J J K e X O + O + O + O O O + o + + + o o + o + o + + @ e K K K J * O # B H H -.b.G.M.n ",
"D M.b.n M.x.b.B.[ I r + + + + + + o & J K K K w X O @ @ $ + O + + + + + + + + + @ $ $ $ X   o . q w w w w 1 2 3 F H D b.H S.M.b.",
"x.x.M.D D H x.M.l.j.p + + + + + + o & J K K K w $ o & w w * O O + + + + + + o @ 0 w w w w * o + . X $ $ $ a b.-.M.b.H V.M.H D M.",
"H V.A.M.M.x.x.D H b.d + + O + + + o & J L K K J X O * J K ; O   O O o o o o o @ q K K K J ; o + + + + o # f M.b.H H n D D b H D ",
"n H D H x.b.D b.N.H m 7 7 2 + + O   X < 0 w K w X O * J J ; O + & & & & & . + @ > 0 w K J ; O O + + # 7 8 m V.M.H b.b H S.H S.F ",
"S.b.D c.D c.m.S.H D b.F x.7 o o O + + + @ , K J X o * K J ; o $ w J K J J - o + + + - J J ; O O + + 7 V.H n b.M.D V.D G.S.H.M.D ",
"S.H D M.c.H Z.M.M.D M.D D 8 + + + O O O + , K w X o * K K ; + $ w K K K J - o + + o ; J J ; o O + o 4 H D H b.M.D M.H b.n D b.G.",
"H H V.H b.H D D V.b.G.M.b.N i i # O O O + & , : . o $ > > % o @ w K K K J * o + + O . > , % O # 9 i d H b.H D b.H b.D b.H D b.M.",
"H M.S.b.S.c.x.H b.F F n D D G H 2 + + +   o O   o + + + + o + $ w K K K J * o + + + O o O O + 2 N b.b.b.M.D b.M.H M.H D H S.V.H ",
"c.x.D H b.M.x.M.V.b.l.D M.n H b.3 + + # # + o o + + o + + o + @ w K J J J * o + + + + # # + + 2 -.H b.H V.n D M.G.b.n Z M.G.H b.",
"b n D x.S.A.D x.b.F b.H H D H N.m m g M d 3 + + + + + + + + o $ w J w * &   + + + + 6 g d g s m M.F H b.b.H H S.M.D M.D H b.H b.",
"c.b.H D H H F D D m.D H H M.H H D H M.S.D 6 + + + + + + + + + $ w L 0 o o O + + + + 7 b.D D D H H H H H H b.D H V.b.b.b.H H H b.",
"G.V.x.x.c.x.b.V.H x.H M.S.G.V.N.M.D H V.b.7 + + + + + + + + + $ w K 0 + O + + + + o 8 M.H b.b.m.H m.H H Z.b.D b.H D H M.x.b.H H "
};
